<?xml version="1.0" standalone="no"?>
<!DOCTYPE svg PUBLIC "-//W3C//DTD SVG 1.1//EN" "http://www.w3.org/Graphics/SVG/1.1/DTD/svg11.dtd" >
<svg xmlns="http://www.w3.org/2000/svg" xmlns:xlink="http://www.w3.org/1999/xlink" version="1.1">
<metadata>
Created by FontForge 20201107 at Wed Jun 22 14:08:34 2022
 By 
Copyright c 2018 Swiss Typefaces Sarl. All rights reserved.
</metadata>
<defs>
<font id="EuclidCircularAVN-MediumItalic" horiz-adv-x="0" >
  <font-face 
    font-family="EuclidCircularAVN Medium Italic"
    font-weight="500"
    font-style="italic"
    font-stretch="normal"
    units-per-em="1000"
    panose-1="2 11 8 4 0 0 0 0 0 0"
    ascent="806"
    descent="-194"
    x-height="500"
    cap-height="710"
    bbox="-267 -296 1443 1149"
    underline-thickness="88"
    underline-position="-178"
    slope="-12"
    unicode-range="U+0020-FEFF"
  />
<missing-glyph horiz-adv-x="658" 
d="M730 710l-151 -710h-500l151 710h500zM393 355l-150 327l-139 -654zM550 19l-147 320l-285 -320h432zM406 370l285 321h-432zM566 28l139 654l-291 -327z" />
    <glyph glyph-name="uni04070407" unicode="&#x407;&#x407;" horiz-adv-x="584" 
d="M104.5 798.5q-19.5 19.5 -19.5 46.5q0 28 19.5 47.5t47.5 19.5t47 -19.5t19 -47.5q0 -27 -19 -46.5t-47 -19.5t-47.5 19.5zM181 710h117l-151 -710h-117zM473 710h117l-151 -710h-117zM366.5 892.5q19.5 19.5 47.5 19.5t47 -19.5t19 -47.5q0 -27 -19 -46.5t-47 -19.5
t-47.5 19.5t-19.5 46.5q0 28 19.5 47.5zM628.5 892.5q19.5 19.5 47.5 19.5t47 -19.5t19 -47.5q0 -27 -19 -46.5t-47 -19.5t-47.5 19.5t-19.5 46.5q0 28 19.5 47.5z" />
    <glyph glyph-name="uni04570457" unicode="&#x457;&#x457;" horiz-adv-x="517" 
d="M80 607q-20 20 -20 48t20 47.5t48 19.5t47.5 -19.5t19.5 -47.5t-19.5 -48t-47.5 -20t-48 20zM128 500h110l-106 -500h-110zM295 702.5q20 19.5 48 19.5t48 -19.5t20 -47.5t-20 -48t-48 -20t-48 20t-20 48t20 47.5zM385 500h110l-106 -500h-110zM511 702.5
q20 19.5 48 19.5t47.5 -19.5t19.5 -47.5t-19.5 -48t-47.5 -20t-48 20t-20 48t20 47.5z" />
    <glyph glyph-name="uni04570458" unicode="&#x457;&#x458;" horiz-adv-x="517" 
d="M80 607q-20 20 -20 48t20 47.5t48 19.5t47.5 -19.5t19.5 -47.5t-19.5 -48t-47.5 -20t-48 20zM128 500h110l-106 -500h-110zM148 -117q18 -4 34 -4q36 0 57.5 19t30.5 61l115 541h110l-119 -560q-18 -84 -64 -121.5t-127 -37.5q-34 0 -57 6zM295 702.5q20 19.5 48 19.5
t48 -19.5t20 -47.5t-20 -48t-48 -20t-48 20t-20 48t20 47.5zM511 702.5q20 19.5 48 19.5t47.5 -19.5t19.5 -47.5t-19.5 -48t-47.5 -20t-48 20t-20 48t20 47.5z" />
    <glyph glyph-name="f_f" unicode="ff" horiz-adv-x="751" 
d="M48 402l21 98h104l17 82q18 85 72.5 129.5t136.5 44.5q45 0 79 -12l-21 -98q-23 10 -57 10q-85 0 -103 -89l-14 -67h118l-21 -98h-118l-85 -402h-110l85 402h-104zM517 402h-84l21 98h84l18 82q19 85 73 129.5t135 44.5q46 0 79 -12l-20 -98q-25 10 -57 10q-43 0 -68 -22
t-35 -67l-15 -67h143l-21 -98h-143l-85 -402h-110z" />
    <glyph glyph-name="f_i" unicode="fi" horiz-adv-x="644" 
d="M48 402l21 98h104l17 82q18 85 72.5 129.5t136.5 44.5q45 0 79 -12l-21 -98q-23 10 -57 10q-85 0 -103 -89l-14 -67h143l-21 -98h-143l-85 -402h-110l85 402h-104zM513 500h110l-106 -500h-110zM555.5 734.5q21.5 21.5 52.5 21.5q30 0 51.5 -21.5t21.5 -51.5
q0 -31 -21.5 -52.5t-51.5 -21.5q-31 0 -52.5 21.5t-21.5 52.5q0 30 21.5 51.5z" />
    <glyph glyph-name="f_f_i" unicode="ffi" horiz-adv-x="1010" 
d="M921.5 630.5q-21.5 21.5 -21.5 52.5q0 30 21.5 51.5t52.5 21.5q30 0 51.5 -21.5t21.5 -51.5q0 -31 -21.5 -52.5t-51.5 -21.5q-31 0 -52.5 21.5zM69 500h104l17 82q18 85 72.5 129.5t136.5 44.5q45 0 79 -12l-21 -98q-23 10 -57 10q-85 0 -103 -89l-14 -67h118l-21 -98
h-118l-85 -402h-110l85 402h-104zM517 402h-84l21 98h84l18 82q19 85 73 129.5t135 44.5q46 0 79 -12l-20 -98q-25 10 -57 10q-43 0 -68 -22t-35 -67l-15 -67h143l-21 -98h-143l-85 -402h-110zM879 500h110l-106 -500h-110z" />
    <glyph glyph-name="f_l" unicode="fl" horiz-adv-x="644" 
d="M48 402l21 98h104l17 82q18 85 72.5 129.5t136.5 44.5q45 0 79 -12l-21 -98q-23 10 -57 10q-85 0 -103 -89l-14 -67h143l-21 -98h-143l-85 -402h-110l85 402h-104zM566 750h110l-159 -750h-110z" />
    <glyph glyph-name="f_f_l" unicode="ffl" horiz-adv-x="1010" 
d="M48 402l21 98h104l17 82q18 85 72.5 129.5t136.5 44.5q45 0 79 -12l-21 -98q-23 10 -57 10q-85 0 -103 -89l-14 -67h118l-21 -98h-118l-85 -402h-110l85 402h-104zM517 402h-84l21 98h84l18 82q19 85 73 129.5t135 44.5q46 0 79 -12l-20 -98q-25 10 -57 10q-43 0 -68 -22
t-35 -67l-15 -67h143l-21 -98h-143l-85 -402h-110zM932 750h110l-159 -750h-110z" />
    <glyph glyph-name="f_t" unicode="ft" horiz-adv-x="770" 
d="M48 402l21 98h104l17 82q18 85 72.5 129.5t136.5 44.5q45 0 79 -12l-21 -98q-23 10 -57 10q-85 0 -103 -89l-14 -67h123l-21 -98h-123l-85 -402h-110l85 402h-104zM459 500h83l30 139h110l-30 -139h143l-21 -98h-143l-46 -219q-3 -15 -3 -28q0 -61 75 -61q28 0 54 7
l-21 -98q-29 -8 -66 -8q-69 1 -111.5 38.5t-42.5 105.5q0 24 6 52l45 211h-83z" />
    <glyph glyph-name="t_t" unicode="tt" horiz-adv-x="759" 
d="M139.5 33.5q-42.5 37.5 -42.5 105.5q0 24 6 52l45 211h-103l20 98h104l30 139h110l-30 -139h117l-21 -98h-117l-46 -219q-3 -15 -3 -28q0 -61 75 -61q29 0 53 7l-20 -98q-29 -8 -66 -8q-69 1 -111.5 38.5zM448 500h83l30 139h110l-30 -139h143l-21 -98h-143l-46 -219
q-3 -15 -3 -28q0 -61 75 -61q28 0 54 7l-21 -98q-29 -8 -66 -8q-69 1 -111.5 38.5t-42.5 105.5q0 24 6 52l45 211h-83z" />
    <glyph glyph-name=".notdef" horiz-adv-x="658" 
d="M730 710l-151 -710h-500l151 710h500zM393 355l-150 327l-139 -654zM550 19l-147 320l-285 -320h432zM406 370l285 321h-432zM566 28l139 654l-291 -327z" />
    <glyph glyph-name=".null" 
 />
    <glyph glyph-name="nonmarkingreturn" horiz-adv-x="235" 
 />
    <glyph glyph-name="space" unicode=" " horiz-adv-x="235" 
 />
    <glyph glyph-name="exclam" unicode="!" horiz-adv-x="279" 
d="M180 710h111l-59 -277l-63 -196h-69l21 196zM39 140.5q25 25.5 61 25.5t61.5 -26t25.5 -61q0 -36 -25.5 -61.5t-61.5 -25.5t-61 25.5t-25 61.5t25 61.5z" />
    <glyph glyph-name="quotedbl" unicode="&#x22;" horiz-adv-x="420" 
d="M251 710l-57 -266h-95l56 266h96zM357 710h96l-57 -266h-95z" />
    <glyph glyph-name="numbersign" unicode="#" horiz-adv-x="703" 
d="M239 193l-60 -193h-97l60 193h-104v88h132l47 152h-106v88h134l59 189h97l-59 -189h162l59 189h97l-59 -189h104v-88h-131l-48 -152h107v-88h-135l-60 -193h-96l60 193h-163zM430 281l47 152h-162l-48 -152h163z" />
    <glyph glyph-name="dollar" unicode="$" horiz-adv-x="535" 
d="M68.5 71.5q-44.5 55.5 -39.5 131.5h111q0 -36 19 -62t50 -38l46 213l-8 4q-70 35 -105.5 81.5t-35.5 119.5q0 58 25.5 103.5t76.5 71.5t123 26h10l16 76h54l-18 -84q66 -18 106.5 -68.5t36.5 -113.5h-112q-1 26 -15 46t-38 30l-43 -200l24 -12q125 -65 125 -198
q0 -94 -60.5 -151t-167.5 -57h-9l-17 -78h-54l18 85q-74 19 -118.5 74.5zM231 474q15 -21 49 -40l39 183q-45 -1 -74 -26.5t-29 -62.5q0 -33 15 -54zM338 121.5q29 26.5 29 69.5q0 32 -15.5 56t-48.5 44l-41 -197q47 1 76 27.5z" />
    <glyph glyph-name="percent" unicode="%" horiz-adv-x="1071" 
d="M187 350.5q-45 26.5 -71.5 72t-26.5 98.5q0 54 26.5 99t71.5 71.5t99 26.5q53 0 98.5 -26.5t72 -71.5t26.5 -99q0 -53 -26.5 -98.5t-72 -72t-98.5 -26.5q-54 0 -99 26.5zM215 449.5q29 -29.5 71 -29.5t71 29.5t29 71.5t-29 71.5t-71 29.5t-71 -29.5t-29 -71.5t29 -71.5z
M792 710h127l-600 -710h-128zM654.5 288q26.5 45 71.5 71.5t99 26.5q53 0 98.5 -26.5t72 -71.5t26.5 -99q0 -53 -26.5 -98.5t-72 -72t-98.5 -26.5q-54 0 -99 26.5t-71.5 72t-26.5 98.5q0 54 26.5 99zM753.5 118q29.5 -30 71.5 -30q41 0 70 30t29 71t-29 71t-70 30
q-42 0 -71.5 -30t-29.5 -71t29.5 -71z" />
    <glyph glyph-name="ampersand" unicode="&#x26;" horiz-adv-x="738" 
d="M150.5 12.5q-44.5 22.5 -71 64t-26.5 96.5q0 77 44.5 127.5t132.5 98.5q-27 34 -43 68.5t-16 72.5q0 51 26 92.5t73 65.5t108 24q52 0 91.5 -21.5t61 -57t21.5 -76.5q0 -44 -21 -77t-56 -58.5t-92 -56.5l107 -131l96 98h140l-173 -175l136 -167h-131l-78 95
q-63 -57 -113.5 -81t-116.5 -24q-55 0 -99.5 22.5zM190 113.5q28 -25.5 70 -25.5q40 0 76 19.5t82 63.5l-126 154l-11 -6q-62 -33 -90.5 -64.5t-28.5 -74.5q0 -41 28 -66.5zM287 497.5q11 -20.5 35 -49.5l11 6q8 4 44 23.5t51 39.5t15 46q0 27 -20 46t-53 19
q-43 0 -68.5 -25t-25.5 -60q0 -25 11 -45.5z" />
    <glyph glyph-name="quotesingle" unicode="'" horiz-adv-x="218" 
d="M251 710l-57 -266h-95l56 266h96z" />
    <glyph glyph-name="parenleft" unicode="(" horiz-adv-x="295" 
d="M76.5 32.5q-21.5 103.5 -21.5 205.5q0 151 53.5 296t163.5 272h103q-226 -258 -226 -556q0 -215 65 -407h-86q-30 86 -51.5 189.5z" />
    <glyph glyph-name="parenright" unicode=")" horiz-adv-x="296" 
d="M246.5 617.5q21.5 -103.5 21.5 -205.5q0 -151 -53.5 -296t-163.5 -272h-103q226 258 226 556q0 215 -65 407h86q30 -86 51.5 -189.5z" />
    <glyph glyph-name="asterisk" unicode="*" horiz-adv-x="472" 
d="M225 497l-132 44l24 77l133 -43v135h80v-135l132 43l25 -77l-132 -43l82 -112l-64 -46l-83 111l-82 -111l-65 46z" />
    <glyph glyph-name="plus" unicode="+" horiz-adv-x="505" 
d="M210 338v162h97v-162h163v-97h-163v-162h-97v162h-163v97h163z" />
    <glyph glyph-name="comma" unicode="," horiz-adv-x="267" 
d="M-41 -147l97 152q-39 30 -39 74q0 36 25 61.5t61 25.5t61.5 -26t25.5 -61q0 -32 -25 -61l-137 -165h-69z" />
    <glyph glyph-name="hyphen" unicode="-" horiz-adv-x="392" 
d="M346 334l-23 -108h-269l23 108h269z" />
    <glyph glyph-name="period" unicode="." horiz-adv-x="263" 
d="M40 17.5q-25 25.5 -25 61.5t25 61.5t61 25.5t61.5 -26t25.5 -61q0 -36 -25.5 -61.5t-61.5 -25.5t-61 25.5z" />
    <glyph glyph-name="slash" unicode="/" horiz-adv-x="389" 
d="M446 710l-386 -820h-101l386 820h101z" />
    <glyph glyph-name="zero" unicode="0" horiz-adv-x="623" 
d="M161.5 17.5q-51.5 27.5 -79.5 77.5t-28 115q0 34 7 68l38 181q56 263 284 263q68 0 119.5 -27.5t79.5 -77.5t28 -116q0 -35 -7 -67l-38 -182q-27 -126 -96.5 -194t-187.5 -68q-68 0 -119.5 27.5zM162 220q0 -57 34.5 -89.5t91.5 -32.5q67 0 108.5 39t59.5 121l41 191
q5 25 5 43q0 56 -34.5 89t-91.5 33q-134 0 -168 -160l-41 -191q-5 -25 -5 -43z" />
    <glyph glyph-name="one" unicode="1" horiz-adv-x="351" 
d="M82 601l107 109h169l-151 -710h-110l128 601h-143z" />
    <glyph glyph-name="two" unicode="2" horiz-adv-x="570" 
d="M62 178q39 50 85 81t122 70l32 16q81 44 118 83t37 92q0 42 -30 68t-76 26q-52 0 -91 -32t-46 -89h-111q7 72 43 124t92 78.5t123 26.5q55 0 103 -23.5t77 -67.5t29 -102q0 -66 -21 -112t-66 -83t-125 -79l-35 -19q-66 -34 -103.5 -61.5t-50.5 -66.5h322l-23 -108h-472
l12 56q16 72 55 122z" />
    <glyph glyph-name="three" unicode="3" horiz-adv-x="588" 
d="M165 16q-58 28 -92.5 81.5t-28.5 125.5h108q-2 -59 38.5 -92t97.5 -33q60 0 97.5 33.5t37.5 89.5q0 45 -30 72t-82 27h-73l21 94h53q59 0 98 29t39 80q0 41 -29.5 66t-75.5 25q-51 0 -93 -32t-51 -89h-111q8 73 46 124.5t95 78t121 26.5q56 0 104 -22.5t76.5 -64.5
t28.5 -97q0 -62 -31 -107.5t-85 -70.5q41 -21 64 -60t23 -86q0 -61 -28.5 -112.5t-83.5 -82.5t-133 -31q-63 0 -121 28z" />
    <glyph glyph-name="four" unicode="4" horiz-adv-x="625" 
d="M0 178l19 89l473 443h97l-91 -430h95l-21 -102h-96l-38 -178h-110l38 178h-366zM388 280l54 253l-271 -253h217z" />
    <glyph glyph-name="five" unicode="5" horiz-adv-x="571" 
d="M155 14q-55 24 -92.5 71.5t-44.5 113.5h113q15 -48 52.5 -74.5t89.5 -26.5q62 0 100 38.5t38 100.5q0 54 -31.5 89.5t-87.5 35.5q-83 0 -130 -72l-97 32l158 388h349l-23 -107h-256l-64 -159q42 20 94 20q56 0 101.5 -29.5t71.5 -79t26 -108.5q0 -73 -28 -131.5t-85 -92
t-141 -33.5q-58 0 -113 24z" />
    <glyph glyph-name="six" unicode="6" horiz-adv-x="572" 
d="M152 20q-56 30 -86.5 80.5t-30.5 110.5q0 70 27.5 122t87.5 112l271 265h148l-255 -252h1q57 0 106 -29t78 -80t29 -114q0 -66 -31 -122t-88 -89.5t-130 -33.5q-71 0 -127 30zM186 133q38 -37 92 -37q40 0 71 18.5t48.5 50.5t17.5 69q0 55 -37.5 91.5t-93.5 36.5
q-60 0 -98 -40t-38 -98q0 -54 38 -91z" />
    <glyph glyph-name="seven" unicode="7" horiz-adv-x="523" 
d="M103 603l22 107h480l-20 -94l-455 -616h-134l446 603h-339z" />
    <glyph glyph-name="eight" unicode="8" horiz-adv-x="585" 
d="M496 98.5q-34 -54.5 -91.5 -82.5t-128.5 -28q-75 0 -128.5 32t-81 81.5t-27.5 100.5q0 69 35.5 125.5t102.5 81.5q-24 24 -36 55t-12 64q0 61 30 105t80.5 66.5t110.5 22.5q62 0 107 -25.5t68 -66.5t24 -85q0 -51 -25.5 -93t-69.5 -67q39 -27 57.5 -69.5t18.5 -85.5
q0 -77 -34 -131.5zM183.5 128q32.5 -36 95.5 -36q61 0 100 38t39 97q0 28 -13 55t-41.5 45.5t-72.5 18.5q-63 0 -101.5 -38.5t-38.5 -97.5q0 -46 32.5 -82zM260 460q23 -28 73 -28q49 1 79 29t30 75q0 32 -23.5 59t-73.5 27q-48 -1 -78 -28t-30 -74q0 -32 23 -60z" />
    <glyph glyph-name="nine" unicode="9" horiz-adv-x="572" 
d="M192 283q-49 29 -78 80t-29 114q0 66 31 122t88 89.5t130 33.5q71 0 127 -30t86.5 -81t30.5 -111q0 -70 -27.5 -121.5t-87.5 -111.5l-273 -267h-148l257 254h-1q-57 0 -106 29zM235.5 385.5q37.5 -36.5 92.5 -36.5q40 0 71 18.5t48.5 50.5t17.5 69q0 55 -38 92t-93 37
q-39 0 -70.5 -18.5t-48.5 -50.5t-17 -69q0 -56 37.5 -92.5z" />
    <glyph glyph-name="colon" unicode=":" horiz-adv-x="290" 
d="M118 363.5q-25 25.5 -25 61.5t25 61.5t61 25.5t61.5 -26t25.5 -61q0 -36 -25.5 -61.5t-61.5 -25.5t-61 25.5zM45 140.5q25 25.5 61 25.5t61.5 -26t25.5 -61q0 -36 -25.5 -61.5t-61.5 -25.5t-61 25.5t-25 61.5t25 61.5z" />
    <glyph glyph-name="semicolon" unicode=";" horiz-adv-x="295" 
d="M122 363.5q-25 25.5 -25 61.5t25 61.5t61 25.5t61.5 -26t25.5 -61q0 -36 -25.5 -61.5t-61.5 -25.5t-61 25.5zM62 5q-39 30 -39 74q0 36 25 61.5t61 25.5t61.5 -26t25.5 -61q0 -32 -25 -61l-137 -165h-69z" />
    <glyph glyph-name="less" unicode="&#x3c;" horiz-adv-x="504" 
d="M432 37h-137l-253 253l253 253h137l-252 -253z" />
    <glyph glyph-name="equal" unicode="=" horiz-adv-x="601" 
d="M515 445v-97h-422v97h422zM93 231h422v-96h-422v96z" />
    <glyph glyph-name="greater" unicode="&#x3e;" horiz-adv-x="509" 
d="M85 37l252 253l-252 253h137l253 -253l-253 -253h-137z" />
    <glyph glyph-name="question" unicode="?" horiz-adv-x="526" 
d="M314 400q57 36 84.5 66.5t27.5 64.5q0 37 -26.5 60t-70.5 23q-50 0 -88.5 -29.5t-45.5 -82.5h-110q7 70 43 120t91 75t119 25q58 0 103 -23t70.5 -64.5t25.5 -93.5q0 -70 -40 -118.5t-108 -91.5q-33 -21 -55.5 -40.5t-32.5 -44.5h-115q19 88 128 154zM145 140.5
q25 25.5 61 25.5t61.5 -26t25.5 -61q0 -36 -25.5 -61.5t-61.5 -25.5t-61 25.5t-25 61.5t25 61.5z" />
    <glyph glyph-name="at" unicode="@" horiz-adv-x="812" 
d="M232.5 36q-79.5 46 -122 125t-42.5 176q0 111 53.5 199t143 137t192.5 49q96 0 174 -39t122.5 -111t44.5 -166q0 -83 -24.5 -138.5t-65.5 -82.5t-90 -27q-40 0 -66.5 16t-39.5 40q-20 -25 -54 -39.5t-72 -14.5q-68 0 -111.5 48t-43.5 124q0 60 27 110.5t73 79.5t101 29
q40 0 69.5 -19.5t40.5 -46.5l11 56h87l-49 -230q-4 -24 -4 -33q0 -46 42 -46q44 0 69 43.5t25 132.5q0 74 -35.5 129.5t-96 84.5t-135.5 29q-83 0 -154 -38.5t-114 -109.5t-43 -166q0 -81 33.5 -144t95 -98t143.5 -35q48 0 95 9.5t86 28.5v-77q-41 -15 -89 -23t-92 -8
q-105 0 -184.5 46zM318 337q0 -43 22.5 -70.5t60.5 -27.5q44 0 76 29t40 74q3 17 3 31q0 43 -22.5 70.5t-60.5 27.5q-44 0 -76 -29t-40 -74q-3 -16 -3 -31z" />
    <glyph glyph-name="A" unicode="A" horiz-adv-x="730" 
d="M509 710l160 -710h-113l-41 186h-317l-120 -186h-132l461 710h102zM492 290l-58 261l-169 -261h227z" />
    <glyph glyph-name="B" unicode="B" horiz-adv-x="633" 
d="M496.5 685.5q46.5 -24.5 71 -64.5t24.5 -85q0 -56 -26.5 -100.5t-74.5 -70.5q40 -19 63 -54.5t23 -86.5q0 -66 -32.5 -116.5t-96 -79t-153.5 -28.5h-265l151 710h204q65 0 111.5 -24.5zM309 108q71 0 111.5 31.5t40.5 81.5q0 39 -28 64.5t-80 25.5h-141l-43 -203h140z
M342 411q61 0 97 30.5t36 77.5q0 36 -25.5 60t-71.5 24h-104l-40 -192h108z" />
    <glyph glyph-name="C" unicode="C" horiz-adv-x="794" 
d="M220.5 32q-76.5 44 -118 119.5t-41.5 167.5q0 111 49.5 203t141.5 146t214 54q84 0 152.5 -32.5t112 -89.5t58.5 -128h-126q-21 63 -75 100t-132 37q-77 0 -140 -37t-99.5 -101t-36.5 -141q0 -103 60 -166t169 -63q76 0 136.5 36.5t95.5 100.5h126q-42 -114 -137 -182
t-232 -68q-101 0 -177.5 44z" />
    <glyph glyph-name="D" unicode="D" horiz-adv-x="724" 
d="M540 668.5q75 -41.5 116.5 -112t41.5 -155.5q0 -122 -53 -213t-148 -139.5t-220 -48.5h-247l151 710h186q98 0 173 -41.5zM289 109q80 0 146 35t105 98.5t39 143.5q0 97 -60 156t-166 59h-78l-105 -492h119z" />
    <glyph glyph-name="E" unicode="E" horiz-adv-x="562" 
d="M608 710l-24 -112h-310l-39 -182h250l-24 -112h-250l-41 -192h310l-23 -112h-427l151 710h427z" />
    <glyph glyph-name="F" unicode="F" horiz-adv-x="538" 
d="M602 710l-23 -112h-305l-39 -183h239l-23 -111h-240l-64 -304h-117l151 710h421z" />
    <glyph glyph-name="G" unicode="G" horiz-adv-x="821" 
d="M223.5 32q-77.5 44 -119.5 120t-42 169q0 110 48.5 201.5t140 145.5t215.5 54q119 0 202.5 -61t116.5 -161h-130q-28 52 -78.5 80.5t-120.5 28.5q-78 0 -141 -36.5t-98.5 -100t-35.5 -140.5q0 -104 61 -167.5t171 -63.5q98 0 164 55t88 149h-256l23 110h359q1 -7 1 -24
q0 -115 -43.5 -206.5t-131.5 -144t-214 -52.5q-102 0 -179.5 44z" />
    <glyph glyph-name="H" unicode="H" horiz-adv-x="761" 
d="M298 710l-63 -294h351l63 294h117l-151 -710h-117l65 305h-351l-65 -305h-117l151 710h117z" />
    <glyph glyph-name="I" unicode="I" horiz-adv-x="292" 
d="M298 710l-151 -710h-117l151 710h117z" />
    <glyph glyph-name="J" unicode="J" horiz-adv-x="529" 
d="M540 710l-112 -527q-21 -98 -75 -146.5t-148 -48.5q-55 0 -105.5 23.5t-80.5 70.5t-24 115h116q-3 -47 26.5 -73t68.5 -26q46 0 71.5 27t37.5 80l108 505h117z" />
    <glyph glyph-name="K" unicode="K" horiz-adv-x="678" 
d="M297 710l-65 -307l345 307h153l-393 -350l311 -360h-144l-287 333l-71 -333h-116l151 710h116z" />
    <glyph glyph-name="L" unicode="L" horiz-adv-x="542" 
d="M298 710l-128 -598h325l-23 -112h-442l151 710h117z" />
    <glyph glyph-name="M" unicode="M" horiz-adv-x="886" 
d="M288 710l168 -350l328 350h107l-151 -710h-118l105 491l-302 -322l-169 350l-109 -519h-117l151 710h107z" />
    <glyph glyph-name="N" unicode="N" horiz-adv-x="794" 
d="M258 524l-111 -524h-117l151 710h101l289 -524l111 524h117l-151 -710h-101z" />
    <glyph glyph-name="O" unicode="O" horiz-adv-x="828" 
d="M219 32q-76 44 -116.5 119.5t-40.5 167.5q0 111 49 203t141 146t215 54q101 0 176.5 -44t116.5 -119.5t41 -167.5q0 -111 -49 -203t-141 -146t-215 -54q-101 0 -177 44zM239.5 164q59.5 -63 168.5 -63q77 0 140 37t99.5 101t36.5 141q0 103 -60 166t-169 63
q-77 0 -140 -37t-99 -101t-36 -141q0 -103 59.5 -166z" />
    <glyph glyph-name="P" unicode="P" horiz-adv-x="592" 
d="M500 682q51 -28 78.5 -75t27.5 -103q0 -72 -32.5 -130.5t-99.5 -93t-164 -34.5h-111l-52 -246h-117l151 710h199q69 0 120 -28zM331 355q46 0 82.5 18.5t56.5 50.5t20 71q0 45 -29 75t-88 30h-99l-52 -245h109z" />
    <glyph glyph-name="Q" unicode="Q" horiz-adv-x="849" 
d="M219 32q-76 44 -116.5 119.5t-40.5 167.5q0 111 49 203t141 146t215 54q101 0 176.5 -44t116.5 -119.5t41 -167.5q0 -78 -25.5 -148.5t-72.5 -125.5l111 -117h-147l-46 48q-96 -60 -225 -60q-101 0 -177 44zM239.5 164q59.5 -63 168.5 -63q71 0 132 33l-97 103l76 74
l103 -109q30 37 46 82.5t16 95.5q0 103 -60 166t-169 63q-77 0 -140 -37t-99 -101t-36 -141q0 -103 59.5 -166z" />
    <glyph glyph-name="R" unicode="R" horiz-adv-x="641" 
d="M518 686q46 -24 71 -64.5t25 -89.5q0 -89 -53.5 -147.5t-159.5 -71.5l203 -313h-132l-203 312h-56l-66 -312h-117l151 710h229q62 0 108 -24zM362 414q63 0 97.5 27.5t35.5 75.5q0 38 -25.5 61.5t-71.5 23.5h-123l-40 -188h127z" />
    <glyph glyph-name="S" unicode="S" horiz-adv-x="572" 
d="M137 19q-58 31 -87.5 81t-30.5 104h117q7 -48 47.5 -77.5t96.5 -29.5q48 0 81 27t33 65q0 40 -23.5 65.5t-75.5 48.5l-41 18q-65 29 -105 77t-40 117q0 59 29.5 106.5t82.5 74t121 26.5q72 0 123 -30t77 -76.5t28 -96.5h-117q-7 44 -39.5 69t-78.5 25q-47 0 -77.5 -24.5
t-30.5 -60.5t20 -58t61 -41l51 -24q76 -36 115 -87t39 -122q0 -60 -28.5 -107.5t-82.5 -74t-126 -26.5q-81 0 -139 31z" />
    <glyph glyph-name="T" unicode="T" horiz-adv-x="562" 
d="M85 598l23 112h530l-23 -112h-207l-128 -598h-117l128 598h-206z" />
    <glyph glyph-name="U" unicode="U" horiz-adv-x="723" 
d="M537 59.5q-77 -71.5 -215 -71.5q-73 0 -129.5 28.5t-88 81t-31.5 120.5q0 30 8 68l90 424h117l-91 -430q-6 -28 -6 -52q0 -63 38 -95t103 -32q76 0 125.5 44t68.5 130l92 435h118l-91 -432q-31 -147 -108 -218.5z" />
    <glyph glyph-name="V" unicode="V" horiz-adv-x="709" 
d="M214 710l110 -538l338 538h135l-449 -710h-102l-148 710h116z" />
    <glyph glyph-name="W" unicode="W" horiz-adv-x="956" 
d="M254 0h-108l-32 710h120l20 -508l318 520l89 -524l237 512h129l-334 -710h-108l-70 427z" />
    <glyph glyph-name="X" unicode="X" horiz-adv-x="677" 
d="M87 0h-143l346 365l-190 345h126l145 -262l247 262h143l-337 -360l198 -350h-127l-149 270z" />
    <glyph glyph-name="Y" unicode="Y" horiz-adv-x="680" 
d="M105 710h124l130 -299l258 299h145l-358 -411l-63 -299h-117l63 300z" />
    <glyph glyph-name="Z" unicode="Z" horiz-adv-x="597" 
d="M457 598h-344l23 112h513l-17 -79l-463 -519h361l-24 -112h-529l17 79z" />
    <glyph glyph-name="bracketleft" unicode="[" horiz-adv-x="314" 
d="M402 800l-18 -85h-107l-168 -790h107l-18 -85h-202l204 960h202z" />
    <glyph glyph-name="backslash" unicode="\" horiz-adv-x="690" 
d="M110 710h101l386 -820h-101z" />
    <glyph glyph-name="bracketright" unicode="]" horiz-adv-x="314" 
d="M-63 -160l18 85h107l168 790h-107l18 85h202l-204 -960h-202z" />
    <glyph glyph-name="asciicircum" unicode="^" horiz-adv-x="382" 
d="M272 710l117 -210h-76l-67 120l-67 -120h-76l117 210h52z" />
    <glyph glyph-name="underscore" unicode="_" horiz-adv-x="521" 
d="M422 0l-18 -88h-428l18 88h428z" />
    <glyph glyph-name="grave" unicode="`" 
d="M68 750h120l19 -190h-73z" />
    <glyph glyph-name="a" unicode="a" horiz-adv-x="627" 
d="M140 19.5q-47 28.5 -74 79.5t-27 117q0 82 35 149.5t97.5 106t141.5 38.5q60 0 104.5 -27.5t60.5 -62.5l17 80h110l-106 -500h-110l12 54q-23 -27 -65 -45t-91 -18q-58 0 -105 28.5zM184.5 124q34.5 -36 92.5 -36q48 0 87.5 24t62.5 66t23 95q0 65 -34.5 101t-93.5 36
q-47 0 -86.5 -24t-62.5 -66t-23 -95q0 -65 34.5 -101z" />
    <glyph glyph-name="b" unicode="b" horiz-adv-x="626" 
d="M209.5 17.5q-44.5 27.5 -61.5 62.5l-16 -80h-110l159 750h110l-65 -304q22 27 64 45t92 18q58 0 105 -28.5t74 -79.5t27 -117q0 -82 -35 -149.5t-97.5 -106t-141.5 -38.5q-60 0 -104.5 27.5zM211.5 126q34.5 -36 92.5 -36q48 0 87.5 24t62.5 66t23 95q0 65 -34.5 101
t-93.5 36q-47 0 -86.5 -24t-62.5 -66t-23 -95q0 -65 34.5 -101z" />
    <glyph glyph-name="c" unicode="c" horiz-adv-x="589" 
d="M150.5 23q-54.5 33 -82.5 88t-28 119q0 77 35 141t99 101.5t148 37.5q99 0 161 -54.5t77 -138.5h-116q-14 43 -48 68t-82 25q-46 0 -83 -23t-58 -62t-21 -86q0 -69 37 -109.5t101 -40.5q48 0 86 26t58 68h116q-26 -88 -95 -140.5t-174 -52.5q-76 0 -130.5 33z" />
    <glyph glyph-name="d" unicode="d" horiz-adv-x="627" 
d="M140 18q-47 28 -74 79t-27 117q0 82 35 149.5t97.5 106.5t141.5 39q60 0 104.5 -27.5t60.5 -62.5l70 331h110l-159 -750h-110l12 53q-23 -28 -64.5 -45.5t-91.5 -17.5q-58 0 -105 28zM184 123q34 -36 93 -36q48 0 87.5 23.5t62.5 65.5t23 95q0 65 -34.5 101t-93.5 36
q-47 0 -86.5 -23.5t-62.5 -65.5t-23 -95q0 -65 34 -101z" />
    <glyph glyph-name="e" unicode="e" horiz-adv-x="588" 
d="M151 21q-53 31 -82.5 84.5t-29.5 120.5q0 80 35 144.5t99 102t147 37.5q65 0 117.5 -27.5t82.5 -79t30 -121.5q0 -33 -5 -59h-401q1 -60 39 -98t96 -38q43 0 78.5 17.5t55.5 52.5h117q-32 -80 -97.5 -123.5t-160.5 -43.5q-68 0 -121 31zM436 301q-3 56 -38 86.5t-89 30.5
q-52 0 -95.5 -30.5t-58.5 -86.5h281z" />
    <glyph glyph-name="f" unicode="f" horiz-adv-x="385" 
d="M48 402l21 98h104l17 82q18 85 72.5 129.5t136.5 44.5q45 0 79 -12l-21 -98q-23 10 -57 10q-85 0 -103 -89l-14 -67h143l-21 -98h-143l-85 -402h-110l85 402h-104z" />
    <glyph glyph-name="g" unicode="g" horiz-adv-x="627" 
d="M115.5 -195q-51.5 24 -81.5 65t-35 91h107q9 -41 45 -63.5t87 -22.5q58 0 100.5 37.5t54.5 105.5l9 49q-23 -28 -64.5 -46t-91.5 -18q-58 0 -105 28t-74 78t-27 114q0 81 35.5 146.5t98 103t140.5 37.5q60 0 104.5 -27.5t60.5 -62.5l17 80h110l-104 -488
q-24 -116 -93 -173.5t-177 -57.5q-65 0 -116.5 24zM186 135.5q35 -34.5 92 -34.5q47 0 86.5 22.5t63 63.5t23.5 92q0 62 -35 96.5t-93 34.5q-46 0 -85.5 -23t-63 -63.5t-23.5 -91.5q0 -62 35 -96.5z" />
    <glyph glyph-name="h" unicode="h" horiz-adv-x="593" 
d="M291 750l-66 -309q28 34 69 51.5t87 17.5q74 0 117 -48.5t43 -122.5q0 -26 -6 -55l-61 -284h-110l59 278q5 25 5 41q0 43 -23.5 67t-64.5 24q-56 0 -96.5 -39t-57.5 -115l-54 -256h-110l159 750h110z" />
    <glyph glyph-name="i" unicode="i" horiz-adv-x="259" 
d="M170.5 630.5q-21.5 21.5 -21.5 52.5q0 30 21.5 51.5t52.5 21.5q30 0 51.5 -21.5t21.5 -51.5q0 -31 -21.5 -52.5t-51.5 -21.5q-31 0 -52.5 21.5zM128 500h110l-106 -500h-110z" />
    <glyph glyph-name="j" unicode="j" horiz-adv-x="266" 
d="M176.5 630.5q-21.5 21.5 -21.5 52.5q0 30 21.5 51.5t52.5 21.5q30 0 51.5 -21.5t21.5 -51.5q0 -31 -21.5 -52.5t-51.5 -21.5q-31 0 -52.5 21.5zM-102 -117q16 -4 34 -4q36 0 57.5 19t30.5 61l115 541h110l-119 -560q-18 -84 -64 -121.5t-127 -37.5q-36 0 -57 6z" />
    <glyph glyph-name="k" unicode="k" horiz-adv-x="545" 
d="M291 750l-93 -440l223 190h146l-273 -232l218 -268h-131l-198 242l-51 -242h-110l159 750h110z" />
    <glyph glyph-name="l" unicode="l" horiz-adv-x="259" 
d="M291 750l-159 -750h-110l159 750h110z" />
    <glyph glyph-name="m" unicode="m" horiz-adv-x="888" 
d="M238 500l-13 -59q25 33 64 51t83 18q46 0 79 -22.5t50 -61.5q26 37 71 60.5t98 23.5q79 0 122 -49t43 -124q0 -26 -6 -55l-60 -282h-110l59 278q5 27 5 44q0 41 -19 64.5t-55 23.5q-51 0 -89 -37.5t-53 -106.5l-57 -266h-110l59 278q5 27 5 45q0 40 -19 63.5t-54 23.5
q-52 0 -90.5 -39t-54.5 -115l-54 -256h-110l106 500h110z" />
    <glyph glyph-name="n" unicode="n" horiz-adv-x="593" 
d="M238 500l-13 -59q28 34 69 51.5t87 17.5q74 0 117 -48.5t43 -122.5q0 -26 -6 -55l-61 -284h-110l59 278q5 25 5 41q0 43 -23.5 67t-64.5 24q-56 0 -97 -39t-57 -115l-54 -256h-110l106 500h110z" />
    <glyph glyph-name="o" unicode="o" horiz-adv-x="603" 
d="M150.5 22.5q-54.5 33.5 -82.5 88.5t-28 119q0 77 35 141t99 101.5t148 37.5q76 0 130.5 -33t82.5 -87.5t28 -119.5q0 -77 -35 -141.5t-99 -102t-148 -37.5q-76 0 -130.5 33.5zM189.5 131.5q37.5 -39.5 100.5 -39.5q46 0 83 22.5t58 61t21 85.5q0 68 -38 107.5t-101 39.5
q-46 0 -82.5 -22.5t-57.5 -61t-21 -85.5q0 -68 37.5 -107.5z" />
    <glyph glyph-name="p" unicode="p" horiz-adv-x="626" 
d="M237 500l-11 -54q22 27 64 45t92 18q58 0 105 -28.5t74 -79.5t27 -117q0 -82 -35 -149.5t-97.5 -106t-141.5 -38.5q-60 0 -104.5 27.5t-61.5 62.5l-59 -281h-110l149 701h109zM211.5 126q34.5 -36 92.5 -36q48 0 87.5 24t62.5 66t23 95q0 65 -34.5 101t-93.5 36
q-47 0 -86.5 -24t-62.5 -66t-23 -95q0 -65 34.5 -101z" />
    <glyph glyph-name="q" unicode="q" horiz-adv-x="627" 
d="M336.5 7.5q-41.5 -17.5 -91.5 -17.5q-58 0 -105 28t-74 79t-27 117q0 82 35 149.5t97.5 106.5t141.5 39q60 0 104.5 -27.5t60.5 -62.5l17 81h110l-150 -709h-110l56 262q-23 -28 -64.5 -45.5zM184 123q34 -36 93 -36q48 0 87.5 23.5t62.5 65.5t23 95q0 65 -34.5 101
t-93.5 36q-47 0 -86.5 -23.5t-62.5 -65.5t-23 -95q0 -65 34 -101z" />
    <glyph glyph-name="r" unicode="r" horiz-adv-x="382" 
d="M238 500l-18 -81q22 42 63 64t88 22q22 0 41 -4l-23 -113q-27 9 -52 9q-51 0 -94.5 -40.5t-59.5 -112.5l-51 -244h-110l106 500h110z" />
    <glyph glyph-name="s" unicode="s" horiz-adv-x="475" 
d="M112 10.5q-47 20.5 -73.5 57t-26.5 84.5h113q2 -36 30.5 -55t68.5 -19q34 0 57 16t23 39t-15.5 39.5t-47.5 27.5l-59 21q-50 18 -79.5 53.5t-29.5 86.5q0 70 50.5 109.5t137.5 39.5q50 0 92 -20t66.5 -54.5t26.5 -75.5h-110q-4 30 -26.5 46t-53.5 16q-30 0 -50.5 -14.5
t-20.5 -37.5t13 -37t39 -24l53 -19q60 -22 92.5 -57t32.5 -90q0 -70 -53 -111.5t-143 -41.5q-60 0 -107 20.5z" />
    <glyph glyph-name="t" unicode="t" horiz-adv-x="397" 
d="M139.5 33.5q-42.5 37.5 -42.5 105.5q0 24 6 52l45 211h-103l20 98h104l30 139h110l-30 -139h143l-21 -98h-143l-46 -219q-3 -15 -3 -28q0 -61 75 -61q29 0 53 7l-20 -98q-29 -8 -66 -8q-69 1 -111.5 38.5z" />
    <glyph glyph-name="u" unicode="u" horiz-adv-x="583" 
d="M96.5 39q-43.5 49 -43.5 124q0 26 6 53l61 284h110l-60 -283q-4 -19 -4 -38q0 -41 22 -64.5t61 -23.5q55 0 94 38.5t54 111.5l55 259h110l-106 -500h-110l12 59q-26 -34 -63.5 -51.5t-81.5 -17.5q-73 0 -116.5 49z" />
    <glyph glyph-name="v" unicode="v" horiz-adv-x="555" 
d="M165 500l81 -360l234 360h126l-333 -500h-97l-120 500h109z" />
    <glyph glyph-name="w" unicode="w" horiz-adv-x="779" 
d="M171 500l36 -346l190 346h85l39 -342l180 342h123l-274 -500h-104l-39 322l-180 -322h-104l-62 500h110z" />
    <glyph glyph-name="x" unicode="x" horiz-adv-x="540" 
d="M69 500h118l95 -176l169 176h135l-251 -261l141 -239h-120l-98 168l-170 -168h-137l253 249z" />
    <glyph glyph-name="y" unicode="y" horiz-adv-x="556" 
d="M57 500h111l80 -356l232 356h127l-472 -709h-123l159 238z" />
    <glyph glyph-name="z" unicode="z" horiz-adv-x="488" 
d="M326 400h-251l21 100h400l-18 -88l-319 -312h261l-21 -100h-412l18 87z" />
    <glyph glyph-name="braceleft" unicode="{" horiz-adv-x="325" 
d="M70 -130q-34 30 -34 85q0 21 4 40l48 226q3 14 3 24q0 20 -10.5 30.5t-34.5 10.5h-13l18 85h13q32 0 47.5 15t22.5 49l49 230q11 50 27.5 79t48 42.5t84.5 13.5h71l-18 -85h-48q-34 0 -49 -14.5t-24 -52.5l-48 -223q-10 -48 -28.5 -70.5t-51.5 -34.5q40 -18 40 -68
q0 -15 -5 -42l-47 -222q-2 -8 -2 -21q0 -42 47 -42h48l-18 -85h-48q-58 0 -92 30z" />
    <glyph glyph-name="bar" unicode="|" horiz-adv-x="316" 
d="M215 710v-820h-96v820h96z" />
    <glyph glyph-name="braceright" unicode="}" horiz-adv-x="326" 
d="M280 771q34 -30 34 -85q0 -21 -4 -40l-48 -226q-3 -13 -3 -24q0 -20 10.5 -30.5t34.5 -10.5h13l-18 -85h-13q-32 0 -47.5 -15t-22.5 -49l-49 -230q-11 -50 -27.5 -79t-48 -42.5t-84.5 -13.5h-71l18 85h48q34 0 49 14.5t24 52.5l48 223q10 48 28.5 70.5t51.5 34.5
q-40 18 -40 68q0 15 5 42l47 222q2 8 2 21q0 42 -47 42h-48l18 85h48q58 0 92 -30z" />
    <glyph glyph-name="asciitilde" unicode="~" horiz-adv-x="359" 
d="M158 349l60 -54l25 54h69l-55 -119h-46l-60 54l-25 -54h-69l55 119h46z" />
    <glyph glyph-name="uni00A0" unicode="&#xa0;" horiz-adv-x="235" 
 />
    <glyph glyph-name="exclamdown" unicode="&#xa1;" horiz-adv-x="266" 
d="M107 363.5q-25 25.5 -25 61.5t25 61.5t61 25.5t61.5 -26t25.5 -61q0 -36 -25.5 -61.5t-61.5 -25.5t-61 25.5zM38 68l63 196h68l-20 -196l-59 -277h-111z" />
    <glyph glyph-name="cent" unicode="&#xa2;" horiz-adv-x="604" 
d="M90 80.5q-47 65.5 -47 149.5q0 77 35 141t99 101.5t148 37.5h6l17 78h54l-18 -84q74 -15 120 -66t59 -121h-116q-10 32 -31.5 54t-52.5 32l-67 -314q46 1 83.5 26.5t57.5 67.5h116q-26 -88 -95 -140.5t-174 -52.5h-9l-17 -78h-54l18 84q-85 19 -132 84.5zM178 148
q23 -37 65 -51l67 313q-44 -2 -79.5 -25.5t-55.5 -61.5t-20 -84q0 -54 23 -91z" />
    <glyph glyph-name="sterling" unicode="&#xa3;" horiz-adv-x="568" 
d="M138.5 179q15.5 37 15.5 82q0 30 -5 72h-84l11 56h67q-4 46 -4 72q0 77 28.5 136t84 92t133.5 33q59 0 103.5 -28t68.5 -74t24 -98q0 -15 -1 -22h-110q1 6 1 17q0 41 -25 69t-71 28q-57 0 -91 -41t-34 -101q0 -40 5 -83h183l-12 -56h-165q3 -25 3 -51q0 -52 -11 -94
t-43 -80h289l-23 -108h-482l22 108h77q30 34 45.5 71z" />
    <glyph glyph-name="yen" unicode="&#xa5;" horiz-adv-x="701" 
d="M287 224l16 75h-211l12 55h176l-155 356h125l124 -300l250 300h141l-305 -356h175l-11 -55h-211l-16 -75h211l-12 -55h-210l-36 -169h-111l36 169h-210l11 55h211z" />
    <glyph glyph-name="brokenbar" unicode="&#xa6;" horiz-adv-x="316" 
d="M215 710v-355h-96v355h96zM119 245h96v-355h-96v355z" />
    <glyph glyph-name="section" unicode="&#xa7;" horiz-adv-x="457" 
d="M85 -203q-39 16 -65.5 50t-25.5 86h96q2 -36 24.5 -52t48.5 -16q36 0 57 23t21 64q0 29 -17 53.5t-49 48.5l-50 37q-36 27 -56.5 65t-20.5 83q1 62 36 108.5t95 72.5q-62 64 -62 141q0 45 21.5 81.5t60.5 58t89 21.5q62 0 107.5 -36t50.5 -116h-96q-1 38 -21 53t-45 15
q-33 0 -52 -20t-19 -51q0 -30 17 -55t50 -49l50 -36q38 -27 58.5 -64.5t20.5 -81.5q0 -59 -35.5 -106.5t-96.5 -75.5q30 -29 45.5 -64t15.5 -74q0 -83 -47.5 -131.5t-129.5 -48.5q-37 0 -76 16zM198 159l4 -3q52 19 81 47.5t29 63.5q0 56 -53 93l-2 1q-54 -20 -83 -47
t-29 -64q0 -51 53 -91z" />
    <glyph glyph-name="dieresis" unicode="&#xa8;" 
d="M-23 606.5q-20 19.5 -20 46.5q0 28 20 47.5t48 19.5q26 0 45.5 -19.5t19.5 -47.5q0 -27 -19.5 -46.5t-45.5 -19.5q-28 0 -48 19.5zM206.5 700.5q19.5 19.5 47.5 19.5q27 0 46.5 -19.5t19.5 -47.5q0 -27 -19.5 -46.5t-46.5 -19.5q-28 0 -47.5 19.5t-19.5 46.5
q0 28 19.5 47.5z" />
    <glyph glyph-name="copyright" unicode="&#xa9;" horiz-adv-x="830" 
d="M251 37.5q-84 49.5 -133.5 134t-49.5 183.5t49.5 183.5t133.5 134t183 49.5t184 -49.5t134.5 -134t49.5 -183.5t-49.5 -183.5t-134.5 -134t-184 -49.5t-183 49.5zM184 209.5q39 -66.5 105.5 -105.5t144.5 -39q79 0 145.5 39t105.5 105.5t39 145.5t-39 145.5t-105.5 105.5
t-145.5 39q-78 0 -144.5 -39t-105.5 -105.5t-39 -145.5t39 -145.5zM269 452.5q25 44.5 70 70t100 25.5q63 0 114 -37.5t66 -96.5h-83q-12 27 -39 43t-58 16q-52 0 -85 -34t-33 -84t33 -84t85 -34q31 0 58 16t39 43h83q-15 -59 -65.5 -96t-114.5 -37q-55 0 -100 25.5
t-70 69.5t-25 97t25 97.5z" />
    <glyph glyph-name="ordfeminine" unicode="&#xaa;" horiz-adv-x="412" 
d="M132 443q-33 38 -33 98q0 48 21.5 88t58.5 63.5t81 23.5q33 0 57.5 -15t33.5 -32l9 41h83l-64 -300h-83l6 29q-12 -14 -34.5 -24t-50.5 -10q-52 0 -85 38zM198.5 495.5q16.5 -18.5 47.5 -18.5q37 0 61.5 27t24.5 68q0 32 -16.5 50.5t-47.5 18.5q-37 0 -61.5 -27
t-24.5 -68q0 -32 16.5 -50.5z" />
    <glyph glyph-name="guillemotleft" unicode="&#xab;" horiz-adv-x="502" 
d="M505 467l-166 -231l72 -203h-89l-101 217l187 217h97zM221 467h97l-166 -231l72 -203h-89l-101 217z" />
    <glyph glyph-name="uni00AD" unicode="&#xad;" horiz-adv-x="392" 
d="M346 334l-23 -108h-269l23 108h269z" />
    <glyph glyph-name="registered" unicode="&#xae;" horiz-adv-x="830" 
d="M251 37.5q-84 49.5 -133.5 134t-49.5 183.5t49.5 183.5t133.5 134t183 49.5t184 -49.5t134.5 -134t49.5 -183.5t-49.5 -183.5t-134.5 -134t-184 -49.5t-183 49.5zM184 209.5q39 -66.5 105.5 -105.5t144.5 -39q79 0 145.5 39t105.5 105.5t39 145.5t-39 145.5t-105.5 105.5
t-145.5 39q-78 0 -144.5 -39t-105.5 -105.5t-39 -145.5t39 -145.5zM313 541h143q52 0 83.5 -31.5t31.5 -78.5q0 -72 -77 -97l134 -165h-93l-126 156h-19v-156h-77v372zM447 391q21 0 34 10.5t13 29.5q0 18 -13 28.5t-34 10.5h-57v-79h57z" />
    <glyph glyph-name="macron" unicode="&#xaf;" 
d="M317 710l-18 -82h-331l17 82h332z" />
    <glyph glyph-name="degree" unicode="&#xb0;" horiz-adv-x="360" 
d="M172.5 451q-32.5 19 -51.5 51.5t-19 70.5t19 70.5t51.5 51.5t70.5 19t70.5 -19t51.5 -51.5t19 -70.5t-19 -70.5t-51.5 -51.5t-70.5 -19t-70.5 19zM196 527q19 -19 47 -19q26 0 45 19t19 46q0 26 -19 45.5t-45 19.5q-27 0 -46.5 -19t-19.5 -46t19 -46z" />
    <glyph glyph-name="uni00B2" unicode="&#xb2;" horiz-adv-x="356" 
d="M108 530.5q26 31.5 55 49.5t84 46q45 25 66.5 45t21.5 48q0 22 -14.5 35t-39.5 13q-28 0 -47.5 -16.5t-23.5 -43.5h-83q7 67 52.5 104.5t109.5 37.5q53 0 91.5 -33.5t38.5 -88.5q0 -59 -28.5 -94.5t-96.5 -71.5l-18 -9q-34 -18 -52.5 -31t-25.5 -30h175l-17 -81h-293
l9 43q10 46 36 77.5z" />
    <glyph glyph-name="uni00B3" unicode="&#xb3;" horiz-adv-x="365" 
d="M169 419.5q-36 16.5 -57 50t-18 80.5h80q0 -32 21 -48.5t51 -16.5q32 0 50.5 16.5t18.5 44.5q0 23 -15.5 37.5t-42.5 14.5h-43l14 67h32q33 0 52 15.5t19 42.5q-1 20 -16 32t-38 12q-27 0 -49 -16t-26 -44h-83q6 68 54 105t110 37q56 0 93 -32.5t37 -82.5
q0 -39 -17.5 -66.5t-50.5 -41.5q23 -12 36.5 -35.5t13.5 -51.5q0 -36 -17.5 -67t-51.5 -50t-82 -19q-39 0 -75 16.5z" />
    <glyph glyph-name="acute" unicode="&#xb4;" 
d="M281 750l-199 -190h-87l146 190h140z" />
    <glyph glyph-name="paragraph" unicode="&#xb6;" horiz-adv-x="653" 
d="M170.5 295q-41.5 29 -66.5 77t-25 107q0 56 33 109.5t96 87.5t149 34h292l-190 -894h-97l169 796h-99l-169 -796h-96l94 444q-49 6 -90.5 35z" />
    <glyph glyph-name="periodcentered" unicode="&#xb7;" horiz-adv-x="278" 
d="M80 214.5q-25 25.5 -25 61.5t25 61.5t61 25.5t61.5 -26t25.5 -61q0 -36 -25.5 -61.5t-61.5 -25.5t-61 25.5z" />
    <glyph glyph-name="cedilla" unicode="&#xb8;" 
d="M-106.5 -159q21.5 -4 38.5 -4q30 0 50.5 10t20.5 30q0 13 -10.5 20t-29.5 7q-24 0 -45 -10l-30 20l69 89h62l-42 -53q21 6 40 6q32 0 51 -18.5t19 -48.5q0 -51 -40.5 -79.5t-107.5 -28.5q-24 0 -50 4t-45 11l12 57q16 -8 37.5 -12z" />
    <glyph glyph-name="uni00B9" unicode="&#xb9;" horiz-adv-x="233" 
d="M111 760l78 82h114l-92 -432h-83l75 350h-92z" />
    <glyph glyph-name="ordmasculine" unicode="&#xba;" horiz-adv-x="391" 
d="M164.5 423q-32.5 20 -49 52.5t-16.5 70.5q0 47 21.5 86t60.5 61.5t89 22.5q68 0 106 -42t38 -101q0 -47 -21.5 -86t-60.5 -61.5t-89 -22.5q-46 0 -78.5 20zM200 500q18 -20 50 -20q34 0 57 25t23 62q0 33 -18 52.5t-49 19.5q-35 0 -58 -25t-23 -61q0 -33 18 -53z" />
    <glyph glyph-name="guillemotright" unicode="&#xbb;" horiz-adv-x="504" 
d="M181 34l166 231l-72 203h89l101 -217l-187 -217h-97zM160 265l-72 203h89l101 -217l-187 -217h-97z" />
    <glyph glyph-name="onequarter" unicode="&#xbc;" horiz-adv-x="827" 
d="M83 628l78 82h114l-92 -432h-83l75 350h-92zM672 710h105l-651 -710h-105zM432 166l280 266h74l-55 -257h57l-16 -76h-57l-21 -99h-82l21 99h-215zM649 175l26 125l-132 -125h106z" />
    <glyph glyph-name="onehalf" unicode="&#xbd;" horiz-adv-x="834" 
d="M83 628l78 82h114l-92 -432h-83l75 350h-92zM672 710h105l-651 -710h-105zM463 43q10 46 36 77.5t55 49.5t84 46q45 25 66.5 45t21.5 48q0 22 -14.5 35t-39.5 13q-28 0 -47.5 -16.5t-23.5 -43.5h-83q7 67 52.5 104.5t109.5 37.5q53 0 91.5 -33.5t38.5 -88.5
q0 -59 -28.5 -94.5t-96.5 -71.5l-18 -9q-34 -18 -52.5 -31t-25.5 -30h175l-17 -81h-293z" />
    <glyph glyph-name="threequarters" unicode="&#xbe;" horiz-adv-x="912" 
d="M141 287.5q-36 16.5 -57 50t-18 80.5h80q0 -32 21 -48.5t51 -16.5q32 0 50.5 16.5t18.5 44.5q0 23 -15.5 37.5t-42.5 14.5h-43l14 67h32q33 0 52 15.5t19 42.5q-1 20 -16 32t-38 12q-27 0 -49 -16t-26 -44h-83q6 68 54 105t110 37q56 0 93 -32.5t37 -82.5
q0 -39 -17.5 -66.5t-50.5 -41.5q23 -12 36.5 -35.5t13.5 -51.5q0 -36 -17.5 -67t-51.5 -50t-82 -19q-39 0 -75 16.5zM756 710h105l-651 -710h-105zM517 166l280 266h74l-55 -257h57l-16 -76h-57l-21 -99h-82l21 99h-215zM734 175l26 125l-132 -125h106z" />
    <glyph glyph-name="questiondown" unicode="&#xbf;" horiz-adv-x="514" 
d="M244 362.5q-25 25.5 -25 61.5t25 61.5t61 25.5t61.5 -26t25.5 -61q0 -36 -25.5 -61.5t-61.5 -25.5t-61 25.5zM18 80q40 48 108 91q34 22 56 41.5t32 44.5h115q-19 -88 -128 -154q-57 -36 -84.5 -66.5t-27.5 -65.5q0 -37 26.5 -59.5t70.5 -22.5q50 0 88.5 29.5t45.5 82.5
h110q-7 -71 -43 -120.5t-91 -75t-119 -25.5q-58 0 -103 23t-70.5 64.5t-25.5 94.5q0 70 40 118z" />
    <glyph glyph-name="Agrave" unicode="&#xc0;" horiz-adv-x="730" 
d="M509 710l160 -710h-113l-41 186h-317l-120 -186h-132l461 710h102zM492 290l-58 261l-169 -261h227zM512 772h-78l-94 146h118z" />
    <glyph glyph-name="Aacute" unicode="&#xc1;" horiz-adv-x="730" 
d="M509 710l160 -710h-113l-41 186h-317l-120 -186h-132l461 710h102zM492 290l-58 261l-169 -261h227zM547 918h118l-158 -146h-79z" />
    <glyph glyph-name="Acircumflex" unicode="&#xc2;" horiz-adv-x="730" 
d="M509 710l160 -710h-113l-41 186h-317l-120 -186h-132l461 710h102zM492 290l-58 261l-169 -261h227zM559 913l74 -139h-88l-53 81l-87 -81h-87l134 139h107z" />
    <glyph glyph-name="Atilde" unicode="&#xc3;" horiz-adv-x="730" 
d="M509 710l160 -710h-113l-41 186h-317l-120 -186h-132l461 710h102zM492 290l-58 261l-169 -261h227zM615 809.5q-32 -27.5 -76 -27.5q-18 0 -32.5 5.5t-29.5 16.5l-12 9q-19 14 -34 14t-24 -9.5t-14 -33.5h-72l3 15q12 54 44.5 81.5t76.5 27.5q32 0 63 -22l12 -9
q10 -7 17 -10.5t16 -3.5q15 0 24 9.5t14 33.5h71l-3 -15q-12 -54 -44 -81.5z" />
    <glyph glyph-name="Adieresis" unicode="&#xc4;" horiz-adv-x="730" 
d="M325 798.5q-20 19.5 -20 46.5q0 28 20 47.5t48 19.5q26 0 45.5 -19.5t19.5 -47.5q0 -27 -19.5 -46.5t-45.5 -19.5q-28 0 -48 19.5zM407 710h102l160 -710h-113l-41 186h-317l-120 -186h-132zM492 290l-58 261l-169 -261h227zM554.5 892.5q19.5 19.5 47.5 19.5
q27 0 46.5 -19.5t19.5 -47.5q0 -27 -19.5 -46.5t-46.5 -19.5q-28 0 -47.5 19.5t-19.5 46.5q0 28 19.5 47.5z" />
    <glyph glyph-name="Aring" unicode="&#xc5;" horiz-adv-x="730" 
d="M406.5 788.5q-35.5 35.5 -35.5 84.5t35.5 84.5t85.5 35.5q33 0 61 -16t44.5 -44t16.5 -60t-16.5 -60t-44.5 -44t-61 -16q-50 0 -85.5 35.5zM407 710h102l160 -710h-113l-41 186h-317l-120 -186h-132zM492 290l-58 261l-169 -261h227zM446 827.5q19 -18.5 46 -18.5
t46 18.5t19 45.5q0 26 -19 45.5t-46 19.5t-46 -19.5t-19 -45.5q0 -27 19 -45.5z" />
    <glyph glyph-name="AE" unicode="&#xc6;" horiz-adv-x="955" 
d="M1001 710l-24 -112h-310l-39 -182h250l-24 -112h-250l-41 -192h310l-23 -112h-427l40 186h-255l-154 -186h-135l589 710h493zM485 290l65 308h-1l-255 -308h191z" />
    <glyph glyph-name="Ccedilla" unicode="&#xc7;" horiz-adv-x="794" 
d="M319 -163q30 0 51.5 10.5t21.5 30.5q0 26 -40 26q-24 0 -45 -10l-30 20l62 78q-85 13 -148 59t-96.5 115.5t-33.5 152.5q0 111 49.5 203t141.5 146t214 54q84 0 152.5 -32.5t112 -89.5t58.5 -128h-126q-21 63 -75 100t-132 37q-77 0 -140 -37t-99.5 -101t-36.5 -141
q0 -103 60 -166t169 -63q76 0 136.5 36.5t95.5 100.5h126q-42 -114 -137 -182t-232 -68h-2l-30 -37q18 5 41 5q32 0 50.5 -18.5t18.5 -46.5q0 -51 -43 -80.5t-108 -29.5q-57 0 -92 15l12 56q32 -15 74 -15z" />
    <glyph glyph-name="Egrave" unicode="&#xc8;" horiz-adv-x="562" 
d="M608 710l-24 -112h-310l-39 -182h250l-24 -112h-250l-41 -192h310l-23 -112h-427l151 710h427zM428 772h-78l-94 146h118z" />
    <glyph glyph-name="Eacute" unicode="&#xc9;" horiz-adv-x="562" 
d="M608 710l-24 -112h-310l-39 -182h250l-24 -112h-250l-41 -192h310l-23 -112h-427l151 710h427zM463 918h118l-158 -146h-79z" />
    <glyph glyph-name="Ecircumflex" unicode="&#xca;" horiz-adv-x="562" 
d="M608 710l-24 -112h-310l-39 -182h250l-24 -112h-250l-41 -192h310l-23 -112h-427l151 710h427zM475 913l74 -139h-88l-53 81l-87 -81h-87l134 139h107z" />
    <glyph glyph-name="Edieresis" unicode="&#xcb;" horiz-adv-x="562" 
d="M259 798.5q-20 19.5 -20 46.5q0 28 20 47.5t48 19.5q26 0 45.5 -19.5t19.5 -47.5q0 -27 -19.5 -46.5t-45.5 -19.5q-28 0 -48 19.5zM181 710h427l-24 -112h-310l-39 -182h250l-24 -112h-250l-41 -192h310l-23 -112h-427zM488.5 892.5q19.5 19.5 47.5 19.5q27 0 46.5 -19.5
t19.5 -47.5q0 -27 -19.5 -46.5t-46.5 -19.5q-28 0 -47.5 19.5t-19.5 46.5q0 28 19.5 47.5z" />
    <glyph glyph-name="Igrave" unicode="&#xcc;" horiz-adv-x="292" 
d="M298 710l-151 -710h-117l151 710h117zM293 772h-78l-94 146h118z" />
    <glyph glyph-name="Iacute" unicode="&#xcd;" horiz-adv-x="292" 
d="M298 710l-151 -710h-117l151 710h117zM328 918h118l-158 -146h-79z" />
    <glyph glyph-name="Icircumflex" unicode="&#xce;" horiz-adv-x="292" 
d="M285 938l153 -87l-23 -86l-141 80l-186 -80l16 94zM181 710h117l-151 -710h-117z" />
    <glyph glyph-name="Idieresis" unicode="&#xcf;" horiz-adv-x="292" 
d="M106 798.5q-20 19.5 -20 46.5q0 28 20 47.5t48 19.5q26 0 45.5 -19.5t19.5 -47.5q0 -27 -19.5 -46.5t-45.5 -19.5q-28 0 -48 19.5zM181 710h117l-151 -710h-117zM335.5 892.5q19.5 19.5 47.5 19.5q27 0 46.5 -19.5t19.5 -47.5q0 -27 -19.5 -46.5t-46.5 -19.5
q-28 0 -47.5 19.5t-19.5 46.5q0 28 19.5 47.5z" />
    <glyph glyph-name="Eth" unicode="&#xd0;" horiz-adv-x="735" 
d="M33 308l22 102h72l64 300h186q98 0 173 -41.5t116.5 -112t41.5 -155.5q0 -122 -53 -213t-148 -139.5t-220 -48.5h-247l66 308h-73zM299 109q80 0 146 35t105 98.5t39 143.5q0 97 -60 156t-166 59h-78l-41 -191h146l-22 -102h-146l-42 -199h119z" />
    <glyph glyph-name="Ntilde" unicode="&#xd1;" horiz-adv-x="794" 
d="M375.5 879.5q36.5 27.5 76.5 27.5q20 0 38 -6.5t44 -19.5q19 -10 30 -14.5t21 -4.5q36 0 53 45h72l-5 -22q-11 -47 -47.5 -74.5t-76.5 -27.5q-21 0 -40 7t-43 20q-3 1 -14.5 7t-20.5 8.5t-16 2.5q-35 0 -53 -46h-71l5 22q11 48 47.5 75.5zM181 710h101l289 -524l111 524
h117l-151 -710h-101l-289 524l-111 -524h-117z" />
    <glyph glyph-name="Ograve" unicode="&#xd2;" horiz-adv-x="828" 
d="M219 32q-76 44 -116.5 119.5t-40.5 167.5q0 111 49 203t141 146t215 54q101 0 176.5 -44t116.5 -119.5t41 -167.5q0 -111 -49 -203t-141 -146t-215 -54q-101 0 -177 44zM239.5 164q59.5 -63 168.5 -63q77 0 140 37t99.5 101t36.5 141q0 103 -60 166t-169 63
q-77 0 -140 -37t-99 -101t-36 -141q0 -103 59.5 -166zM516 772h-78l-94 146h118z" />
    <glyph glyph-name="Oacute" unicode="&#xd3;" horiz-adv-x="828" 
d="M219 32q-76 44 -116.5 119.5t-40.5 167.5q0 111 49 203t141 146t215 54q101 0 176.5 -44t116.5 -119.5t41 -167.5q0 -111 -49 -203t-141 -146t-215 -54q-101 0 -177 44zM239.5 164q59.5 -63 168.5 -63q77 0 140 37t99.5 101t36.5 141q0 103 -60 166t-169 63
q-77 0 -140 -37t-99 -101t-36 -141q0 -103 59.5 -166zM551 918h118l-158 -146h-79z" />
    <glyph glyph-name="Ocircumflex" unicode="&#xd4;" horiz-adv-x="828" 
d="M219 32q-76 44 -116.5 119.5t-40.5 167.5q0 111 49 203t141 146t215 54q101 0 176.5 -44t116.5 -119.5t41 -167.5q0 -111 -49 -203t-141 -146t-215 -54q-101 0 -177 44zM239.5 164q59.5 -63 168.5 -63q77 0 140 37t99.5 101t36.5 141q0 103 -60 166t-169 63
q-77 0 -140 -37t-99 -101t-36 -141q0 -103 59.5 -166zM563 913l74 -139h-88l-53 81l-87 -81h-87l134 139h107z" />
    <glyph glyph-name="Otilde" unicode="&#xd5;" horiz-adv-x="828" 
d="M219 32q-76 44 -116.5 119.5t-40.5 167.5q0 111 49 203t141 146t215 54q101 0 176.5 -44t116.5 -119.5t41 -167.5q0 -111 -49 -203t-141 -146t-215 -54q-101 0 -177 44zM239.5 164q59.5 -63 168.5 -63q77 0 140 37t99.5 101t36.5 141q0 103 -60 166t-169 63
q-77 0 -140 -37t-99 -101t-36 -141q0 -103 59.5 -166zM619 809.5q-32 -27.5 -76 -27.5q-18 0 -32.5 5.5t-29.5 16.5l-12 9q-19 14 -34 14t-24 -9.5t-14 -33.5h-72l3 15q12 54 44.5 81.5t76.5 27.5q32 0 63 -22l12 -9q10 -7 17 -10.5t16 -3.5q15 0 24 9.5t14 33.5h71l-3 -15
q-12 -54 -44 -81.5z" />
    <glyph glyph-name="Odieresis" unicode="&#xd6;" horiz-adv-x="828" 
d="M362 798.5q-20 19.5 -20 46.5q0 28 20 47.5t48 19.5q26 0 45.5 -19.5t19.5 -47.5q0 -27 -19.5 -46.5t-45.5 -19.5q-28 0 -48 19.5zM111 522q49 92 141 146t215 54q101 0 176.5 -44t116.5 -119.5t41 -167.5q0 -111 -49 -203t-141 -146t-215 -54q-101 0 -177 44
t-116.5 119.5t-40.5 167.5q0 111 49 203zM239.5 164q59.5 -63 168.5 -63q77 0 140 37t99.5 101t36.5 141q0 103 -60 166t-169 63q-77 0 -140 -37t-99 -101t-36 -141q0 -103 59.5 -166zM591.5 892.5q19.5 19.5 47.5 19.5q27 0 46.5 -19.5t19.5 -47.5q0 -27 -19.5 -46.5
t-46.5 -19.5q-28 0 -47.5 19.5t-19.5 46.5q0 28 19.5 47.5z" />
    <glyph glyph-name="multiply" unicode="&#xd7;" horiz-adv-x="528" 
d="M200 290l-135 134l69 68l135 -133l136 133l68 -68l-134 -134l134 -135l-68 -68l-136 133l-135 -133l-69 68z" />
    <glyph glyph-name="Oslash" unicode="&#xd8;" horiz-adv-x="830" 
d="M270.5 8.5q-57.5 20.5 -101.5 58.5l-99 -86l-58 68l100 87q-50 79 -50 183q0 111 49 203t141 146t215 54q137 0 228 -81l101 88l58 -68l-102 -88q49 -80 49 -182q0 -111 -49 -203t-141 -146t-215 -54q-68 0 -125.5 20.5zM204 215l401 348q-60 46 -150 46q-77 0 -140 -37
t-99 -101t-36 -141q0 -65 24 -115zM408 101q77 0 140 37t99.5 101t36.5 141q0 64 -24 113l-400 -347q57 -45 148 -45z" />
    <glyph glyph-name="Ugrave" unicode="&#xd9;" horiz-adv-x="723" 
d="M537 59.5q-77 -71.5 -215 -71.5q-73 0 -129.5 28.5t-88 81t-31.5 120.5q0 30 8 68l90 424h117l-91 -430q-6 -28 -6 -52q0 -63 38 -95t103 -32q76 0 125.5 44t68.5 130l92 435h118l-91 -432q-31 -147 -108 -218.5zM509 772h-78l-94 146h118z" />
    <glyph glyph-name="Uacute" unicode="&#xda;" horiz-adv-x="723" 
d="M537 59.5q-77 -71.5 -215 -71.5q-73 0 -129.5 28.5t-88 81t-31.5 120.5q0 30 8 68l90 424h117l-91 -430q-6 -28 -6 -52q0 -63 38 -95t103 -32q76 0 125.5 44t68.5 130l92 435h118l-91 -432q-31 -147 -108 -218.5zM544 918h118l-158 -146h-79z" />
    <glyph glyph-name="Ucircumflex" unicode="&#xdb;" horiz-adv-x="723" 
d="M499 938l153 -87l-23 -86l-141 80l-186 -80l16 94zM171 710h117l-91 -430q-6 -28 -6 -52q0 -63 38 -95t103 -32q76 0 126 44t68 130l92 435h118l-91 -432q-31 -147 -108 -218.5t-215 -71.5q-73 0 -129.5 28.5t-87.5 81t-31 121.5q0 35 7 67z" />
    <glyph glyph-name="Udieresis" unicode="&#xdc;" horiz-adv-x="723" 
d="M321 798.5q-20 19.5 -20 46.5q0 28 20 47.5t48 19.5q26 0 45.5 -19.5t19.5 -47.5q0 -27 -19.5 -46.5t-45.5 -19.5q-28 0 -48 19.5zM171 710h117l-91 -430q-6 -28 -6 -52q0 -63 38 -95t103 -32q76 0 126 44t68 130l92 435h118l-91 -432q-31 -147 -108 -218.5t-215 -71.5
q-73 0 -129.5 28.5t-87.5 81t-31 121.5q0 35 7 67zM550.5 892.5q19.5 19.5 47.5 19.5q27 0 46.5 -19.5t19.5 -47.5q0 -27 -19.5 -46.5t-46.5 -19.5q-28 0 -47.5 19.5t-19.5 46.5q0 28 19.5 47.5z" />
    <glyph glyph-name="Yacute" unicode="&#xdd;" horiz-adv-x="680" 
d="M105 710h124l130 -299l258 299h145l-358 -411l-63 -299h-117l63 300zM522 918h118l-158 -146h-79z" />
    <glyph glyph-name="Thorn" unicode="&#xde;" horiz-adv-x="600" 
d="M298 710l-26 -123h82q69 0 120 -28t78.5 -75t27.5 -103q0 -72 -32.5 -130.5t-99.5 -92.5t-164 -34h-111l-26 -124h-117l151 710h117zM305 232q46 0 82 19t56.5 51t20.5 71q0 45 -29 74.5t-88 29.5h-99l-52 -245h109z" />
    <glyph glyph-name="germandbls" unicode="&#xdf;" horiz-adv-x="584" 
d="M223.5 708q61.5 48 155.5 48q55 0 99 -23.5t69.5 -66t25.5 -95.5q0 -62 -29.5 -112.5t-86.5 -76.5q44 -26 63.5 -67t19.5 -86q0 -67 -32 -119t-91.5 -81t-139.5 -29h-65l22 101h39q67 0 112.5 35t45.5 93q0 47 -32.5 78.5t-82.5 31.5h-28l21 100h20q58 0 95.5 34t37.5 86
q0 43 -25.5 69.5t-67.5 26.5q-47 0 -78.5 -28.5t-41.5 -76.5l-117 -550h-110l121 570q19 90 80.5 138z" />
    <glyph glyph-name="agrave" unicode="&#xe0;" horiz-adv-x="627" 
d="M140 19.5q-47 28.5 -74 79.5t-27 117q0 82 35 149.5t97.5 106t141.5 38.5q60 0 104.5 -27.5t60.5 -62.5l17 80h110l-106 -500h-110l12 54q-23 -27 -65 -45t-91 -18q-58 0 -105 28.5zM184.5 124q34.5 -36 92.5 -36q48 0 87.5 24t62.5 66t23 95q0 65 -34.5 101t-93.5 36
q-47 0 -86.5 -24t-62.5 -66t-23 -95q0 -65 34.5 -101zM416 562h-78l-94 146h118z" />
    <glyph glyph-name="aacute" unicode="&#xe1;" horiz-adv-x="627" 
d="M140 19.5q-47 28.5 -74 79.5t-27 117q0 82 35 149.5t97.5 106t141.5 38.5q60 0 104.5 -27.5t60.5 -62.5l17 80h110l-106 -500h-110l12 54q-23 -27 -65 -45t-91 -18q-58 0 -105 28.5zM184.5 124q34.5 -36 92.5 -36q48 0 87.5 24t62.5 66t23 95q0 65 -34.5 101t-93.5 36
q-47 0 -86.5 -24t-62.5 -66t-23 -95q0 -65 34.5 -101zM451 708h118l-158 -146h-79z" />
    <glyph glyph-name="acircumflex" unicode="&#xe2;" horiz-adv-x="627" 
d="M140 19.5q-47 28.5 -74 79.5t-27 117q0 82 35 149.5t97.5 106t141.5 38.5q60 0 104.5 -27.5t60.5 -62.5l17 80h110l-106 -500h-110l12 54q-23 -27 -65 -45t-91 -18q-58 0 -105 28.5zM184.5 124q34.5 -36 92.5 -36q48 0 87.5 24t62.5 66t23 95q0 65 -34.5 101t-93.5 36
q-47 0 -86.5 -24t-62.5 -66t-23 -95q0 -65 34.5 -101zM463 703l74 -139h-88l-53 81l-87 -81h-87l134 139h107z" />
    <glyph glyph-name="atilde" unicode="&#xe3;" horiz-adv-x="627" 
d="M140 19.5q-47 28.5 -74 79.5t-27 117q0 82 35 149.5t97.5 106t141.5 38.5q60 0 104.5 -27.5t60.5 -62.5l17 80h110l-106 -500h-110l12 54q-23 -27 -65 -45t-91 -18q-58 0 -105 28.5zM184.5 124q34.5 -36 92.5 -36q48 0 87.5 24t62.5 66t23 95q0 65 -34.5 101t-93.5 36
q-47 0 -86.5 -24t-62.5 -66t-23 -95q0 -65 34.5 -101zM519 599.5q-32 -27.5 -76 -27.5q-18 0 -32.5 5.5t-29.5 16.5l-12 9q-19 14 -34 14t-24 -9.5t-14 -33.5h-72l3 15q12 54 44.5 81.5t76.5 27.5q32 0 63 -22l12 -9q10 -7 17 -10.5t16 -3.5q15 0 24 9.5t14 33.5h71l-3 -15
q-12 -54 -44 -81.5z" />
    <glyph glyph-name="adieresis" unicode="&#xe4;" horiz-adv-x="627" 
d="M234 606.5q-20 19.5 -20 46.5q0 28 20 47.5t48 19.5q26 0 45.5 -19.5t19.5 -47.5q0 -27 -19.5 -46.5t-45.5 -19.5q-28 0 -48 19.5zM74 365.5q35 67.5 97.5 106t141.5 38.5q60 0 104.5 -27.5t60.5 -62.5l17 80h110l-106 -500h-110l12 54q-23 -27 -65 -45t-91 -18
q-58 0 -105 28.5t-74 79.5t-27 117q0 82 35 149.5zM184.5 124q34.5 -36 92.5 -36q48 0 87.5 24t62.5 66t23 95q0 65 -34.5 101t-93.5 36q-47 0 -86.5 -24t-62.5 -66t-23 -95q0 -65 34.5 -101zM463.5 700.5q19.5 19.5 47.5 19.5q27 0 46.5 -19.5t19.5 -47.5
q0 -27 -19.5 -46.5t-46.5 -19.5q-28 0 -47.5 19.5t-19.5 46.5q0 28 19.5 47.5z" />
    <glyph glyph-name="aring" unicode="&#xe5;" horiz-adv-x="627" 
d="M312.5 578.5q-35.5 35.5 -35.5 84.5t35.5 84.5t85.5 35.5q33 0 61 -16t44.5 -44t16.5 -60t-16.5 -60t-44.5 -44t-61 -16q-50 0 -85.5 35.5zM74 365.5q35 67.5 97.5 106t141.5 38.5q60 0 104.5 -27.5t60.5 -62.5l17 80h110l-106 -500h-110l12 54q-23 -27 -65 -45t-91 -18
q-58 0 -105 28.5t-74 79.5t-27 117q0 82 35 149.5zM184.5 124q34.5 -36 92.5 -36q48 0 87.5 24t62.5 66t23 95q0 65 -34.5 101t-93.5 36q-47 0 -86.5 -24t-62.5 -66t-23 -95q0 -65 34.5 -101zM353 617.5q19 -18.5 45 -18.5q28 0 47 18.5t19 45.5t-19 46t-47 19
q-26 0 -45 -19.5t-19 -45.5q0 -27 19 -45.5z" />
    <glyph glyph-name="ae" unicode="&#xe6;" horiz-adv-x="915" 
d="M487.5 16q-49.5 26 -81.5 72q-31 -45 -81 -70.5t-118 -25.5q-87 0 -138 40t-51 106q1 71 61.5 107.5t192.5 52.5q55 8 74.5 12t29.5 13.5t10 31.5q0 28 -25.5 45t-68.5 17q-44 0 -75.5 -21t-37.5 -63h-110q6 52 38 92.5t81.5 62.5t107.5 22q52 0 94.5 -17.5t65.5 -51.5
q37 33 85.5 51t105.5 18q65 0 117.5 -27.5t82.5 -79t30 -121.5q0 -33 -5 -59h-401q1 -60 39 -98t96 -38q43 0 78.5 17.5t55.5 52.5h117q-32 -80 -97.5 -123.5t-160.5 -43.5q-62 0 -111.5 26zM159 94q25 -16 65 -16q48 0 83.5 25t45.5 74l13 65q-31 -10 -95 -22l-38 -8
q-58 -14 -78.5 -29t-20.5 -44t25 -45zM763 301q-3 56 -38 86.5t-89 30.5q-52 0 -95.5 -30.5t-58.5 -86.5h281z" />
    <glyph glyph-name="ccedilla" unicode="&#xe7;" horiz-adv-x="589" 
d="M180.5 -159q21.5 -4 38.5 -4q30 0 50.5 10t20.5 30q0 13 -10.5 20t-29.5 7q-24 0 -45 -10l-30 20l61 79q-62 10 -106.5 44t-67 84.5t-22.5 108.5q0 77 35 141t99 101.5t148 37.5q99 0 161 -54.5t77 -138.5h-116q-14 43 -48 68t-82 25q-46 0 -83 -23t-58 -62t-21 -86
q0 -69 37 -109.5t101 -40.5q48 0 86 26t58 68h116q-25 -85 -90.5 -137t-163.5 -56l-32 -40q21 6 40 6q32 0 51 -18.5t19 -48.5q0 -51 -40.5 -79.5t-107.5 -28.5q-24 0 -50 4t-45 11l12 57q16 -8 37.5 -12z" />
    <glyph glyph-name="egrave" unicode="&#xe8;" horiz-adv-x="588" 
d="M151 21q-53 31 -82.5 84.5t-29.5 120.5q0 80 35 144.5t99 102t147 37.5q65 0 117.5 -27.5t82.5 -79t30 -121.5q0 -33 -5 -59h-401q1 -60 39 -98t96 -38q43 0 78.5 17.5t55.5 52.5h117q-32 -80 -97.5 -123.5t-160.5 -43.5q-68 0 -121 31zM436 301q-3 56 -38 86.5t-89 30.5
q-52 0 -95.5 -30.5t-58.5 -86.5h281zM369 562h-78l-94 146h118z" />
    <glyph glyph-name="eacute" unicode="&#xe9;" horiz-adv-x="588" 
d="M151 21q-53 31 -82.5 84.5t-29.5 120.5q0 80 35 144.5t99 102t147 37.5q65 0 117.5 -27.5t82.5 -79t30 -121.5q0 -33 -5 -59h-401q1 -60 39 -98t96 -38q43 0 78.5 17.5t55.5 52.5h117q-32 -80 -97.5 -123.5t-160.5 -43.5q-68 0 -121 31zM436 301q-3 56 -38 86.5t-89 30.5
q-52 0 -95.5 -30.5t-58.5 -86.5h281zM404 708h118l-158 -146h-79z" />
    <glyph glyph-name="ecircumflex" unicode="&#xea;" horiz-adv-x="588" 
d="M151 21q-53 31 -82.5 84.5t-29.5 120.5q0 80 35 144.5t99 102t147 37.5q65 0 117.5 -27.5t82.5 -79t30 -121.5q0 -33 -5 -59h-401q1 -60 39 -98t96 -38q43 0 78.5 17.5t55.5 52.5h117q-32 -80 -97.5 -123.5t-160.5 -43.5q-68 0 -121 31zM436 301q-3 56 -38 86.5t-89 30.5
q-52 0 -95.5 -30.5t-58.5 -86.5h281zM416 703l74 -139h-88l-53 81l-87 -81h-87l134 139h107z" />
    <glyph glyph-name="edieresis" unicode="&#xeb;" horiz-adv-x="588" 
d="M202 606.5q-20 19.5 -20 46.5q0 28 20 47.5t48 19.5q26 0 45.5 -19.5t19.5 -47.5q0 -27 -19.5 -46.5t-45.5 -19.5q-28 0 -48 19.5zM74 370.5q35 64.5 99 102t147 37.5q65 0 117.5 -27.5t82.5 -79t30 -121.5q0 -33 -5 -59h-401q1 -60 39 -98t96 -38q43 0 78.5 17.5
t55.5 52.5h117q-32 -80 -97.5 -123.5t-160.5 -43.5q-68 0 -121 31t-82.5 84.5t-29.5 120.5q0 80 35 144.5zM436 301q-3 56 -38 86.5t-89 30.5q-52 0 -95.5 -30.5t-58.5 -86.5h281zM431.5 700.5q19.5 19.5 47.5 19.5q27 0 46.5 -19.5t19.5 -47.5q0 -27 -19.5 -46.5
t-46.5 -19.5q-28 0 -47.5 19.5t-19.5 46.5q0 28 19.5 47.5z" />
    <glyph glyph-name="igrave" unicode="&#xec;" horiz-adv-x="259" 
d="M238 500l-106 -500h-110l106 500h110zM232 562h-78l-94 146h118z" />
    <glyph glyph-name="iacute" unicode="&#xed;" horiz-adv-x="259" 
d="M238 500l-106 -500h-110l106 500h110zM267 708h118l-158 -146h-79z" />
    <glyph glyph-name="icircumflex" unicode="&#xee;" horiz-adv-x="259" 
d="M361 563l-134 101l-201 -101l25 98l187 95l145 -107zM128 500h110l-106 -500h-110z" />
    <glyph glyph-name="idieresis" unicode="&#xef;" horiz-adv-x="259" 
d="M71 607q-20 20 -20 48t20 47.5t48 19.5t47.5 -19.5t19.5 -47.5t-19.5 -48t-47.5 -20t-48 20zM128 500h110l-106 -500h-110zM264 702.5q20 19.5 48 19.5t47.5 -19.5t19.5 -47.5t-19.5 -48t-47.5 -20t-48 20t-20 48t20 47.5z" />
    <glyph glyph-name="eth" unicode="&#xf0;" horiz-adv-x="604" 
d="M564 270q0 -77 -35 -141.5t-99 -102t-148 -37.5q-76 0 -130.5 33.5t-82.5 88.5t-28 119q0 77 35 141t99 101.5t148 37.5q16 0 48 -4l-30 63h-148l17 78h95l-47 103h115l47 -103h119l-17 -78h-66l78 -172q30 -64 30 -127zM189.5 131.5q37.5 -39.5 101.5 -39.5
q46 0 82.5 22.5t57.5 61t21 85.5q0 68 -37.5 107.5t-100.5 39.5q-46 0 -83 -22.5t-58 -61t-21 -85.5q0 -68 37.5 -107.5z" />
    <glyph glyph-name="ntilde" unicode="&#xf1;" horiz-adv-x="593" 
d="M524 609.5q-34 -26.5 -78 -26.5q-21 0 -38.5 6.5t-40.5 19.5q-19 10 -28.5 14.5t-20.5 4.5q-36 0 -53 -45h-74l6 22q13 50 47 76t79 26q21 0 38.5 -6.5t40.5 -19.5q16 -9 27 -14t22 -5q35 0 53 46h74l-6 -22q-14 -50 -48 -76.5zM128 500h110l-13 -59q28 34 69 51.5
t87 17.5q74 0 117 -48.5t43 -122.5q0 -26 -6 -55l-61 -284h-110l59 278q5 25 5 41q0 43 -23.5 67t-64.5 24q-56 0 -97 -39t-57 -115l-54 -256h-110z" />
    <glyph glyph-name="ograve" unicode="&#xf2;" horiz-adv-x="603" 
d="M150.5 22.5q-54.5 33.5 -82.5 88.5t-28 119q0 77 35 141t99 101.5t148 37.5q76 0 130.5 -33t82.5 -87.5t28 -119.5q0 -77 -35 -141.5t-99 -102t-148 -37.5q-76 0 -130.5 33.5zM189.5 131.5q37.5 -39.5 100.5 -39.5q46 0 83 22.5t58 61t21 85.5q0 68 -38 107.5t-101 39.5
q-46 0 -82.5 -22.5t-57.5 -61t-21 -85.5q0 -68 37.5 -107.5zM371 562h-78l-94 146h118z" />
    <glyph glyph-name="oacute" unicode="&#xf3;" horiz-adv-x="603" 
d="M150.5 22.5q-54.5 33.5 -82.5 88.5t-28 119q0 77 35 141t99 101.5t148 37.5q76 0 130.5 -33t82.5 -87.5t28 -119.5q0 -77 -35 -141.5t-99 -102t-148 -37.5q-76 0 -130.5 33.5zM189.5 131.5q37.5 -39.5 100.5 -39.5q46 0 83 22.5t58 61t21 85.5q0 68 -38 107.5t-101 39.5
q-46 0 -82.5 -22.5t-57.5 -61t-21 -85.5q0 -68 37.5 -107.5zM406 708h118l-158 -146h-79z" />
    <glyph glyph-name="ocircumflex" unicode="&#xf4;" horiz-adv-x="603" 
d="M150.5 22.5q-54.5 33.5 -82.5 88.5t-28 119q0 77 35 141t99 101.5t148 37.5q76 0 130.5 -33t82.5 -87.5t28 -119.5q0 -77 -35 -141.5t-99 -102t-148 -37.5q-76 0 -130.5 33.5zM189.5 131.5q37.5 -39.5 100.5 -39.5q46 0 83 22.5t58 61t21 85.5q0 68 -38 107.5t-101 39.5
q-46 0 -82.5 -22.5t-57.5 -61t-21 -85.5q0 -68 37.5 -107.5zM418 703l74 -139h-88l-53 81l-87 -81h-87l134 139h107z" />
    <glyph glyph-name="otilde" unicode="&#xf5;" horiz-adv-x="603" 
d="M150.5 22.5q-54.5 33.5 -82.5 88.5t-28 119q0 77 35 141t99 101.5t148 37.5q76 0 130.5 -33t82.5 -87.5t28 -119.5q0 -77 -35 -141.5t-99 -102t-148 -37.5q-76 0 -130.5 33.5zM189.5 131.5q37.5 -39.5 100.5 -39.5q46 0 83 22.5t58 61t21 85.5q0 68 -38 107.5t-101 39.5
q-46 0 -82.5 -22.5t-57.5 -61t-21 -85.5q0 -68 37.5 -107.5zM474 599.5q-32 -27.5 -76 -27.5q-18 0 -32.5 5.5t-29.5 16.5l-12 9q-19 14 -34 14t-24 -9.5t-14 -33.5h-72l3 15q12 54 44.5 81.5t76.5 27.5q32 0 63 -22l12 -9q10 -7 17 -10.5t16 -3.5q15 0 24 9.5t14 33.5h71
l-3 -15q-12 -54 -44 -81.5z" />
    <glyph glyph-name="odieresis" unicode="&#xf6;" horiz-adv-x="603" 
d="M223 606.5q-20 19.5 -20 46.5q0 28 20 47.5t48 19.5q26 0 45.5 -19.5t19.5 -47.5q0 -27 -19.5 -46.5t-45.5 -19.5q-28 0 -48 19.5zM75 371q35 64 99 101.5t148 37.5q76 0 130.5 -33t82.5 -87.5t28 -119.5q0 -77 -35 -141.5t-99 -102t-148 -37.5q-76 0 -130.5 33.5
t-82.5 88.5t-28 119q0 77 35 141zM189.5 131.5q37.5 -39.5 100.5 -39.5q46 0 83 22.5t58 61t21 85.5q0 68 -38 107.5t-101 39.5q-46 0 -82.5 -22.5t-57.5 -61t-21 -85.5q0 -68 37.5 -107.5zM452.5 700.5q19.5 19.5 47.5 19.5q27 0 46.5 -19.5t19.5 -47.5q0 -27 -19.5 -46.5
t-46.5 -19.5q-28 0 -47.5 19.5t-19.5 46.5q0 28 19.5 47.5z" />
    <glyph glyph-name="oslash" unicode="&#xf8;" horiz-adv-x="606" 
d="M112 52l-76 -62l-38 45l77 64q-34 59 -34 131q0 77 35 141t99 101.5t148 37.5q106 0 174 -66l80 66l37 -45l-82 -67q32 -58 32 -128q0 -77 -35 -141.5t-99 -102t-148 -37.5q-104 0 -170 63zM165 172l245 201q-37 35 -96 35q-46 0 -82.5 -22.5t-57.5 -61t-21 -85.5
q0 -38 12 -67zM291 92q46 0 83 22.5t58 61t21 85.5q0 35 -11 63l-243 -200q35 -32 92 -32z" />
    <glyph glyph-name="ugrave" unicode="&#xf9;" horiz-adv-x="583" 
d="M96.5 39q-43.5 49 -43.5 124q0 26 6 53l61 284h110l-60 -283q-4 -19 -4 -38q0 -41 22 -64.5t61 -23.5q55 0 94 38.5t54 111.5l55 259h110l-106 -500h-110l12 59q-26 -34 -63.5 -51.5t-81.5 -17.5q-73 0 -116.5 49zM394 562h-78l-94 146h118z" />
    <glyph glyph-name="uacute" unicode="&#xfa;" horiz-adv-x="583" 
d="M96.5 39q-43.5 49 -43.5 124q0 26 6 53l61 284h110l-60 -283q-4 -19 -4 -38q0 -41 22 -64.5t61 -23.5q55 0 94 38.5t54 111.5l55 259h110l-106 -500h-110l12 59q-26 -34 -63.5 -51.5t-81.5 -17.5q-73 0 -116.5 49zM429 708h118l-158 -146h-79z" />
    <glyph glyph-name="ucircumflex" unicode="&#xfb;" horiz-adv-x="583" 
d="M518 563l-134 101l-201 -101l25 98l187 95l145 -107zM120 500h110l-60 -283q-4 -19 -4 -38q0 -41 22 -64.5t61 -23.5q55 0 94 38.5t54 111.5l55 259h110l-106 -500h-110l12 59q-26 -34 -63.5 -51.5t-81.5 -17.5q-73 0 -116.5 49t-43.5 124q0 26 6 53z" />
    <glyph glyph-name="udieresis" unicode="&#xfc;" horiz-adv-x="583" 
d="M210 606.5q-20 19.5 -20 46.5q0 28 20 47.5t48 19.5q26 0 45.5 -19.5t19.5 -47.5q0 -27 -19.5 -46.5t-45.5 -19.5q-28 0 -48 19.5zM120 500h110l-60 -283q-4 -19 -4 -38q0 -41 22 -64.5t61 -23.5q55 0 94 38.5t54 111.5l55 259h110l-106 -500h-110l12 59
q-26 -34 -63.5 -51.5t-81.5 -17.5q-73 0 -116.5 49t-43.5 124q0 26 6 53zM439.5 700.5q19.5 19.5 47.5 19.5q27 0 46.5 -19.5t19.5 -47.5q0 -27 -19.5 -46.5t-46.5 -19.5q-28 0 -47.5 19.5t-19.5 46.5q0 28 19.5 47.5z" />
    <glyph glyph-name="yacute" unicode="&#xfd;" horiz-adv-x="556" 
d="M57 500h111l80 -356l232 356h127l-472 -709h-123l159 238zM415 708h118l-158 -146h-79z" />
    <glyph glyph-name="thorn" unicode="&#xfe;" horiz-adv-x="626" 
d="M289 750l-63 -304q22 27 64 45t92 18q58 0 105 -28.5t74 -79.5t27 -117q0 -82 -35 -149.5t-97.5 -106t-141.5 -38.5q-60 0 -104.5 27.5t-61.5 62.5l-60 -289h-110l202 959h109zM211.5 126q34.5 -36 92.5 -36q48 0 87.5 24t62.5 66t23 95q0 65 -34.5 101t-93.5 36
q-47 0 -86.5 -24t-62.5 -66t-23 -95q0 -65 34.5 -101z" />
    <glyph glyph-name="ydieresis" unicode="&#xff;" horiz-adv-x="556" 
d="M194 606.5q-20 19.5 -20 46.5q0 28 20 47.5t48 19.5q26 0 45.5 -19.5t19.5 -47.5q0 -27 -19.5 -46.5t-45.5 -19.5q-28 0 -48 19.5zM171 29l-114 471h111l80 -356l232 356h127l-472 -709h-123zM423.5 700.5q19.5 19.5 47.5 19.5q27 0 46.5 -19.5t19.5 -47.5
q0 -27 -19.5 -46.5t-46.5 -19.5q-28 0 -47.5 19.5t-19.5 46.5q0 28 19.5 47.5z" />
    <glyph glyph-name="Amacron" unicode="&#x100;" horiz-adv-x="730" 
d="M660 880l-18 -82h-331l17 82h332zM407 710h102l160 -710h-113l-41 186h-317l-120 -186h-132zM492 290l-58 261l-169 -261h227z" />
    <glyph glyph-name="amacron" unicode="&#x101;" horiz-adv-x="627" 
d="M575 710l-18 -82h-331l17 82h332zM74 365.5q35 67.5 97.5 106t141.5 38.5q60 0 104.5 -27.5t60.5 -62.5l17 80h110l-106 -500h-110l12 54q-23 -27 -65 -45t-91 -18q-58 0 -105 28.5t-74 79.5t-27 117q0 82 35 149.5zM184.5 124q34.5 -36 92.5 -36q48 0 87.5 24t62.5 66
t23 95q0 65 -34.5 101t-93.5 36q-47 0 -86.5 -24t-62.5 -66t-23 -95q0 -65 34.5 -101z" />
    <glyph glyph-name="Abreve" unicode="&#x102;" horiz-adv-x="730" 
d="M509 710l160 -710h-113l-41 186h-317l-120 -186h-132l461 710h102zM492 290l-58 261l-169 -261h227zM389 806q-31 32 -31 80q0 15 3 30h73q-1 -4 -1 -12q0 -23 14.5 -38t45.5 -15q35 0 57 19t30 46h73q-12 -58 -60 -100t-116 -42q-57 0 -88 32z" />
    <glyph glyph-name="abreve" unicode="&#x103;" horiz-adv-x="627" 
d="M140 19.5q-47 28.5 -74 79.5t-27 117q0 82 35 149.5t97.5 106t141.5 38.5q60 0 104.5 -27.5t60.5 -62.5l17 80h110l-106 -500h-110l12 54q-23 -27 -65 -45t-91 -18q-58 0 -105 28.5zM184.5 124q34.5 -36 92.5 -36q48 0 87.5 24t62.5 66t23 95q0 65 -34.5 101t-93.5 36
q-47 0 -86.5 -24t-62.5 -66t-23 -95q0 -65 34.5 -101zM293 596q-31 32 -31 80q0 15 3 30h73q-1 -4 -1 -12q0 -23 14.5 -38t45.5 -15q35 0 57 19t30 46h73q-12 -58 -60 -100t-116 -42q-57 0 -88 32z" />
    <glyph glyph-name="Aogonek" unicode="&#x104;" horiz-adv-x="730" 
d="M509 710l160 -710q-56 -28 -84 -55t-28 -49q0 -13 9.5 -19.5t24.5 -6.5q31 0 53 15l-17 -79q-15 -11 -39 -18t-52 -7q-39 0 -64.5 21.5t-25.5 58.5q0 43 32 80.5t78 58.5l-41 186h-317l-120 -186h-132l461 710h102zM492 290l-58 261l-169 -261h227z" />
    <glyph glyph-name="aogonek" unicode="&#x105;" horiz-adv-x="627" 
d="M140 19.5q-47 28.5 -74 79.5t-27 117q0 82 35 149.5t97.5 106t141.5 38.5q60 0 104.5 -27.5t60.5 -62.5l17 80h110l-106 -500q-57 -28 -85.5 -57t-28.5 -53q0 -13 9 -20.5t24 -7.5q14 0 29.5 5t25.5 12l-16 -74q-36 -24 -84 -24q-40 0 -65.5 23t-25.5 58q0 39 30.5 75.5
t76.5 62.5l12 54q-23 -27 -65 -45t-91 -18q-58 0 -105 28.5zM184.5 124q34.5 -36 92.5 -36q48 0 87.5 24t62.5 66t23 95q0 65 -34.5 101t-93.5 36q-47 0 -86.5 -24t-62.5 -66t-23 -95q0 -65 34.5 -101z" />
    <glyph glyph-name="Cacute" unicode="&#x106;" horiz-adv-x="794" 
d="M698 927l-148 -157h-89l105 157h132zM110.5 522q49.5 92 141.5 146t214 54q84 0 152.5 -32.5t112 -89.5t58.5 -128h-126q-21 63 -75 100t-132 37q-77 0 -140 -37t-99.5 -101t-36.5 -141q0 -103 60 -166t169 -63q76 0 136.5 36.5t95.5 100.5h126q-42 -114 -137 -182
t-232 -68q-101 0 -177.5 44t-118 119.5t-41.5 167.5q0 111 49.5 203z" />
    <glyph glyph-name="cacute" unicode="&#x107;" horiz-adv-x="589" 
d="M605 750l-199 -190h-87l146 190h140zM75 371q35 64 99 101.5t148 37.5q99 0 161 -54.5t77 -138.5h-116q-14 43 -48 68t-82 25q-46 0 -83 -23t-58 -62t-21 -86q0 -69 37 -109.5t101 -40.5q48 0 86 26t58 68h116q-26 -88 -95 -140.5t-174 -52.5q-76 0 -130.5 33t-82.5 88
t-28 119q0 77 35 141z" />
    <glyph glyph-name="Ccircumflex" unicode="&#x108;" horiz-adv-x="794" 
d="M530 938l153 -87l-23 -86l-141 80l-186 -80l16 94zM110.5 522q49.5 92 141.5 146t214 54q84 0 152.5 -32.5t112 -89.5t58.5 -128h-126q-21 63 -75 100t-132 37q-77 0 -140 -37t-99.5 -101t-36.5 -141q0 -103 60 -166t169 -63q76 0 136.5 36.5t95.5 100.5h126
q-42 -114 -137 -182t-232 -68q-101 0 -177.5 44t-118 119.5t-41.5 167.5q0 111 49.5 203z" />
    <glyph glyph-name="ccircumflex" unicode="&#x109;" horiz-adv-x="589" 
d="M521 563l-134 101l-201 -101l25 98l187 95l145 -107zM75 371q35 64 99 101.5t148 37.5q99 0 161 -54.5t77 -138.5h-116q-14 43 -48 68t-82 25q-46 0 -83 -23t-58 -62t-21 -86q0 -69 37 -109.5t101 -40.5q48 0 86 26t58 68h116q-26 -88 -95 -140.5t-174 -52.5
q-76 0 -130.5 33t-82.5 88t-28 119q0 77 35 141z" />
    <glyph glyph-name="Cdotaccent" unicode="&#x10a;" horiz-adv-x="794" 
d="M466.5 798.5q-19.5 19.5 -19.5 46.5q0 28 19.5 47.5t47.5 19.5t47 -19.5t19 -47.5q0 -27 -19 -46.5t-47 -19.5t-47.5 19.5zM110.5 522q49.5 92 141.5 146t214 54q84 0 152.5 -32.5t112 -89.5t58.5 -128h-126q-21 63 -75 100t-132 37q-77 0 -140 -37t-99.5 -101
t-36.5 -141q0 -103 60 -166t169 -63q76 0 136.5 36.5t95.5 100.5h126q-42 -114 -137 -182t-232 -68q-101 0 -177.5 44t-118 119.5t-41.5 167.5q0 111 49.5 203z" />
    <glyph glyph-name="cdotaccent" unicode="&#x10b;" horiz-adv-x="589" 
d="M329 606.5q-20 19.5 -20 46.5q0 28 20 47.5t48 19.5q27 0 46 -19.5t19 -47.5q0 -27 -19 -46.5t-46 -19.5q-28 0 -48 19.5zM75 371q35 64 99 101.5t148 37.5q99 0 161 -54.5t77 -138.5h-116q-14 43 -48 68t-82 25q-46 0 -83 -23t-58 -62t-21 -86q0 -69 37 -109.5
t101 -40.5q48 0 86 26t58 68h116q-26 -88 -95 -140.5t-174 -52.5q-76 0 -130.5 33t-82.5 88t-28 119q0 77 35 141z" />
    <glyph glyph-name="Ccaron" unicode="&#x10c;" horiz-adv-x="794" 
d="M500 765l-153 87l23 86l141 -81l186 81l-16 -95zM110.5 522q49.5 92 141.5 146t214 54q84 0 152.5 -32.5t112 -89.5t58.5 -128h-126q-21 63 -75 100t-132 37q-77 0 -140 -37t-99.5 -101t-36.5 -141q0 -103 60 -166t169 -63q76 0 136.5 36.5t95.5 100.5h126
q-42 -114 -137 -182t-232 -68q-101 0 -177.5 44t-118 119.5t-41.5 167.5q0 111 49.5 203z" />
    <glyph glyph-name="ccaron" unicode="&#x10d;" horiz-adv-x="589" 
d="M233 756l133 -102l202 102l-25 -100l-187 -93l-144 108zM75 371q35 64 99 101.5t148 37.5q99 0 161 -54.5t77 -138.5h-116q-14 43 -48 68t-82 25q-46 0 -83 -23t-58 -62t-21 -86q0 -69 37 -109.5t101 -40.5q48 0 86 26t58 68h116q-26 -88 -95 -140.5t-174 -52.5
q-76 0 -130.5 33t-82.5 88t-28 119q0 77 35 141z" />
    <glyph glyph-name="Dcaron" unicode="&#x10e;" horiz-adv-x="724" 
d="M431 765l-153 87l23 86l141 -81l186 81l-16 -95zM181 710h186q98 0 173 -41.5t116.5 -112t41.5 -155.5q0 -122 -53 -213t-148 -139.5t-220 -48.5h-247zM289 109q80 0 146 35t105 98.5t39 143.5q0 97 -60 156t-166 59h-78l-105 -492h119z" />
    <glyph glyph-name="dcaron" unicode="&#x10f;" horiz-adv-x="633" 
d="M140 18q-47 28 -74 79t-27 117q0 82 35 149.5t97.5 106.5t141.5 39q60 0 104.5 -27.5t60.5 -62.5l70 331h110l-159 -750h-110l12 53q-23 -28 -64.5 -45.5t-91.5 -17.5q-58 0 -105 28zM184 123q34 -36 93 -36q48 0 87.5 23.5t62.5 65.5t23 95q0 65 -34.5 101t-93.5 36
q-47 0 -86.5 -23.5t-62.5 -65.5t-23 -95q0 -65 34 -101zM707 750h111l-91 -163h-76z" />
    <glyph glyph-name="Dcroat" unicode="&#x110;" horiz-adv-x="735" 
d="M33 308l22 102h72l64 300h186q98 0 173 -41.5t116.5 -112t41.5 -155.5q0 -122 -53 -213t-148 -139.5t-220 -48.5h-247l66 308h-73zM299 109q80 0 146 35t105 98.5t39 143.5q0 97 -60 156t-166 59h-78l-41 -191h146l-22 -102h-146l-42 -199h119z" />
    <glyph glyph-name="dcroat" unicode="&#x111;" horiz-adv-x="627" 
d="M140 18q-47 28 -74 79t-27 117q0 82 35 149.5t97.5 106.5t141.5 39q60 0 104.5 -27.5t60.5 -62.5l32 153h-153l16 78h154l21 100h110l-21 -100h66l-16 -78h-67l-121 -572h-110l12 53q-23 -28 -64.5 -45.5t-91.5 -17.5q-58 0 -105 28zM184 123q34 -36 93 -36
q48 0 87.5 23.5t62.5 65.5t23 95q0 65 -34.5 101t-93.5 36q-47 0 -86.5 -23.5t-62.5 -65.5t-23 -95q0 -65 34 -101z" />
    <glyph glyph-name="Emacron" unicode="&#x112;" horiz-adv-x="562" 
d="M594 880l-18 -82h-331l17 82h332zM181 710h427l-24 -112h-310l-39 -182h250l-24 -112h-250l-41 -192h310l-23 -112h-427z" />
    <glyph glyph-name="emacron" unicode="&#x113;" horiz-adv-x="588" 
d="M543 710l-18 -82h-331l17 82h332zM74 370.5q35 64.5 99 102t147 37.5q65 0 117.5 -27.5t82.5 -79t30 -121.5q0 -33 -5 -59h-401q1 -60 39 -98t96 -38q43 0 78.5 17.5t55.5 52.5h117q-32 -80 -97.5 -123.5t-160.5 -43.5q-68 0 -121 31t-82.5 84.5t-29.5 120.5
q0 80 35 144.5zM436 301q-3 56 -38 86.5t-89 30.5q-52 0 -95.5 -30.5t-58.5 -86.5h281z" />
    <glyph glyph-name="Ebreve" unicode="&#x114;" horiz-adv-x="562" 
d="M343.5 771q-34.5 16 -55.5 46.5t-21 70.5q0 11 4 33h65q-2 -16 -2 -23q0 -38 24.5 -57t63.5 -19q44 0 72 25.5t39 73.5h69q-10 -77 -60 -121.5t-124 -44.5q-40 0 -74.5 16zM181 710h427l-24 -112h-310l-39 -182h250l-24 -112h-250l-41 -192h310l-23 -112h-427z" />
    <glyph glyph-name="ebreve" unicode="&#x115;" horiz-adv-x="588" 
d="M287 573q-35 18 -55.5 51t-20.5 75q0 20 4 37h69q-3 -16 -3 -30q0 -41 25 -62.5t63 -21.5q42 1 71 28.5t38 85.5h69q-5 -82 -54 -131.5t-130 -49.5q-41 0 -76 18zM74 370.5q35 64.5 99 102t147 37.5q65 0 117.5 -27.5t82.5 -79t30 -121.5q0 -33 -5 -59h-401q1 -60 39 -98
t96 -38q43 0 78.5 17.5t55.5 52.5h117q-32 -80 -97.5 -123.5t-160.5 -43.5q-68 0 -121 31t-82.5 84.5t-29.5 120.5q0 80 35 144.5zM436 301q-3 56 -38 86.5t-89 30.5q-52 0 -95.5 -30.5t-58.5 -86.5h281z" />
    <glyph glyph-name="Edotaccent" unicode="&#x116;" horiz-adv-x="562" 
d="M373.5 798.5q-19.5 19.5 -19.5 46.5q0 28 19.5 47.5t47.5 19.5t47 -19.5t19 -47.5q0 -27 -19 -46.5t-47 -19.5t-47.5 19.5zM181 710h427l-24 -112h-310l-39 -182h250l-24 -112h-250l-41 -192h310l-23 -112h-427z" />
    <glyph glyph-name="edotaccent" unicode="&#x117;" horiz-adv-x="588" 
d="M318 606.5q-20 19.5 -20 46.5q0 28 20 47.5t48 19.5q27 0 46 -19.5t19 -47.5q0 -27 -19 -46.5t-46 -19.5q-28 0 -48 19.5zM74 370.5q35 64.5 99 102t147 37.5q65 0 117.5 -27.5t82.5 -79t30 -121.5q0 -33 -5 -59h-401q1 -60 39 -98t96 -38q43 0 78.5 17.5t55.5 52.5h117
q-32 -80 -97.5 -123.5t-160.5 -43.5q-68 0 -121 31t-82.5 84.5t-29.5 120.5q0 80 35 144.5zM436 301q-3 56 -38 86.5t-89 30.5q-52 0 -95.5 -30.5t-58.5 -86.5h281z" />
    <glyph glyph-name="Eogonek" unicode="&#x118;" horiz-adv-x="562" 
d="M608 710l-24 -112h-310l-39 -182h250l-24 -112h-250l-41 -192h310l-23 -112q-56 -28 -84 -55t-28 -49q0 -13 9.5 -19.5t24.5 -6.5q31 0 53 15l-17 -79q-15 -11 -39 -18t-52 -7q-39 0 -64.5 21.5t-25.5 58.5q0 42 30.5 79t75.5 60h-310l151 710h427z" />
    <glyph glyph-name="eogonek" unicode="&#x119;" horiz-adv-x="588" 
d="M304.5 -196q-24.5 23 -24.5 58q0 62 69 136q-35 -8 -75 -8q-69 0 -122.5 31t-83 84.5t-29.5 120.5q0 80 35 144.5t99 102t147 37.5q65 0 117.5 -27.5t82.5 -79t30 -121.5q0 -33 -5 -59h-401q1 -61 39.5 -98.5t97.5 -37.5q44 0 78 17.5t54 52.5h117q-18 -44 -46 -80
q-101 -123 -101 -182q0 -33 33 -33q13 0 28 4.5t26 12.5l-15 -74q-38 -24 -86 -24q-40 0 -64.5 23zM436 301q-3 56 -38 86.5t-89 30.5q-52 0 -95.5 -30.5t-58.5 -86.5h281z" />
    <glyph glyph-name="Ecaron" unicode="&#x11a;" horiz-adv-x="562" 
d="M407 765l-153 87l23 86l141 -81l186 81l-16 -95zM181 710h427l-24 -112h-310l-39 -182h250l-24 -112h-250l-41 -192h310l-23 -112h-427z" />
    <glyph glyph-name="ecaron" unicode="&#x11b;" horiz-adv-x="588" 
d="M222 756l133 -102l202 102l-25 -100l-187 -93l-144 108zM74 370.5q35 64.5 99 102t147 37.5q65 0 117.5 -27.5t82.5 -79t30 -121.5q0 -33 -5 -59h-401q1 -60 39 -98t96 -38q43 0 78.5 17.5t55.5 52.5h117q-32 -80 -97.5 -123.5t-160.5 -43.5q-68 0 -121 31t-82.5 84.5
t-29.5 120.5q0 80 35 144.5zM436 301q-3 56 -38 86.5t-89 30.5q-52 0 -95.5 -30.5t-58.5 -86.5h281z" />
    <glyph glyph-name="Gcircumflex" unicode="&#x11c;" horiz-adv-x="821" 
d="M525 938l153 -87l-23 -86l-141 80l-186 -80l16 94zM110.5 522.5q48.5 91.5 140 145.5t215.5 54q119 0 202.5 -61t116.5 -161h-130q-28 52 -78.5 80.5t-120.5 28.5q-78 0 -141 -36.5t-98.5 -100t-35.5 -140.5q0 -104 61 -167.5t171 -63.5q98 0 164 55t88 149h-256l23 110
h359q1 -7 1 -24q0 -115 -43.5 -206.5t-131.5 -144t-214 -52.5q-102 0 -179.5 44t-119.5 120t-42 169q0 110 48.5 201.5z" />
    <glyph glyph-name="gcircumflex" unicode="&#x11d;" horiz-adv-x="627" 
d="M538 563l-134 101l-201 -101l25 98l187 95l145 -107zM106 -39q9 -41 45 -63.5t87 -22.5q58 0 100.5 37.5t54.5 105.5l9 49q-23 -28 -64.5 -46t-91.5 -18q-58 0 -105 28t-74 78t-27 114q0 81 35.5 146.5t98 103t140.5 37.5q60 0 104.5 -27.5t60.5 -62.5l17 80h110
l-104 -488q-24 -116 -93 -173.5t-177 -57.5q-65 0 -116.5 24t-81.5 65t-35 91h107zM186 135.5q35 -34.5 92 -34.5q47 0 86.5 22.5t63 63.5t23.5 92q0 62 -35 96.5t-93 34.5q-46 0 -85.5 -23t-63 -63.5t-23.5 -91.5q0 -62 35 -96.5z" />
    <glyph glyph-name="Gbreve" unicode="&#x11e;" horiz-adv-x="821" 
d="M430.5 771q-34.5 16 -55.5 46.5t-21 70.5q0 11 4 33h65q-2 -16 -2 -23q0 -38 24.5 -57t63.5 -19q44 0 72 25.5t39 73.5h69q-10 -77 -60 -121.5t-124 -44.5q-40 0 -74.5 16zM110.5 522.5q48.5 91.5 140 145.5t215.5 54q119 0 202.5 -61t116.5 -161h-130q-28 52 -78.5 80.5
t-120.5 28.5q-78 0 -141 -36.5t-98.5 -100t-35.5 -140.5q0 -104 61 -167.5t171 -63.5q98 0 164 55t88 149h-256l23 110h359q1 -7 1 -24q0 -115 -43.5 -206.5t-131.5 -144t-214 -52.5q-102 0 -179.5 44t-119.5 120t-42 169q0 110 48.5 201.5z" />
    <glyph glyph-name="gbreve" unicode="&#x11f;" horiz-adv-x="627" 
d="M315 573q-35 18 -55.5 51t-20.5 75q0 20 4 37h69q-3 -16 -3 -30q0 -41 25 -62.5t63 -21.5q42 1 71 28.5t38 85.5h69q-5 -82 -54 -131.5t-130 -49.5q-41 0 -76 18zM106 -39q9 -41 45 -63.5t87 -22.5q58 0 100.5 37.5t54.5 105.5l9 49q-23 -28 -64.5 -46t-91.5 -18
q-58 0 -105 28t-74 78t-27 114q0 81 35.5 146.5t98 103t140.5 37.5q60 0 104.5 -27.5t60.5 -62.5l17 80h110l-104 -488q-24 -116 -93 -173.5t-177 -57.5q-65 0 -116.5 24t-81.5 65t-35 91h107zM186 135.5q35 -34.5 92 -34.5q47 0 86.5 22.5t63 63.5t23.5 92q0 62 -35 96.5
t-93 34.5q-46 0 -85.5 -23t-63 -63.5t-23.5 -91.5q0 -62 35 -96.5z" />
    <glyph glyph-name="Gdotaccent" unicode="&#x120;" horiz-adv-x="821" 
d="M461.5 798.5q-19.5 19.5 -19.5 46.5q0 28 19.5 47.5t47.5 19.5t47 -19.5t19 -47.5q0 -27 -19 -46.5t-47 -19.5t-47.5 19.5zM110.5 522.5q48.5 91.5 140 145.5t215.5 54q119 0 202.5 -61t116.5 -161h-130q-28 52 -78.5 80.5t-120.5 28.5q-78 0 -141 -36.5t-98.5 -100
t-35.5 -140.5q0 -104 61 -167.5t171 -63.5q98 0 164 55t88 149h-256l23 110h359q1 -7 1 -24q0 -115 -43.5 -206.5t-131.5 -144t-214 -52.5q-102 0 -179.5 44t-119.5 120t-42 169q0 110 48.5 201.5z" />
    <glyph glyph-name="gdotaccent" unicode="&#x121;" horiz-adv-x="627" 
d="M346 606.5q-20 19.5 -20 46.5q0 28 20 47.5t48 19.5q27 0 46 -19.5t19 -47.5q0 -27 -19 -46.5t-46 -19.5q-28 0 -48 19.5zM106 -39q9 -41 45 -63.5t87 -22.5q58 0 100.5 37.5t54.5 105.5l9 49q-23 -28 -64.5 -46t-91.5 -18q-58 0 -105 28t-74 78t-27 114q0 81 35.5 146.5
t98 103t140.5 37.5q60 0 104.5 -27.5t60.5 -62.5l17 80h110l-104 -488q-24 -116 -93 -173.5t-177 -57.5q-65 0 -116.5 24t-81.5 65t-35 91h107zM186 135.5q35 -34.5 92 -34.5q47 0 86.5 22.5t63 63.5t23.5 92q0 62 -35 96.5t-93 34.5q-46 0 -85.5 -23t-63 -63.5t-23.5 -91.5
q0 -62 35 -96.5z" />
    <glyph glyph-name="uni0122" unicode="&#x122;" horiz-adv-x="821" 
d="M223.5 32q-77.5 44 -119.5 120t-42 169q0 110 48.5 201.5t140 145.5t215.5 54q119 0 202.5 -61t116.5 -161h-130q-28 52 -78.5 80.5t-120.5 28.5q-78 0 -141 -36.5t-98.5 -100t-35.5 -140.5q0 -104 61 -167.5t171 -63.5q98 0 164 55t88 149h-256l23 110h359q1 -7 1 -24
q0 -115 -43.5 -206.5t-131.5 -144t-214 -52.5q-102 0 -179.5 44zM333 -194q-15 9 -23.5 24t-8.5 33q0 27 20 46.5t48 19.5q27 0 46 -19.5t19 -46.5q0 -23 -17 -44l-87 -106h-52z" />
    <glyph glyph-name="uni0123" unicode="&#x123;" horiz-adv-x="627" 
d="M345.5 606.5q-19.5 19.5 -19.5 47.5q0 22 17 43l88 106h52l-56 -93q15 -9 23.5 -24t8.5 -32q0 -28 -19.5 -47.5t-47.5 -19.5q-27 0 -46.5 19.5zM106 -39q9 -41 45 -63.5t87 -22.5q58 0 100.5 37.5t54.5 105.5l9 49q-23 -28 -64.5 -46t-91.5 -18q-58 0 -105 28t-74 78
t-27 114q0 81 35.5 146.5t98 103t140.5 37.5q60 0 104.5 -27.5t60.5 -62.5l17 80h110l-104 -488q-24 -116 -93 -173.5t-177 -57.5q-65 0 -116.5 24t-81.5 65t-35 91h107zM186 135.5q35 -34.5 92 -34.5q47 0 86.5 22.5t63 63.5t23.5 92q0 62 -35 96.5t-93 34.5
q-46 0 -85.5 -23t-63 -63.5t-23.5 -91.5q0 -62 35 -96.5z" />
    <glyph glyph-name="Hcircumflex" unicode="&#x124;" horiz-adv-x="761" 
d="M518 938l153 -87l-23 -86l-141 80l-186 -80l16 94zM181 710h117l-63 -294h351l63 294h117l-151 -710h-117l65 305h-351l-65 -305h-117z" />
    <glyph glyph-name="hcircumflex" unicode="&#x125;" horiz-adv-x="593" 
d="M442 938l153 -87l-23 -86l-141 80l-186 -80l16 94zM181 750h110l-66 -309q28 34 69 51.5t87 17.5q74 0 117 -48.5t43 -122.5q0 -26 -6 -55l-61 -284h-110l59 278q5 25 5 41q0 43 -23.5 67t-64.5 24q-56 0 -96.5 -39t-57.5 -115l-54 -256h-110z" />
    <glyph glyph-name="Hbar" unicode="&#x126;" horiz-adv-x="780" 
d="M77 521l18 85h74l22 104h117l-22 -104h351l22 104h117l-22 -104h72l-18 -85h-72l-111 -521h-117l65 305h-351l-65 -305h-117l111 521h-74zM596 416l23 105h-351l-23 -105h351z" />
    <glyph glyph-name="hbar" unicode="&#x127;" horiz-adv-x="593" 
d="M77 572l16 78h67l21 100h110l-21 -100h153l-16 -78h-154l-28 -131q28 34 69 51.5t87 17.5q74 0 117 -48.5t43 -122.5q0 -26 -6 -55l-61 -284h-110l59 278q5 25 5 41q0 43 -23.5 67t-64.5 24q-56 0 -96.5 -39t-57.5 -115l-54 -256h-110l121 572h-66z" />
    <glyph glyph-name="Itilde" unicode="&#x128;" horiz-adv-x="292" 
d="M298 710l-151 -710h-117l151 710h117zM396 809.5q-32 -27.5 -76 -27.5q-18 0 -32.5 5.5t-29.5 16.5l-12 9q-19 14 -34 14t-24 -9.5t-14 -33.5h-72l3 15q12 54 44.5 81.5t76.5 27.5q32 0 63 -22l12 -9q10 -7 17 -10.5t16 -3.5q15 0 24 9.5t14 33.5h71l-3 -15
q-12 -54 -44 -81.5z" />
    <glyph glyph-name="itilde" unicode="&#x129;" horiz-adv-x="259" 
d="M238 500l-106 -500h-110l106 500h110zM335 599.5q-32 -27.5 -76 -27.5q-18 0 -32.5 5.5t-29.5 16.5l-12 9q-19 14 -34 14t-24 -9.5t-14 -33.5h-72l3 15q12 54 44.5 81.5t76.5 27.5q32 0 63 -22l12 -9q10 -7 17 -10.5t16 -3.5q15 0 24 9.5t14 33.5h71l-3 -15
q-12 -54 -44 -81.5z" />
    <glyph glyph-name="Imacron" unicode="&#x12a;" horiz-adv-x="292" 
d="M442 880l-18 -82h-331l17 82h332zM181 710h117l-151 -710h-117z" />
    <glyph glyph-name="imacron" unicode="&#x12b;" horiz-adv-x="259" 
d="M394 710l-18 -82h-331l17 82h332zM128 500h110l-106 -500h-110z" />
    <glyph glyph-name="Ibreve" unicode="&#x12c;" horiz-adv-x="292" 
d="M190.5 771q-34.5 16 -55.5 46.5t-21 70.5q0 11 4 33h65q-2 -16 -2 -23q0 -38 24.5 -57t63.5 -19q44 0 72 25.5t39 73.5h69q-10 -77 -60 -121.5t-124 -44.5q-40 0 -74.5 16zM181 710h117l-151 -710h-117z" />
    <glyph glyph-name="ibreve" unicode="&#x12d;" horiz-adv-x="259" 
d="M137 573q-35 18 -55.5 51t-20.5 75q0 20 4 37h69q-3 -16 -3 -30q0 -41 25 -62.5t63 -21.5q42 1 71 28.5t38 85.5h69q-5 -82 -54 -131.5t-130 -49.5q-41 0 -76 18zM128 500h110l-106 -500h-110z" />
    <glyph glyph-name="Iogonek" unicode="&#x12e;" horiz-adv-x="292" 
d="M-50.5 -197.5q-25.5 21.5 -25.5 58.5q0 42 30.5 79t75.5 60l151 710h117l-151 -710q-56 -28 -84 -55t-28 -49q0 -13 9.5 -19.5t24.5 -6.5q31 0 53 15l-17 -79q-15 -11 -39 -18t-52 -7q-39 0 -64.5 21.5z" />
    <glyph glyph-name="iogonek" unicode="&#x12f;" horiz-adv-x="259" 
d="M170.5 630.5q-21.5 21.5 -21.5 52.5q0 30 21.5 51.5t52.5 21.5q30 0 51.5 -21.5t21.5 -51.5q0 -31 -21.5 -52.5t-51.5 -21.5q-31 0 -52.5 21.5zM-54.5 -62.5q30.5 36.5 76.5 62.5l106 500h110l-106 -500q-57 -28 -85.5 -57t-28.5 -53q0 -13 9 -20.5t24 -7.5q14 0 29.5 5
t25.5 12l-16 -74q-36 -24 -84 -24q-40 0 -65.5 23t-25.5 58q0 39 30.5 75.5z" />
    <glyph glyph-name="Idotaccent" unicode="&#x130;" horiz-adv-x="292" 
d="M221.5 798.5q-19.5 19.5 -19.5 46.5q0 28 19.5 47.5t47.5 19.5t47 -19.5t19 -47.5q0 -27 -19 -46.5t-47 -19.5t-47.5 19.5zM181 710h117l-151 -710h-117z" />
    <glyph glyph-name="dotlessi" unicode="&#x131;" horiz-adv-x="259" 
d="M238 500l-106 -500h-110l106 500h110z" />
    <glyph glyph-name="Jcircumflex" unicode="&#x134;" horiz-adv-x="529" 
d="M526 938l153 -87l-23 -86l-141 80l-186 -80l16 94zM111 197q-3 -47 26.5 -73t68.5 -26q46 0 71.5 27t37.5 80l108 505h117l-112 -527q-21 -98 -75 -146.5t-148 -48.5q-55 0 -105.5 23.5t-80.5 70.5t-24 115h116z" />
    <glyph glyph-name="jcircumflex" unicode="&#x135;" horiz-adv-x="266" 
d="M364 563l-134 101l-201 -101l25 98l187 95l145 -107zM-102 -117q16 -4 34 -4q36 0 57.5 19t30.5 61l115 541h110l-119 -560q-18 -84 -64 -121.5t-127 -37.5q-36 0 -57 6z" />
    <glyph glyph-name="uni0136" unicode="&#x136;" horiz-adv-x="678" 
d="M297 710l-65 -307l345 307h153l-393 -350l311 -360h-144l-287 333l-71 -333h-116l151 710h116zM261 -194q-15 9 -23.5 24t-8.5 33q0 27 20 46.5t48 19.5q27 0 46 -19.5t19 -46.5q0 -23 -17 -44l-87 -106h-52z" />
    <glyph glyph-name="uni0137" unicode="&#x137;" horiz-adv-x="545" 
d="M291 750l-93 -440l223 190h146l-273 -232l218 -268h-131l-198 242l-51 -242h-110l159 750h110zM193 -194q-15 9 -23.5 24t-8.5 33q0 27 20 46.5t48 19.5q27 0 46 -19.5t19 -46.5q0 -23 -17 -44l-87 -106h-52z" />
    <glyph glyph-name="Lacute" unicode="&#x139;" horiz-adv-x="542" 
d="M454 927l-148 -157h-89l105 157h132zM181 710h117l-128 -598h325l-23 -112h-442z" />
    <glyph glyph-name="lacute" unicode="&#x13a;" horiz-adv-x="259" 
d="M498 1000l-199 -190h-87l146 190h140zM181 750h110l-159 -750h-110z" />
    <glyph glyph-name="uni013B" unicode="&#x13b;" horiz-adv-x="542" 
d="M298 710l-128 -598h325l-23 -112h-442l151 710h117zM184 -194q-15 9 -23.5 24t-8.5 33q0 27 20 46.5t48 19.5q27 0 46 -19.5t19 -46.5q0 -23 -17 -44l-87 -106h-52z" />
    <glyph glyph-name="uni013C" unicode="&#x13c;" horiz-adv-x="259" 
d="M291 750l-159 -750h-110l159 750h110zM13 -194q-15 9 -23.5 24t-8.5 33q0 27 20 46.5t48 19.5q27 0 46 -19.5t19 -46.5q0 -23 -17 -44l-87 -106h-52z" />
    <glyph glyph-name="Lcaron" unicode="&#x13d;" horiz-adv-x="544" 
d="M525 750l-91 -163h-76l56 163h111zM181 710h117l-128 -598h325l-23 -112h-442z" />
    <glyph glyph-name="lcaron" unicode="&#x13e;" horiz-adv-x="265" 
d="M291 750l-159 -750h-110l159 750h110zM341 750h111l-91 -163h-76z" />
    <glyph glyph-name="Ldot" unicode="&#x13f;" horiz-adv-x="548" 
d="M298 710l-128 -598h325l-23 -112h-442l151 710h117zM400.5 458.5q19.5 19.5 47.5 19.5q27 0 46.5 -19.5t19.5 -47.5q0 -27 -19.5 -46.5t-46.5 -19.5q-28 0 -47.5 19.5t-19.5 46.5q0 28 19.5 47.5z" />
    <glyph glyph-name="ldot" unicode="&#x140;" horiz-adv-x="394" 
d="M291 750l-159 -750h-110l159 750h110zM303.5 411.5q19.5 19.5 47.5 19.5q27 0 46.5 -19.5t19.5 -47.5q0 -27 -19.5 -46.5t-46.5 -19.5q-28 0 -47.5 19.5t-19.5 46.5q0 28 19.5 47.5z" />
    <glyph glyph-name="Lslash" unicode="&#x141;" horiz-adv-x="565" 
d="M25 213l22 103l81 44l75 350h117l-60 -280l168 90l-22 -103l-168 -90l-46 -215h325l-23 -112h-442l55 257z" />
    <glyph glyph-name="lslash" unicode="&#x142;" horiz-adv-x="332" 
d="M31 236l21 96l86 47l79 371h110l-64 -304l86 47l-21 -97l-86 -46l-74 -350h-110l60 283z" />
    <glyph glyph-name="Nacute" unicode="&#x143;" horiz-adv-x="794" 
d="M701 927l-148 -157h-89l105 157h132zM181 710h101l289 -524l111 524h117l-151 -710h-101l-289 524l-111 -524h-117z" />
    <glyph glyph-name="nacute" unicode="&#x144;" horiz-adv-x="593" 
d="M615 750l-199 -190h-87l146 190h140zM128 500h110l-13 -59q28 34 69 51.5t87 17.5q74 0 117 -48.5t43 -122.5q0 -26 -6 -55l-61 -284h-110l59 278q5 25 5 41q0 43 -23.5 67t-64.5 24q-56 0 -97 -39t-57 -115l-54 -256h-110z" />
    <glyph glyph-name="uni0145" unicode="&#x145;" horiz-adv-x="794" 
d="M258 524l-111 -524h-117l151 710h101l289 -524l111 524h117l-151 -710h-101zM278 -194q-15 9 -23.5 24t-8.5 33q0 27 20 46.5t48 19.5q27 0 46 -19.5t19 -46.5q0 -23 -17 -44l-87 -106h-52z" />
    <glyph glyph-name="uni0146" unicode="&#x146;" horiz-adv-x="593" 
d="M238 500l-13 -59q28 34 69 51.5t87 17.5q74 0 117 -48.5t43 -122.5q0 -26 -6 -55l-61 -284h-110l59 278q5 25 5 41q0 43 -23.5 67t-64.5 24q-56 0 -97 -39t-57 -115l-54 -256h-110l106 500h110zM184 -194q-15 9 -23.5 24t-8.5 33q0 27 20 46.5t48 19.5q27 0 46 -19.5
t19 -46.5q0 -23 -17 -44l-87 -106h-52z" />
    <glyph glyph-name="Ncaron" unicode="&#x147;" horiz-adv-x="794" 
d="M502 765l-153 87l23 86l141 -81l186 81l-16 -95zM181 710h101l289 -524l111 524h117l-151 -710h-101l-289 524l-111 -524h-117z" />
    <glyph glyph-name="ncaron" unicode="&#x148;" horiz-adv-x="593" 
d="M244 756l133 -102l202 102l-25 -100l-187 -93l-144 108zM128 500h110l-13 -59q28 34 69 51.5t87 17.5q74 0 117 -48.5t43 -122.5q0 -26 -6 -55l-61 -284h-110l59 278q5 25 5 41q0 43 -23.5 67t-64.5 24q-56 0 -97 -39t-57 -115l-54 -256h-110z" />
    <glyph glyph-name="Eng" unicode="&#x14a;" horiz-adv-x="794" 
d="M352 -197l22 105q34 -18 72 -18q31 0 49.5 18t27.5 59l12 55l-277 502l-111 -524h-117l151 710h101l288 -524l112 524h117l-166 -780q-15 -73 -62 -111t-116 -38q-59 0 -103 22z" />
    <glyph glyph-name="eng" unicode="&#x14b;" horiz-adv-x="593" 
d="M200 -204l20 98q27 -9 51 -9q35 0 56 19.5t31 64.5l65 309q5 25 5 42q0 42 -23 66t-68 24q-40 0 -76.5 -22.5t-58.5 -56.5l-70 -331h-110l106 500h110l-11 -49q26 27 64.5 43t84.5 16q75 0 120 -48.5t45 -123.5q0 -27 -6 -54l-76 -352q-16 -71 -63 -110t-114 -39
q-49 0 -82 13z" />
    <glyph glyph-name="Omacron" unicode="&#x14c;" horiz-adv-x="828" 
d="M698 880l-18 -82h-331l17 82h332zM111 522q49 92 141 146t215 54q101 0 176.5 -44t116.5 -119.5t41 -167.5q0 -111 -49 -203t-141 -146t-215 -54q-101 0 -177 44t-116.5 119.5t-40.5 167.5q0 111 49 203zM239.5 164q59.5 -63 168.5 -63q77 0 140 37t99.5 101t36.5 141
q0 103 -60 166t-169 63q-77 0 -140 -37t-99 -101t-36 -141q0 -103 59.5 -166z" />
    <glyph glyph-name="omacron" unicode="&#x14d;" horiz-adv-x="603" 
d="M564 710l-18 -82h-331l17 82h332zM75 371q35 64 99 101.5t148 37.5q76 0 130.5 -33t82.5 -87.5t28 -119.5q0 -77 -35 -141.5t-99 -102t-148 -37.5q-76 0 -130.5 33.5t-82.5 88.5t-28 119q0 77 35 141zM189.5 131.5q37.5 -39.5 100.5 -39.5q46 0 83 22.5t58 61t21 85.5
q0 68 -38 107.5t-101 39.5q-46 0 -82.5 -22.5t-57.5 -61t-21 -85.5q0 -68 37.5 -107.5z" />
    <glyph glyph-name="Obreve" unicode="&#x14e;" horiz-adv-x="828" 
d="M446.5 771q-34.5 16 -55.5 46.5t-21 70.5q0 11 4 33h65q-2 -16 -2 -23q0 -38 24.5 -57t63.5 -19q44 0 72 25.5t39 73.5h69q-10 -77 -60 -121.5t-124 -44.5q-40 0 -74.5 16zM111 522q49 92 141 146t215 54q101 0 176.5 -44t116.5 -119.5t41 -167.5q0 -111 -49 -203
t-141 -146t-215 -54q-101 0 -177 44t-116.5 119.5t-40.5 167.5q0 111 49 203zM239.5 164q59.5 -63 168.5 -63q77 0 140 37t99.5 101t36.5 141q0 103 -60 166t-169 63q-77 0 -140 -37t-99 -101t-36 -141q0 -103 59.5 -166z" />
    <glyph glyph-name="obreve" unicode="&#x14f;" horiz-adv-x="603" 
d="M308 573q-35 18 -55.5 51t-20.5 75q0 20 4 37h69q-3 -16 -3 -30q0 -41 25 -62.5t63 -21.5q42 1 71 28.5t38 85.5h69q-5 -82 -54 -131.5t-130 -49.5q-41 0 -76 18zM75 371q35 64 99 101.5t148 37.5q76 0 130.5 -33t82.5 -87.5t28 -119.5q0 -77 -35 -141.5t-99 -102
t-148 -37.5q-76 0 -130.5 33.5t-82.5 88.5t-28 119q0 77 35 141zM189.5 131.5q37.5 -39.5 100.5 -39.5q46 0 83 22.5t58 61t21 85.5q0 68 -38 107.5t-101 39.5q-46 0 -82.5 -22.5t-57.5 -61t-21 -85.5q0 -68 37.5 -107.5z" />
    <glyph glyph-name="Ohungarumlaut" unicode="&#x150;" horiz-adv-x="828" 
d="M767 927l-146 -157h-77l100 157h123zM111 522q49 92 141 146t215 54q101 0 176.5 -44t116.5 -119.5t41 -167.5q0 -111 -49 -203t-141 -146t-215 -54q-101 0 -177 44t-116.5 119.5t-40.5 167.5q0 111 49 203zM239.5 164q59.5 -63 168.5 -63q77 0 140 37t99.5 101t36.5 141
q0 103 -60 166t-169 63q-77 0 -140 -37t-99 -101t-36 -141q0 -103 59.5 -166zM470 927h123l-146 -157h-77z" />
    <glyph glyph-name="ohungarumlaut" unicode="&#x151;" horiz-adv-x="603" 
d="M628 750l-152 -190h-78l107 190h123zM75 371q35 64 99 101.5t148 37.5q76 0 130.5 -33t82.5 -87.5t28 -119.5q0 -77 -35 -141.5t-99 -102t-148 -37.5q-76 0 -130.5 33.5t-82.5 88.5t-28 119q0 77 35 141zM189.5 131.5q37.5 -39.5 100.5 -39.5q46 0 83 22.5t58 61t21 85.5
q0 68 -38 107.5t-101 39.5q-46 0 -82.5 -22.5t-57.5 -61t-21 -85.5q0 -68 37.5 -107.5zM328 750h124l-152 -190h-78z" />
    <glyph glyph-name="OE" unicode="&#x152;" horiz-adv-x="1131" 
d="M218 32q-75 44 -115.5 119.5t-40.5 167.5q0 111 49 203t141 146t215 54q86 0 152 -33.5t107 -90.5l24 112h427l-23 -112h-310l-39 -182h250l-24 -112h-250l-42 -192h311l-24 -112h-427l11 50q-98 -62 -220 -62q-97 0 -172 44zM239.5 164q59.5 -63 168.5 -63q77 0 140 37
t99.5 101t36.5 141q0 103 -60 166t-169 63q-77 0 -140 -37t-99 -101t-36 -141q0 -103 59.5 -166z" />
    <glyph glyph-name="oe" unicode="&#x153;" horiz-adv-x="1000" 
d="M150.5 22.5q-54.5 33.5 -82.5 88.5t-28 119q0 77 35 141t99 101.5t148 37.5q66 0 115.5 -25t80.5 -68q39 44 94.5 68.5t123.5 24.5q63 0 114.5 -27.5t81.5 -78.5t30 -121q0 -34 -5 -60h-401q1 -61 39.5 -98.5t97.5 -37.5q93 0 132 70h117q-67 -167 -256 -167
q-61 0 -110.5 24.5t-79.5 67.5q-38 -44 -93 -68.5t-122 -24.5q-76 0 -130.5 33.5zM189.5 131.5q37.5 -39.5 100.5 -39.5q46 0 83 22.5t58 61t21 85.5q0 68 -38 107.5t-101 39.5q-46 0 -82.5 -22.5t-57.5 -61t-21 -85.5q0 -68 37.5 -107.5zM848 301q-3 56 -36 86.5t-86 30.5
t-98.5 -30.5t-60.5 -86.5h281z" />
    <glyph glyph-name="Racute" unicode="&#x154;" horiz-adv-x="641" 
d="M607 927l-148 -157h-89l105 157h132zM181 710h229q62 0 108 -24t71 -64.5t25 -89.5q0 -89 -53.5 -147.5t-159.5 -71.5l203 -313h-132l-203 312h-56l-66 -312h-117zM362 414q63 0 97.5 27.5t35.5 75.5q0 38 -25.5 61.5t-71.5 23.5h-123l-40 -188h127z" />
    <glyph glyph-name="racute" unicode="&#x155;" horiz-adv-x="382" 
d="M531 750l-199 -190h-87l146 190h140zM128 500h110l-18 -81q22 42 63 64t88 22q22 0 41 -4l-23 -113q-27 9 -52 9q-51 0 -94.5 -40.5t-59.5 -112.5l-51 -244h-110z" />
    <glyph glyph-name="uni0156" unicode="&#x156;" horiz-adv-x="641" 
d="M518 686q46 -24 71 -64.5t25 -89.5q0 -89 -53.5 -147.5t-159.5 -71.5l203 -313h-132l-203 312h-56l-66 -312h-117l151 710h229q62 0 108 -24zM241 -194q-15 9 -23.5 24t-8.5 33q0 27 20 46.5t48 19.5q27 0 46 -19.5t19 -46.5q0 -23 -17 -44l-87 -106h-52zM362 414
q63 0 97.5 27.5t35.5 75.5q0 38 -25.5 61.5t-71.5 23.5h-123l-40 -188h127z" />
    <glyph glyph-name="uni0157" unicode="&#x157;" horiz-adv-x="382" 
d="M238 500l-18 -81q22 42 63 64t88 22q22 0 41 -4l-23 -113q-27 9 -52 9q-51 0 -94.5 -40.5t-59.5 -112.5l-51 -244h-110l106 500h110zM13 -194q-15 9 -23.5 24t-8.5 33q0 27 20 46.5t48 19.5q27 0 46 -19.5t19 -46.5q0 -23 -17 -44l-87 -106h-52z" />
    <glyph glyph-name="Rcaron" unicode="&#x158;" horiz-adv-x="641" 
d="M408 765l-153 87l23 86l141 -81l186 81l-16 -95zM181 710h229q62 0 108 -24t71 -64.5t25 -89.5q0 -89 -53.5 -147.5t-159.5 -71.5l203 -313h-132l-203 312h-56l-66 -312h-117zM362 414q63 0 97.5 27.5t35.5 75.5q0 38 -25.5 61.5t-71.5 23.5h-123l-40 -188h127z" />
    <glyph glyph-name="rcaron" unicode="&#x159;" horiz-adv-x="382" 
d="M160 756l133 -102l202 102l-25 -100l-187 -93l-144 108zM128 500h110l-18 -81q22 42 63 64t88 22q22 0 41 -4l-23 -113q-27 9 -52 9q-51 0 -94.5 -40.5t-59.5 -112.5l-51 -244h-110z" />
    <glyph glyph-name="Sacute" unicode="&#x15a;" horiz-adv-x="572" 
d="M581 927l-148 -157h-89l105 157h132zM136 204q7 -48 47.5 -77.5t96.5 -29.5q48 0 81 27t33 65q0 40 -23.5 65.5t-75.5 48.5l-41 18q-65 29 -105 77t-40 117q0 59 29.5 106.5t82.5 74t121 26.5q72 0 123 -30t77 -76.5t28 -96.5h-117q-7 44 -39.5 69t-78.5 25
q-47 0 -77.5 -24.5t-30.5 -60.5t20 -58t61 -41l51 -24q76 -36 115 -87t39 -122q0 -60 -28.5 -107.5t-82.5 -74t-126 -26.5q-81 0 -139 31t-87.5 81t-30.5 104h117z" />
    <glyph glyph-name="sacute" unicode="&#x15b;" horiz-adv-x="475" 
d="M540 750l-199 -190h-87l146 190h140zM125 152q2 -36 30.5 -55t68.5 -19q34 0 57 16t23 39t-15.5 39.5t-47.5 27.5l-59 21q-50 18 -79.5 53.5t-29.5 86.5q0 70 50.5 109.5t137.5 39.5q50 0 92 -20t66.5 -54.5t26.5 -75.5h-110q-4 30 -26.5 46t-53.5 16q-30 0 -50.5 -14.5
t-20.5 -37.5t13 -37t39 -24l53 -19q60 -22 92.5 -57t32.5 -90q0 -70 -53 -111.5t-143 -41.5q-60 0 -107 20.5t-73.5 57t-26.5 84.5h113z" />
    <glyph glyph-name="Scircumflex" unicode="&#x15c;" horiz-adv-x="572" 
d="M413 938l153 -87l-23 -86l-141 80l-186 -80l16 94zM136 204q7 -48 47.5 -77.5t96.5 -29.5q48 0 81 27t33 65q0 40 -23.5 65.5t-75.5 48.5l-41 18q-65 29 -105 77t-40 117q0 59 29.5 106.5t82.5 74t121 26.5q72 0 123 -30t77 -76.5t28 -96.5h-117q-7 44 -39.5 69t-78.5 25
q-47 0 -77.5 -24.5t-30.5 -60.5t20 -58t61 -41l51 -24q76 -36 115 -87t39 -122q0 -60 -28.5 -107.5t-82.5 -74t-126 -26.5q-81 0 -139 31t-87.5 81t-30.5 104h117z" />
    <glyph glyph-name="scircumflex" unicode="&#x15d;" horiz-adv-x="475" 
d="M457 563l-134 101l-201 -101l25 98l187 95l145 -107zM125 152q2 -36 30.5 -55t68.5 -19q34 0 57 16t23 39t-15.5 39.5t-47.5 27.5l-59 21q-50 18 -79.5 53.5t-29.5 86.5q0 70 50.5 109.5t137.5 39.5q50 0 92 -20t66.5 -54.5t26.5 -75.5h-110q-4 30 -26.5 46t-53.5 16
q-30 0 -50.5 -14.5t-20.5 -37.5t13 -37t39 -24l53 -19q60 -22 92.5 -57t32.5 -90q0 -70 -53 -111.5t-143 -41.5q-60 0 -107 20.5t-73.5 57t-26.5 84.5h113z" />
    <glyph glyph-name="Scedilla" unicode="&#x15e;" horiz-adv-x="572" 
d="M200 -163q30 0 51.5 10.5t21.5 30.5q0 26 -40 26q-24 0 -45 -10l-30 20l62 78q-64 11 -109.5 43t-68 76.5t-23.5 92.5h117q7 -48 47.5 -77.5t96.5 -29.5q48 0 81 27t33 65q0 40 -23.5 65.5t-75.5 48.5l-41 18q-65 29 -105 77t-40 117q0 59 29.5 106.5t82.5 74t121 26.5
q72 0 123 -30t77 -76.5t28 -96.5h-117q-7 44 -39.5 69t-78.5 25q-47 0 -77.5 -24.5t-30.5 -60.5t20 -58t61 -41l51 -24q76 -36 115 -87t39 -122q0 -60 -28.5 -107.5t-82 -74t-125.5 -26.5l-30 -37q18 5 41 5q32 0 50.5 -18.5t18.5 -46.5q0 -51 -43 -80.5t-108 -29.5
q-57 0 -92 15l12 56q32 -15 74 -15z" />
    <glyph glyph-name="scedilla" unicode="&#x15f;" horiz-adv-x="475" 
d="M107.5 -159q21.5 -4 38.5 -4q30 0 50.5 10t20.5 30q0 13 -10.5 20t-29.5 7q-24 0 -45 -10l-30 20l63 81q-70 12 -111 54t-42 103h113q2 -36 30.5 -55t68.5 -19q34 0 57 16t23 39t-15.5 39.5t-47.5 27.5l-59 21q-50 18 -79.5 53.5t-29.5 86.5q0 70 50.5 109.5t137.5 39.5
q50 0 92 -20t66.5 -54.5t26.5 -75.5h-110q-4 30 -26.5 46t-53.5 16q-30 0 -50.5 -14.5t-20.5 -37.5t13 -37t39 -24l53 -19q60 -22 92.5 -57t32.5 -90q0 -70 -52.5 -111.5t-139.5 -41.5l-32 -40q21 6 40 6q32 0 51 -18.5t19 -48.5q0 -51 -40.5 -79.5t-107.5 -28.5
q-24 0 -50 4t-45 11l12 57q16 -8 37.5 -12z" />
    <glyph glyph-name="Scaron" unicode="&#x160;" horiz-adv-x="572" 
d="M383 765l-153 87l23 86l141 -81l186 81l-16 -95zM136 204q7 -48 47.5 -77.5t96.5 -29.5q48 0 81 27t33 65q0 40 -23.5 65.5t-75.5 48.5l-41 18q-65 29 -105 77t-40 117q0 59 29.5 106.5t82.5 74t121 26.5q72 0 123 -30t77 -76.5t28 -96.5h-117q-7 44 -39.5 69t-78.5 25
q-47 0 -77.5 -24.5t-30.5 -60.5t20 -58t61 -41l51 -24q76 -36 115 -87t39 -122q0 -60 -28.5 -107.5t-82.5 -74t-126 -26.5q-81 0 -139 31t-87.5 81t-30.5 104h117z" />
    <glyph glyph-name="scaron" unicode="&#x161;" horiz-adv-x="475" 
d="M169 756l133 -102l202 102l-25 -100l-187 -93l-144 108zM125 152q2 -36 30.5 -55t68.5 -19q34 0 57 16t23 39t-15.5 39.5t-47.5 27.5l-59 21q-50 18 -79.5 53.5t-29.5 86.5q0 70 50.5 109.5t137.5 39.5q50 0 92 -20t66.5 -54.5t26.5 -75.5h-110q-4 30 -26.5 46t-53.5 16
q-30 0 -50.5 -14.5t-20.5 -37.5t13 -37t39 -24l53 -19q60 -22 92.5 -57t32.5 -90q0 -70 -53 -111.5t-143 -41.5q-60 0 -107 20.5t-73.5 57t-26.5 84.5h113z" />
    <glyph glyph-name="uni0162" unicode="&#x162;" horiz-adv-x="562" 
d="M85 598l23 112h530l-23 -112h-207l-128 -598h-117l128 598h-206zM158 -194q-15 9 -23.5 24t-8.5 33q0 27 20 46.5t48 19.5q27 0 46 -19.5t19 -46.5q0 -23 -17 -44l-87 -106h-52z" />
    <glyph glyph-name="uni0163" unicode="&#x163;" horiz-adv-x="397" 
d="M139.5 33.5q-42.5 37.5 -42.5 105.5q0 24 6 52l45 211h-103l20 98h104l30 139h110l-30 -139h143l-21 -98h-143l-46 -219q-3 -15 -3 -28q0 -61 75 -61q29 0 53 7l-20 -98q-29 -8 -66 -8q-69 1 -111.5 38.5zM146 -194q-15 9 -23.5 24t-8.5 33q0 27 20 46.5t48 19.5
q27 0 46 -19.5t19 -46.5q0 -23 -17 -44l-87 -106h-52z" />
    <glyph glyph-name="Tcaron" unicode="&#x164;" horiz-adv-x="562" 
d="M388 765l-153 87l23 86l141 -81l186 81l-16 -95zM108 710h530l-23 -112h-207l-128 -598h-117l128 598h-206z" />
    <glyph glyph-name="tcaron" unicode="&#x165;" horiz-adv-x="397" 
d="M484 710l-91 -163h-76l56 163h111zM65 500h104l30 139h110l-30 -139h143l-21 -98h-143l-46 -219q-3 -15 -3 -28q0 -61 75 -61q29 0 53 7l-20 -98q-29 -8 -66 -8q-69 1 -111.5 38.5t-42.5 105.5q0 24 6 52l45 211h-103z" />
    <glyph glyph-name="Tbar" unicode="&#x166;" horiz-adv-x="587" 
d="M92 309l21 103h150l40 186h-206l23 112h530l-23 -112h-207l-40 -186h148l-22 -103h-148l-66 -309h-117l66 309h-149z" />
    <glyph glyph-name="tbar" unicode="&#x167;" horiz-adv-x="409" 
d="M136 323l17 79h-103l20 98h104l30 139h110l-30 -139h143l-21 -98h-143l-17 -79h156l-16 -79h-156l-13 -61q-3 -15 -3 -28q0 -61 75 -61q29 0 53 7l-20 -98q-29 -8 -66 -8q-69 1 -111.5 38.5t-42.5 105.5q0 24 6 52l11 53h-90l17 79h90z" />
    <glyph glyph-name="Utilde" unicode="&#x168;" horiz-adv-x="723" 
d="M537 59.5q-77 -71.5 -215 -71.5q-73 0 -129.5 28.5t-88 81t-31.5 120.5q0 30 8 68l90 424h117l-91 -430q-6 -28 -6 -52q0 -63 38 -95t103 -32q76 0 125.5 44t68.5 130l92 435h118l-91 -432q-31 -147 -108 -218.5zM612 809.5q-32 -27.5 -76 -27.5q-18 0 -32.5 5.5
t-29.5 16.5l-12 9q-19 14 -34 14t-24 -9.5t-14 -33.5h-72l3 15q12 54 44.5 81.5t76.5 27.5q32 0 63 -22l12 -9q10 -7 17 -10.5t16 -3.5q15 0 24 9.5t14 33.5h71l-3 -15q-12 -54 -44 -81.5z" />
    <glyph glyph-name="utilde" unicode="&#x169;" horiz-adv-x="583" 
d="M96.5 39q-43.5 49 -43.5 124q0 26 6 53l61 284h110l-60 -283q-4 -19 -4 -38q0 -41 22 -64.5t61 -23.5q55 0 94 38.5t54 111.5l55 259h110l-106 -500h-110l12 59q-26 -34 -63.5 -51.5t-81.5 -17.5q-73 0 -116.5 49zM497 599.5q-32 -27.5 -76 -27.5q-18 0 -32.5 5.5
t-29.5 16.5l-12 9q-19 14 -34 14t-24 -9.5t-14 -33.5h-72l3 15q12 54 44.5 81.5t76.5 27.5q32 0 63 -22l12 -9q10 -7 17 -10.5t16 -3.5q15 0 24 9.5t14 33.5h71l-3 -15q-12 -54 -44 -81.5z" />
    <glyph glyph-name="Umacron" unicode="&#x16a;" horiz-adv-x="723" 
d="M656 880l-18 -82h-331l17 82h332zM171 710h117l-91 -430q-6 -28 -6 -52q0 -63 38 -95t103 -32q76 0 126 44t68 130l92 435h118l-91 -432q-31 -147 -108 -218.5t-215 -71.5q-73 0 -129.5 28.5t-87.5 81t-31 121.5q0 35 7 67z" />
    <glyph glyph-name="umacron" unicode="&#x16b;" horiz-adv-x="583" 
d="M551 710l-18 -82h-331l17 82h332zM120 500h110l-60 -283q-4 -19 -4 -38q0 -41 22 -64.5t61 -23.5q55 0 94 38.5t54 111.5l55 259h110l-106 -500h-110l12 59q-26 -34 -63.5 -51.5t-81.5 -17.5q-73 0 -116.5 49t-43.5 124q0 26 6 53z" />
    <glyph glyph-name="Ubreve" unicode="&#x16c;" horiz-adv-x="723" 
d="M405.5 771q-34.5 16 -55.5 46.5t-21 70.5q0 11 4 33h65q-2 -16 -2 -23q0 -38 24.5 -57t63.5 -19q44 0 72 25.5t39 73.5h69q-10 -77 -60 -121.5t-124 -44.5q-40 0 -74.5 16zM171 710h117l-91 -430q-6 -28 -6 -52q0 -63 38 -95t103 -32q76 0 126 44t68 130l92 435h118
l-91 -432q-31 -147 -108 -218.5t-215 -71.5q-73 0 -129.5 28.5t-87.5 81t-31 121.5q0 35 7 67z" />
    <glyph glyph-name="ubreve" unicode="&#x16d;" horiz-adv-x="583" 
d="M294 573q-35 18 -55.5 51t-20.5 75q0 20 4 37h69q-3 -16 -3 -30q0 -41 25 -62.5t63 -21.5q42 1 71 28.5t38 85.5h69q-5 -82 -54 -131.5t-130 -49.5q-41 0 -76 18zM120 500h110l-60 -283q-4 -19 -4 -38q0 -41 22 -64.5t61 -23.5q55 0 94 38.5t54 111.5l55 259h110
l-106 -500h-110l12 59q-26 -34 -63.5 -51.5t-81.5 -17.5q-73 0 -116.5 49t-43.5 124q0 26 6 53z" />
    <glyph glyph-name="Uring" unicode="&#x16e;" horiz-adv-x="723" 
d="M402.5 788.5q-35.5 35.5 -35.5 84.5t35.5 84.5t85.5 35.5q33 0 61 -16t44.5 -44t16.5 -60t-16.5 -60t-44.5 -44t-61 -16q-50 0 -85.5 35.5zM171 710h117l-91 -430q-6 -28 -6 -52q0 -63 38 -95t103 -32q76 0 126 44t68 130l92 435h118l-91 -432q-31 -147 -108 -218.5
t-215 -71.5q-73 0 -129.5 28.5t-87.5 81t-31 121.5q0 35 7 67zM442 827.5q19 -18.5 46 -18.5t46 18.5t19 45.5q0 26 -19 45.5t-46 19.5t-46 -19.5t-19 -45.5q0 -27 19 -45.5z" />
    <glyph glyph-name="uring" unicode="&#x16f;" horiz-adv-x="583" 
d="M287.5 578.5q-35.5 35.5 -35.5 84.5t35.5 84.5t85.5 35.5q33 0 61 -16t44.5 -44t16.5 -60t-16.5 -60t-44.5 -44t-61 -16q-50 0 -85.5 35.5zM120 500h110l-60 -283q-4 -19 -4 -38q0 -41 22 -64.5t61 -23.5q55 0 94 38.5t54 111.5l55 259h110l-106 -500h-110l12 59
q-26 -34 -63.5 -51.5t-81.5 -17.5q-73 0 -116.5 49t-43.5 124q0 26 6 53zM328 617.5q19 -18.5 45 -18.5q28 0 47 18.5t19 45.5t-19 46t-47 19q-26 0 -45 -19.5t-19 -45.5q0 -27 19 -45.5z" />
    <glyph glyph-name="Uhungarumlaut" unicode="&#x170;" horiz-adv-x="723" 
d="M726 927l-146 -157h-77l100 157h123zM171 710h117l-91 -430q-6 -28 -6 -52q0 -63 38 -95t103 -32q76 0 126 44t68 130l92 435h118l-91 -432q-31 -147 -108 -218.5t-215 -71.5q-73 0 -129.5 28.5t-87.5 81t-31 121.5q0 35 7 67zM429 927h123l-146 -157h-77z" />
    <glyph glyph-name="uhungarumlaut" unicode="&#x171;" horiz-adv-x="583" 
d="M615 750l-152 -190h-78l107 190h123zM120 500h110l-60 -283q-4 -19 -4 -38q0 -41 22 -64.5t61 -23.5q55 0 94 38.5t54 111.5l55 259h110l-106 -500h-110l12 59q-26 -34 -63.5 -51.5t-81.5 -17.5q-73 0 -116.5 49t-43.5 124q0 26 6 53zM315 750h124l-152 -190h-78z" />
    <glyph glyph-name="Uogonek" unicode="&#x172;" horiz-adv-x="723" 
d="M255.5 -197.5q-25.5 21.5 -25.5 58.5q0 68 83 127q-74 3 -128 33.5t-82.5 82t-28.5 116.5q0 34 7 66l90 424h117l-91 -430q-6 -28 -6 -52q0 -63 38 -95t103 -32q76 0 125.5 44t68.5 130l92 435h118l-91 -432q-22 -106 -63.5 -166t-106.5 -93q-134 -69 -134 -123
q0 -13 9 -19.5t25 -6.5q31 0 53 15l-17 -79q-16 -11 -39.5 -18t-51.5 -7q-39 0 -64.5 21.5z" />
    <glyph glyph-name="uogonek" unicode="&#x173;" horiz-adv-x="583" 
d="M96.5 39q-43.5 49 -43.5 124q0 26 6 53l61 284h110l-60 -283q-4 -19 -4 -38q0 -41 22 -64.5t61 -23.5q55 0 94 38.5t54 111.5l55 259h110l-106 -500q-57 -28 -85.5 -57t-28.5 -53q0 -13 9 -20.5t24 -7.5q14 0 29.5 5t25.5 12l-16 -74q-36 -24 -84 -24q-40 0 -65.5 23
t-25.5 58q0 39 30.5 75.5t76.5 62.5l12 59q-26 -34 -63.5 -51.5t-81.5 -17.5q-73 0 -116.5 49z" />
    <glyph glyph-name="Wcircumflex" unicode="&#x174;" horiz-adv-x="956" 
d="M613 938l153 -87l-23 -86l-141 80l-186 -80l16 94zM234 710l20 -508l318 520l89 -524l237 512h129l-334 -710h-108l-70 427l-261 -427h-108l-32 710h120z" />
    <glyph glyph-name="wcircumflex" unicode="&#x175;" horiz-adv-x="779" 
d="M618 563l-134 101l-201 -101l25 98l187 95l145 -107zM171 500l36 -346l190 346h85l39 -342l180 342h123l-274 -500h-104l-39 322l-180 -322h-104l-62 500h110z" />
    <glyph glyph-name="Ycircumflex" unicode="&#x176;" horiz-adv-x="680" 
d="M468 938l153 -87l-23 -86l-141 80l-186 -80l16 94zM229 710l130 -299l258 299h145l-358 -411l-63 -299h-117l63 300l-182 410h124z" />
    <glyph glyph-name="ycircumflex" unicode="&#x177;" horiz-adv-x="556" 
d="M502 563l-134 101l-201 -101l25 98l187 95l145 -107zM171 29l-114 471h111l80 -356l232 356h127l-472 -709h-123z" />
    <glyph glyph-name="Ydieresis" unicode="&#x178;" horiz-adv-x="680" 
d="M289 798.5q-20 19.5 -20 46.5q0 28 20 47.5t48 19.5q26 0 45.5 -19.5t19.5 -47.5q0 -27 -19.5 -46.5t-45.5 -19.5q-28 0 -48 19.5zM229 710l130 -299l258 299h145l-358 -411l-63 -299h-117l63 300l-182 410h124zM518.5 892.5q19.5 19.5 47.5 19.5q27 0 46.5 -19.5
t19.5 -47.5q0 -27 -19.5 -46.5t-46.5 -19.5q-28 0 -47.5 19.5t-19.5 46.5q0 28 19.5 47.5z" />
    <glyph glyph-name="Zacute" unicode="&#x179;" horiz-adv-x="597" 
d="M610 927l-148 -157h-89l105 157h132zM-6 79l463 519h-344l23 112h513l-17 -79l-463 -519h361l-24 -112h-529z" />
    <glyph glyph-name="zacute" unicode="&#x17a;" horiz-adv-x="488" 
d="M561 750l-199 -190h-87l146 190h140zM5 87l321 313h-251l21 100h400l-18 -88l-319 -312h261l-21 -100h-412z" />
    <glyph glyph-name="Zdotaccent" unicode="&#x17b;" horiz-adv-x="597" 
d="M378.5 798.5q-19.5 19.5 -19.5 46.5q0 28 19.5 47.5t47.5 19.5t47 -19.5t19 -47.5q0 -27 -19 -46.5t-47 -19.5t-47.5 19.5zM-6 79l463 519h-344l23 112h513l-17 -79l-463 -519h361l-24 -112h-529z" />
    <glyph glyph-name="zdotaccent" unicode="&#x17c;" horiz-adv-x="488" 
d="M286 606.5q-20 19.5 -20 46.5q0 28 20 47.5t48 19.5q27 0 46 -19.5t19 -47.5q0 -27 -19 -46.5t-46 -19.5q-28 0 -48 19.5zM5 87l321 313h-251l21 100h400l-18 -88l-319 -312h261l-21 -100h-412z" />
    <glyph glyph-name="Zcaron" unicode="&#x17d;" horiz-adv-x="597" 
d="M412 765l-153 87l23 86l141 -81l186 81l-16 -95zM-6 79l463 519h-344l23 112h513l-17 -79l-463 -519h361l-24 -112h-529z" />
    <glyph glyph-name="zcaron" unicode="&#x17e;" horiz-adv-x="488" 
d="M190 756l133 -102l202 102l-25 -100l-187 -93l-144 108zM5 87l321 313h-251l21 100h400l-18 -88l-319 -312h261l-21 -100h-412z" />
    <glyph glyph-name="uni018F" unicode="&#x18f;" horiz-adv-x="826" 
d="M217 32q-76 44 -117 119.5t-41 167.5q0 42 7 83h614q-7 94 -68 150.5t-165 56.5q-69 0 -126.5 -29t-92.5 -80h-134q46 102 140.5 162t224.5 60q102 0 179 -43.5t119 -119t42 -168.5q0 -111 -49 -203t-141 -146t-215 -54q-101 0 -177 44zM212.5 201q25.5 -45 74.5 -72.5
t118 -27.5q95 0 167 55t97 142h-487q5 -52 30.5 -97z" />
    <glyph glyph-name="Ohorn" unicode="&#x1a0;" horiz-adv-x="868" 
d="M219 32q-76 44 -116.5 119.5t-40.5 167.5q0 111 49 203t141 146t215 54q76 0 138 -25.5t107 -71.5q40 2 65.5 20t37.5 65h73q-13 -60 -46.5 -97.5t-81.5 -53.5q41 -74 41 -168q0 -111 -49 -203t-141 -146t-215 -54q-101 0 -177 44zM239.5 164q59.5 -63 168.5 -63
q77 0 140 37t99.5 101t36.5 141q0 103 -60 166t-169 63q-77 0 -140 -37t-99 -101t-36 -141q0 -103 59.5 -166z" />
    <glyph glyph-name="ohorn" unicode="&#x1a1;" horiz-adv-x="603" 
d="M150.5 22.5q-54.5 33.5 -82.5 88.5t-28 119q0 77 35 141t99 101.5t148 37.5q66 0 115.5 -24.5t80.5 -67.5q28 6 47 25t29 57h73q-12 -56 -42.5 -93t-74.5 -54q13 -38 13 -83q0 -77 -35 -141.5t-99 -102t-148 -37.5q-76 0 -130.5 33.5zM189.5 131.5
q37.5 -39.5 100.5 -39.5q46 0 83 22.5t58 61t21 85.5q0 68 -38 107.5t-101 39.5q-46 0 -82.5 -22.5t-57.5 -61t-21 -85.5q0 -68 37.5 -107.5z" />
    <glyph glyph-name="Uhorn" unicode="&#x1af;" horiz-adv-x="793" 
d="M537 59.5q-77 -71.5 -215 -71.5q-73 0 -129.5 28.5t-88 81t-31.5 120.5q0 30 8 68l90 424h117l-91 -430q-6 -28 -6 -52q0 -63 38 -95t103 -32q76 0 125.5 44t68.5 130l92 435h118l-17 -80q56 12 73 81h73q-15 -70 -58 -110t-104 -49l-58 -274q-31 -147 -108 -218.5z" />
    <glyph glyph-name="uhorn" unicode="&#x1b0;" horiz-adv-x="613" 
d="M96.5 39q-43.5 49 -43.5 124q0 26 6 53l61 284h110l-60 -283q-4 -19 -4 -38q0 -41 22 -64.5t61 -23.5q55 0 94 38.5t54 111.5l55 259h110l-17 -82q28 6 47 25t29 57h73q-15 -71 -59 -111t-107 -49l-72 -340h-110l12 59q-26 -34 -63.5 -51.5t-81.5 -17.5q-73 0 -116.5 49z
" />
    <glyph glyph-name="uni0218" unicode="&#x218;" horiz-adv-x="572" 
d="M137 19q-58 31 -87.5 81t-30.5 104h117q7 -48 47.5 -77.5t96.5 -29.5q48 0 81 27t33 65q0 40 -23.5 65.5t-75.5 48.5l-41 18q-65 29 -105 77t-40 117q0 59 29.5 106.5t82.5 74t121 26.5q72 0 123 -30t77 -76.5t28 -96.5h-117q-7 44 -39.5 69t-78.5 25q-47 0 -77.5 -24.5
t-30.5 -60.5t20 -58t61 -41l51 -24q76 -36 115 -87t39 -122q0 -60 -28.5 -107.5t-82.5 -74t-126 -26.5q-81 0 -139 31zM200 -194q-15 9 -23.5 24t-8.5 33q0 27 20 46.5t48 19.5q27 0 46 -19.5t19 -46.5q0 -23 -17 -44l-87 -106h-52z" />
    <glyph glyph-name="uni0219" unicode="&#x219;" horiz-adv-x="475" 
d="M112 10.5q-47 20.5 -73.5 57t-26.5 84.5h113q2 -36 30.5 -55t68.5 -19q34 0 57 16t23 39t-15.5 39.5t-47.5 27.5l-59 21q-50 18 -79.5 53.5t-29.5 86.5q0 70 50.5 109.5t137.5 39.5q50 0 92 -20t66.5 -54.5t26.5 -75.5h-110q-4 30 -26.5 46t-53.5 16q-30 0 -50.5 -14.5
t-20.5 -37.5t13 -37t39 -24l53 -19q60 -22 92.5 -57t32.5 -90q0 -70 -53 -111.5t-143 -41.5q-60 0 -107 20.5zM145 -194q-15 9 -23.5 24t-8.5 33q0 27 20 46.5t48 19.5q27 0 46 -19.5t19 -46.5q0 -23 -17 -44l-87 -106h-52z" />
    <glyph glyph-name="uni021A" unicode="&#x21a;" horiz-adv-x="562" 
d="M85 598l23 112h530l-23 -112h-207l-128 -598h-117l128 598h-206zM158 -194q-15 9 -23.5 24t-8.5 33q0 27 20 46.5t48 19.5q27 0 46 -19.5t19 -46.5q0 -23 -17 -44l-87 -106h-52z" />
    <glyph glyph-name="uni021B" unicode="&#x21b;" horiz-adv-x="397" 
d="M139.5 33.5q-42.5 37.5 -42.5 105.5q0 24 6 52l45 211h-103l20 98h104l30 139h110l-30 -139h143l-21 -98h-143l-46 -219q-3 -15 -3 -28q0 -61 75 -61q29 0 53 7l-20 -98q-29 -8 -66 -8q-69 1 -111.5 38.5zM146 -194q-15 9 -23.5 24t-8.5 33q0 27 20 46.5t48 19.5
q27 0 46 -19.5t19 -46.5q0 -23 -17 -44l-87 -106h-52z" />
    <glyph glyph-name="uni0232" unicode="&#x232;" horiz-adv-x="680" 
d="M625 880l-18 -82h-331l17 82h332zM229 710l130 -299l258 299h145l-358 -411l-63 -299h-117l63 300l-182 410h124z" />
    <glyph glyph-name="uni0233" unicode="&#x233;" horiz-adv-x="556" 
d="M535 710l-18 -82h-331l17 82h332zM171 29l-114 471h111l80 -356l232 356h127l-472 -709h-123z" />
    <glyph glyph-name="uni0237" unicode="&#x237;" horiz-adv-x="266" 
d="M-122 -213l20 96q16 -4 34 -4q36 0 57.5 19t30.5 61l115 541h110l-119 -560q-18 -84 -64 -121.5t-127 -37.5q-36 0 -57 6z" />
    <glyph glyph-name="uni0259" unicode="&#x259;" horiz-adv-x="592" 
d="M160 15.5q-54 25.5 -87.5 77t-33.5 125.5q0 33 5 59h402q1 60 -35.5 98t-100.5 38q-42 0 -79.5 -17.5t-57.5 -52.5h-116q26 75 95 121t162 46q69 0 123 -29t84.5 -83t30.5 -125q0 -78 -33.5 -142.5t-96 -102.5t-146.5 -38q-62 0 -116 25.5zM190.5 112q35.5 -30 88.5 -30
q54 0 95 31t56 86h-277q2 -57 37.5 -87z" />
    <glyph glyph-name="uni02BB" unicode="&#x2bb;" horiz-adv-x="263" 
d="M313 710l-97 -152q39 -30 39 -74q0 -36 -25 -61.5t-61 -25.5t-61.5 26t-25.5 61q0 32 25 61l137 165h69z" />
    <glyph glyph-name="uni02BC" unicode="&#x2bc;" horiz-adv-x="265" 
d="M81 406l97 152q-39 30 -39 74q0 36 25 61.5t61 25.5t61.5 -26t25.5 -61q0 -32 -25 -61l-137 -165h-69z" />
    <glyph glyph-name="circumflex" unicode="&#x2c6;" 
d="M284 563l-134 101l-201 -101l25 98l187 95l145 -107z" />
    <glyph glyph-name="caron" unicode="&#x2c7;" 
d="M-4 756l133 -102l202 102l-25 -100l-187 -93l-144 108z" />
    <glyph glyph-name="breve" unicode="&#x2d8;" 
d="M64 587q-35 18 -55.5 51t-20.5 75q0 20 4 37h69q-3 -16 -3 -30q0 -41 25 -62.5t63 -21.5q42 1 71 28.5t38 85.5h69q-5 -82 -54 -131.5t-130 -49.5q-41 0 -76 18z" />
    <glyph glyph-name="dotaccent" unicode="&#x2d9;" 
d="M92 606.5q-20 19.5 -20 46.5q0 28 20 47.5t48 19.5q27 0 46 -19.5t19 -47.5q0 -27 -19 -46.5t-46 -19.5q-28 0 -48 19.5z" />
    <glyph glyph-name="ring" unicode="&#x2da;" 
d="M54.5 578.5q-35.5 35.5 -35.5 84.5t35.5 84.5t85.5 35.5q33 0 61 -16t44.5 -44t16.5 -60t-16.5 -60t-44.5 -44t-61 -16q-50 0 -85.5 35.5zM95 617.5q19 -18.5 45 -18.5q28 0 47 18.5t19 45.5t-19 46t-47 19q-26 0 -45 -19.5t-19 -45.5q0 -27 19 -45.5z" />
    <glyph glyph-name="ogonek" unicode="&#x2db;" 
d="M-96.5 -196q-25.5 23 -25.5 58q0 39 30.5 75.5t76.5 62.5h110q-57 -28 -85.5 -57t-28.5 -53q0 -13 9 -20.5t24 -7.5q14 0 29.5 5t25.5 12l-16 -74q-36 -24 -84 -24q-40 0 -65.5 23z" />
    <glyph glyph-name="tilde" unicode="&#x2dc;" 
d="M277 609.5q-34 -26.5 -78 -26.5q-21 0 -38.5 6.5t-40.5 19.5q-19 10 -28.5 14.5t-20.5 4.5q-36 0 -53 -45h-74l6 22q13 50 47 76t79 26q21 0 38.5 -6.5t40.5 -19.5q16 -9 27 -14t22 -5q35 0 53 46h74l-6 -22q-14 -50 -48 -76.5z" />
    <glyph glyph-name="hungarumlaut" unicode="&#x2dd;" 
d="M342 750l-152 -190h-78l107 190h123zM42 750h124l-152 -190h-78z" />
    <glyph glyph-name="gravecomb" unicode="&#x300;" 
d="M222 543h-78l-94 146h118z" />
    <glyph glyph-name="acutecomb" unicode="&#x301;" 
d="M138 689h118l-158 -146h-79z" />
    <glyph glyph-name="uni0302" unicode="&#x302;" 
d="M261 684l74 -139h-88l-53 81l-87 -81h-87l134 139h107z" />
    <glyph glyph-name="tildecomb" unicode="&#x303;" 
d="M312 580.5q-32 -27.5 -76 -27.5q-18 0 -32.5 5.5t-29.5 16.5l-12 9q-19 14 -34 14t-24 -9.5t-14 -33.5h-72l3 15q12 54 44.5 81.5t76.5 27.5q32 0 63 -22l12 -9q10 -7 17 -10.5t16 -3.5q15 0 24 9.5t14 33.5h71l-3 -15q-12 -54 -44 -81.5z" />
    <glyph glyph-name="uni0306" unicode="&#x306;" 
d="M78 577q-31 32 -31 80q0 15 3 30h73q-1 -4 -1 -12q0 -23 14.5 -38t45.5 -15q35 0 57 19t30 46h73q-12 -58 -60 -100t-116 -42q-57 0 -88 32z" />
    <glyph glyph-name="hookabovecomb" unicode="&#x309;" 
d="M123 592q15 14 23.5 24.5t11.5 24.5q1 3 1 9q0 13 -7.5 21t-20.5 8q-25 0 -52 -32l-35 25q25 35 58 53.5t71 18.5q36 0 57.5 -18.5t21.5 -47.5q0 -4 -2 -16q-5 -26 -19.5 -43.5t-41.5 -40.5q-3 -3 -17.5 -16.5t-25.5 -28.5l-61 14q12 21 38 45z" />
    <glyph glyph-name="uni031B" unicode="&#x31b;" 
d="M250.5 499q27.5 18 40.5 67h73q-17 -81 -71 -121.5t-129 -40.5l16 77q43 0 70.5 18z" />
    <glyph glyph-name="dotbelowcomb" unicode="&#x323;" 
d="M43 -101q18 18 44 18t44 -18t18 -44t-18 -44t-44 -18t-44 18t-18 44t18 44z" />
    <glyph glyph-name="uni0401" unicode="&#x401;" horiz-adv-x="562" 
d="M261 798.5q-20 19.5 -20 46.5q0 28 20 47.5t48 19.5q26 0 45.5 -19.5t19.5 -47.5q0 -27 -19.5 -46.5t-45.5 -19.5q-28 0 -48 19.5zM181 710h427l-23 -112h-310l-39 -182h250l-24 -112h-250l-41 -192h310l-24 -112h-427zM490.5 892.5q19.5 19.5 47.5 19.5q27 0 46.5 -19.5
t19.5 -47.5q0 -27 -19.5 -46.5t-46.5 -19.5q-28 0 -47.5 19.5t-19.5 46.5q0 28 19.5 47.5z" />
    <glyph glyph-name="uni0402" unicode="&#x402;" horiz-adv-x="759" 
d="M618 418q45 -26 71 -72.5t26 -105.5q0 -83 -35 -140t-95.5 -84.5t-135.5 -27.5q-55 0 -93 9l23 107q38 -8 79 -8q62 0 100.5 36.5t38.5 97.5q0 50 -31 76.5t-88 26.5q-67 0 -121.5 -47t-71.5 -124l-35 -162h-117l128 598h-175l23 112h512l-23 -112h-220l-50 -236
q30 40 79.5 61t109.5 21q56 0 101 -26z" />
    <glyph glyph-name="uni0403" unicode="&#x403;" horiz-adv-x="516" 
d="M600 927l-148 -157h-89l105 157h132zM181 710h410l-23 -112h-293l-127 -598h-118z" />
    <glyph glyph-name="uni0404" unicode="&#x404;" horiz-adv-x="794" 
d="M220.5 32q-76.5 44 -118 119.5t-41.5 167.5q0 111 49.5 203t141.5 146t214 54q84 0 152.5 -32.5t112 -89.5t58.5 -128h-126q-21 63 -75 100t-132 37q-95 0 -167.5 -55.5t-97.5 -143.5h346l-23 -106h-333q8 -92 67 -147.5t161 -55.5q76 0 136.5 36.5t95.5 100.5h126
q-42 -114 -137 -182t-232 -68q-101 0 -177.5 44z" />
    <glyph glyph-name="uni0405" unicode="&#x405;" horiz-adv-x="573" 
d="M137 19q-58 31 -87.5 81t-30.5 104h117q7 -48 47.5 -77.5t96.5 -29.5q48 0 81 27t33 65q0 40 -23.5 65.5t-75.5 48.5l-41 18q-65 29 -105 77t-40 117q0 59 29.5 106.5t82.5 74t121 26.5q72 0 123 -30t77 -76.5t28 -96.5h-117q-7 44 -39.5 69t-78.5 25q-47 0 -77.5 -24.5
t-30.5 -60.5t20 -58t61 -41l51 -24q76 -36 115 -87t39 -122q0 -60 -28.5 -107.5t-82.5 -74t-126 -26.5q-81 0 -139 31z" />
    <glyph glyph-name="uni0406" unicode="&#x406;" horiz-adv-x="293" 
d="M298 710l-151 -710h-117l151 710h117z" />
    <glyph glyph-name="uni0407" unicode="&#x407;" horiz-adv-x="293" 
d="M127 817q-20 20 -20 48t20 47.5t48 19.5t47.5 -19.5t19.5 -47.5t-19.5 -48t-47.5 -20t-48 20zM181 710h117l-151 -710h-117zM320 912.5q20 19.5 48 19.5t47.5 -19.5t19.5 -47.5t-19.5 -48t-47.5 -20t-48 20t-20 48t20 47.5z" />
    <glyph glyph-name="uni0408" unicode="&#x408;" horiz-adv-x="529" 
d="M540 710l-112 -527q-21 -98 -75 -146.5t-148 -48.5q-55 0 -105.5 23.5t-80.5 70.5t-24 115h116q-3 -47 26.5 -73t68.5 -26q46 0 71.5 27t37.5 80l108 505h117z" />
    <glyph glyph-name="uni0409" unicode="&#x409;" horiz-adv-x="1036" 
d="M917 60.5q-76 -60.5 -208 -60.5h-241l127 598h-267l-85 -398q-17 -80 -44 -126.5t-67.5 -66t-102.5 -19.5q-38 0 -68 7l23 108q22 -5 44 -5q40 0 63 26t38 94l105 492h502l-62 -294h115q61 0 107.5 -25t71.5 -67.5t25 -93.5q0 -109 -76 -169.5zM730 110q69 0 109 29.5
t40 81.5q0 42 -29 63.5t-82 21.5h-118l-41 -196h121z" />
    <glyph glyph-name="uni040A" unicode="&#x40a;" horiz-adv-x="1044" 
d="M298 710l-62 -294h333l63 294h117l-63 -294h110q61 0 108 -25t72 -67.5t25 -93.5q0 -109 -76.5 -169.5t-208.5 -60.5h-235l65 305h-334l-65 -305h-117l151 710h117zM737 110q69 0 109 29.5t40 81.5q0 42 -29 63.5t-82 21.5h-112l-42 -196h116z" />
    <glyph glyph-name="uni040B" unicode="&#x40b;" horiz-adv-x="761" 
d="M598 598h-220l-50 -236q34 41 81.5 61.5t105.5 20.5q57 0 101 -24.5t69 -69t25 -103.5q0 -25 -7 -62l-39 -185h-117l40 187q5 25 5 43q0 50 -30 76.5t-85 26.5q-66 0 -121.5 -48t-74.5 -138l-31 -147h-117l127 598h-174l23 112h512z" />
    <glyph glyph-name="uni040C" unicode="&#x40c;" horiz-adv-x="679" 
d="M649 927l-148 -157h-89l105 157h132zM181 710h116l-65 -307l345 307h153l-392 -351l311 -359h-144l-288 333l-71 -333h-116z" />
    <glyph glyph-name="uni040E" unicode="&#x40e;" horiz-adv-x="716" 
d="M401.5 771q-34.5 16 -55.5 46.5t-21 70.5q0 11 4 33h75q-2 -16 -2 -23q0 -38 22 -57t56 -19q39 0 67.5 26t35.5 73h77q-10 -77 -60 -121.5t-124 -44.5q-40 0 -74.5 16zM83 105q36 -6 64 -6q71 0 118 63l16 22l-164 526h125l127 -408l299 408h141l-404 -552
q-48 -66 -85.5 -102t-77.5 -52t-93 -16q-50 0 -88 10z" />
    <glyph glyph-name="uni040F" unicode="&#x40f;" horiz-adv-x="736" 
d="M226 -148l31 148h-227l151 710h118l-128 -598h325l128 598h117l-151 -710h-225l-31 -148h-108z" />
    <glyph glyph-name="uni0410" unicode="&#x410;" horiz-adv-x="730" 
d="M509 710l160 -710h-113l-41 186h-317l-120 -186h-132l461 710h102zM492 290l-58 261l-169 -261h227z" />
    <glyph glyph-name="uni0411" unicode="&#x411;" horiz-adv-x="632" 
d="M487.5 403.5q47.5 -25.5 74 -69t26.5 -96.5q0 -115 -77 -176.5t-213 -61.5h-268l151 710h448l-24 -112h-331l-35 -169h141q60 0 107.5 -25.5zM317 109q71 0 112.5 30.5t41.5 85.5q0 45 -29.5 70.5t-81.5 25.5h-145l-45 -212h147z" />
    <glyph glyph-name="uni0412" unicode="&#x412;" horiz-adv-x="634" 
d="M497 685.5q47 -24.5 71 -64.5t24 -85q0 -57 -26 -101t-74 -70q40 -19 62.5 -54.5t22.5 -86.5q0 -66 -32.5 -116.5t-95.5 -79t-153 -28.5h-266l151 710h205q64 0 111 -24.5zM310 108q71 0 111 31.5t40 81.5q0 39 -28 64.5t-79 25.5h-141l-43 -203h140zM342 411
q62 0 98 30.5t36 77.5q0 36 -26 60t-72 24h-103l-41 -192h108z" />
    <glyph glyph-name="uni0413" unicode="&#x413;" horiz-adv-x="516" 
d="M275 598l-127 -598h-118l151 710h410l-23 -112h-293z" />
    <glyph glyph-name="uni0414" unicode="&#x414;" horiz-adv-x="766" 
d="M79 0l-31 -148h-107l54 260h13q45 0 79.5 48.5t60.5 173.5l79 376h507l-127 -598h89l-54 -260h-107l31 148h-487zM489 112l104 486h-272l-58 -275q-18 -85 -36 -133t-46 -78h308z" />
    <glyph glyph-name="uni0415" unicode="&#x415;" horiz-adv-x="562" 
d="M608 710l-23 -112h-310l-39 -182h250l-24 -112h-250l-41 -192h310l-24 -112h-427l151 710h427z" />
    <glyph glyph-name="uni0416" unicode="&#x416;" horiz-adv-x="991" 
d="M348 368l-235 342h129l220 -323l68 323h118l-68 -321l338 321h150l-384 -362l265 -348h-141l-243 315l-67 -315h-118l66 313l-355 -313h-161z" />
    <glyph glyph-name="uni0417" unicode="&#x417;" horiz-adv-x="594" 
d="M190 672.5q68 49.5 158 49.5q61 0 111 -22.5t78.5 -65t28.5 -99.5q0 -55 -27 -102.5t-80 -74.5q33 -22 51.5 -59t18.5 -81q0 -73 -32 -124.5t-89 -78.5t-129 -27t-130 27t-93 74.5t-41 109.5h117q11 -50 52.5 -75.5t98.5 -25.5q60 0 95.5 34t35.5 87q0 42 -29.5 69.5
t-85.5 27.5h-76l21 100h79q60 0 94.5 28.5t34.5 77.5q0 42 -29 66.5t-77 24.5q-45 0 -78 -21t-50 -65h-118q22 96 90 145.5z" />
    <glyph glyph-name="uni0418" unicode="&#x418;" horiz-adv-x="795" 
d="M298 710l-106 -498l506 498h101l-150 -710h-117l105 498l-505 -498h-102l151 710h117z" />
    <glyph glyph-name="uni0419" unicode="&#x419;" horiz-adv-x="795" 
d="M447.5 771q-34.5 16 -55.5 46.5t-21 70.5q0 11 4 33h75q-2 -16 -2 -23q0 -38 22 -57t56 -19q39 0 67.5 26t35.5 73h77q-10 -77 -60 -121.5t-124 -44.5q-40 0 -74.5 16zM181 710h117l-106 -498l506 498h101l-150 -710h-117l105 498l-505 -498h-102z" />
    <glyph glyph-name="uni041A" unicode="&#x41a;" horiz-adv-x="679" 
d="M297 710l-65 -307l345 307h153l-392 -351l311 -359h-144l-288 333l-71 -333h-116l151 710h116z" />
    <glyph glyph-name="uni041B" unicode="&#x41b;" horiz-adv-x="736" 
d="M741 710l-151 -710h-117l127 598h-272l-85 -398q-17 -80 -44 -126.5t-67.5 -66t-102.5 -19.5q-38 0 -68 7l23 108q22 -5 44 -5q40 0 63 26t38 94l105 492h507z" />
    <glyph glyph-name="uni041C" unicode="&#x41c;" horiz-adv-x="886" 
d="M288 710l169 -351l327 351h107l-151 -710h-117l105 493l-303 -324l-168 349l-110 -518h-117l151 710h107z" />
    <glyph glyph-name="uni041D" unicode="&#x41d;" horiz-adv-x="761" 
d="M298 710l-62 -294h351l62 294h117l-151 -710h-117l65 305h-351l-65 -305h-117l151 710h117z" />
    <glyph glyph-name="uni041E" unicode="&#x41e;" horiz-adv-x="829" 
d="M219 32q-76 44 -116.5 119.5t-40.5 167.5q0 111 49 203t141 146t215 54q101 0 176.5 -44t116.5 -119.5t41 -167.5q0 -111 -49 -203t-141 -146t-215 -54q-101 0 -177 44zM239.5 164q59.5 -63 168.5 -63q77 0 140 37t99.5 101t36.5 141q0 103 -60 166t-169 63
q-77 0 -140 -37t-99 -101t-36 -141q0 -103 59.5 -166z" />
    <glyph glyph-name="uni041F" unicode="&#x41f;" horiz-adv-x="749" 
d="M273 598l-127 -598h-116l151 710h573l-151 -710h-116l127 598h-341z" />
    <glyph glyph-name="uni0420" unicode="&#x420;" horiz-adv-x="593" 
d="M500.5 682q51.5 -28 79 -75t27.5 -103q0 -72 -33 -130.5t-100 -93t-164 -34.5h-110l-53 -246h-117l151 710h199q69 0 120.5 -28zM331 355q46 0 82.5 18.5t56.5 50.5t20 71q0 45 -29 75t-87 30h-99l-53 -245h109z" />
    <glyph glyph-name="uni0421" unicode="&#x421;" horiz-adv-x="794" 
d="M220.5 32q-76.5 44 -118 119.5t-41.5 167.5q0 111 49.5 203t141.5 146t214 54q84 0 152.5 -32.5t112 -89.5t58.5 -128h-126q-21 63 -75 100t-132 37q-77 0 -140 -37t-99.5 -101t-36.5 -141q0 -103 60 -166t169 -63q76 0 136.5 36.5t95.5 100.5h126q-42 -114 -137 -182
t-232 -68q-101 0 -177.5 44z" />
    <glyph glyph-name="uni0422" unicode="&#x422;" horiz-adv-x="562" 
d="M85 598l23 112h530l-23 -112h-207l-128 -598h-117l128 598h-206z" />
    <glyph glyph-name="uni0423" unicode="&#x423;" horiz-adv-x="716" 
d="M668 710h141l-404 -552q-48 -66 -85.5 -102t-77.5 -52t-93 -16q-50 0 -88 10l22 107q36 -6 64 -6q71 0 118 63l16 22l-164 526h125l127 -408z" />
    <glyph glyph-name="uni0424" unicode="&#x424;" horiz-adv-x="889" 
d="M438 -30h-115l19 91q-87 3 -151 41t-97.5 100.5t-33.5 136.5q0 90 42 162t121 113t186 41h59l18 85h117l-18 -85q86 -3 149.5 -41t97 -100t33.5 -136q0 -90 -42 -162.5t-121.5 -113.5t-186.5 -41h-57zM229 217.5q50 -48.5 136 -48.5l80 379h-51q-59 0 -108 -25.5
t-78 -72.5t-29 -108q0 -76 50 -124.5zM531 169q59 0 108 25.5t78 72.5t29 108q0 75 -49 123t-135 50l-81 -379h50z" />
    <glyph glyph-name="uni0425" unicode="&#x425;" horiz-adv-x="677" 
d="M87 0h-143l346 365l-190 345h126l145 -262l247 262h143l-337 -360l198 -350h-127l-149 270z" />
    <glyph glyph-name="uni0426" unicode="&#x426;" horiz-adv-x="766" 
d="M643 -148h-108l31 148h-536l151 710h117l-127 -598h319l127 598h117l-127 -598h91z" />
    <glyph glyph-name="uni0427" unicode="&#x427;" horiz-adv-x="681" 
d="M409 277q-50 -23 -112 -23q-61 0 -109 25.5t-75 72t-27 108.5q0 33 7 64l39 186h117l-39 -186q-5 -21 -5 -47q0 -56 33 -83.5t93 -27.5q73 0 129 49t75 137l34 158h117l-151 -710h-117l72 339q-31 -39 -81 -62z" />
    <glyph glyph-name="uni0428" unicode="&#x428;" horiz-adv-x="985" 
d="M298 710l-127 -598h228l127 598h118l-127 -598h228l127 598h117l-150 -710h-809l151 710h117z" />
    <glyph glyph-name="uni0429" unicode="&#x429;" horiz-adv-x="1021" 
d="M30 0l151 710h117l-127 -598h228l127 598h118l-127 -598h228l127 598h117l-127 -598h91l-55 -260h-108l31 148h-791z" />
    <glyph glyph-name="uni042A" unicode="&#x42a;" horiz-adv-x="713" 
d="M408 710l-58 -271h110q66 0 113.5 -27t72.5 -72t25 -99q0 -114 -77.5 -177.5t-218.5 -63.5h-235l127 598h-184l23 112h302zM396 109q74 0 117.5 33t43.5 90q0 47 -30.5 72.5t-87.5 25.5h-112l-47 -221h116z" />
    <glyph glyph-name="uni042B" unicode="&#x42b;" horiz-adv-x="874" 
d="M463.5 412q47.5 -27 72.5 -72t25 -99q0 -114 -77.5 -177.5t-218.5 -63.5h-235l151 710h117l-58 -271h110q66 0 113.5 -27zM286 109q74 0 117.5 33t43.5 90q0 47 -30.5 72.5t-87.5 25.5h-112l-47 -221h116zM762 710h117l-151 -710h-117z" />
    <glyph glyph-name="uni042C" unicode="&#x42c;" horiz-adv-x="603" 
d="M463.5 412q47.5 -27 72.5 -72t25 -99q0 -114 -77.5 -177.5t-218.5 -63.5h-235l151 710h117l-58 -271h110q66 0 113.5 -27zM286 109q74 0 117.5 33t43.5 90q0 47 -30.5 72.5t-87.5 25.5h-112l-47 -221h116z" />
    <glyph glyph-name="uni042D" unicode="&#x42d;" horiz-adv-x="795" 
d="M580.5 555.5q-59.5 54.5 -160.5 54.5q-75 0 -135.5 -37t-96.5 -100h-126q42 114 137 181.5t232 67.5q101 0 177.5 -44t118 -119.5t41.5 -166.5q0 -111 -49 -203t-141 -146.5t-214 -54.5q-84 0 -152.5 32.5t-112.5 89.5t-59 128h126q21 -62 75 -99.5t133 -37.5
q96 0 169 56.5t97 146.5h-347l23 106h333q-9 91 -68.5 145.5z" />
    <glyph glyph-name="uni042E" unicode="&#x42e;" horiz-adv-x="1083" 
d="M298 710l-63 -296h111q19 89 71 158.5t132.5 109.5t180.5 40q96 0 170 -44t114.5 -120t40.5 -167q0 -111 -48.5 -203t-138.5 -146t-207 -54q-93 0 -165.5 42t-114 114t-45.5 161h-123l-65 -305h-118l151 710h117zM512.5 164q57.5 -63 160.5 -63q73 0 133.5 36.5t95.5 100
t35 142.5q0 103 -57.5 166t-160.5 63q-73 0 -133.5 -36.5t-95.5 -100t-35 -142.5q0 -103 57.5 -166z" />
    <glyph glyph-name="uni042F" unicode="&#x42f;" horiz-adv-x="642" 
d="M159 366q-29 46 -29 103q0 114 79 177.5t212 63.5h226l-150 -710h-118l57 269h-75l-277 -269h-153l307 297q-50 23 -79 69zM275 403.5q30 -27.5 86 -27.5h98l48 226h-103q-74 0 -116.5 -34.5t-42.5 -91.5q0 -45 30 -72.5z" />
    <glyph glyph-name="uni0430" unicode="&#x430;" horiz-adv-x="627" 
d="M140 19.5q-47 28.5 -74 79.5t-27 117q0 82 35 149.5t97.5 106t141.5 38.5q60 0 104.5 -27.5t60.5 -62.5l17 80h110l-106 -500h-110l12 54q-23 -27 -65 -45t-91 -18q-58 0 -105 28.5zM184.5 124q34.5 -36 92.5 -36q48 0 87.5 24t62.5 66t23 95q0 65 -34.5 101t-93.5 36
q-47 0 -86.5 -24t-62.5 -66t-23 -95q0 -65 34.5 -101z" />
    <glyph glyph-name="uni0431" unicode="&#x431;" horiz-adv-x="618" 
d="M168 18.5q-54 29.5 -85 84.5t-31 126q0 37 9 77l10 45q28 125 73 201t116.5 116.5t182.5 57.5l186 28l-22 -106l-159 -24q-102 -16 -158 -58t-85 -126q29 26 68.5 40t81.5 14q63 0 114 -27.5t80 -79t29 -119.5q0 -74 -35 -138t-100.5 -102.5t-153.5 -38.5
q-67 0 -121 29.5zM199.5 128.5q38.5 -36.5 98.5 -36.5q48 0 86.5 21.5t60 60t21.5 85.5q0 67 -39 102.5t-101 35.5q-48 0 -85.5 -22.5t-58.5 -61.5t-21 -87q0 -61 38.5 -97.5z" />
    <glyph glyph-name="uni0432" unicode="&#x432;" horiz-adv-x="557" 
d="M434 482q34 -18 52 -48.5t18 -65.5q0 -36 -15.5 -65.5t-45.5 -48.5q25 -16 38 -41.5t13 -56.5q0 -67 -50 -111.5t-150 -44.5h-272l106 500h227q45 0 79 -18zM298 93q42 0 64 18t22 51q0 25 -16.5 40.5t-45.5 15.5h-143l-26 -125h145zM317 298q38 0 58 16.5t20 46.5
q0 23 -16 36.5t-40 13.5h-118l-25 -113h121z" />
    <glyph glyph-name="uni0433" unicode="&#x433;" horiz-adv-x="419" 
d="M455 500l-21 -98h-217l-85 -402h-110l106 500h327z" />
    <glyph glyph-name="uni0434" unicode="&#x434;" horiz-adv-x="639" 
d="M72 130q24 32 42 115l55 255h412l-85 -402h78l-47 -223h-101l27 125h-373l-27 -125h-100l47 223h12q36 0 60 32zM386 98l64 304h-192l-36 -168q-12 -56 -23.5 -86t-29.5 -50h217z" />
    <glyph glyph-name="uni0435" unicode="&#x435;" horiz-adv-x="588" 
d="M151.5 21q-52.5 31 -82 84.5t-29.5 120.5q0 80 35 144.5t99 102t147 37.5q65 0 117.5 -27.5t82.5 -79t30 -121.5q0 -33 -5 -59h-402q1 -61 39 -98.5t97 -37.5q43 0 78.5 17.5t55.5 52.5h116q-31 -80 -96.5 -123.5t-161.5 -43.5q-68 0 -120.5 31zM436 301q-2 56 -37 86.5
t-90 30.5q-52 0 -95.5 -30.5t-58.5 -86.5h281z" />
    <glyph glyph-name="uni0436" unicode="&#x436;" horiz-adv-x="794" 
d="M249 262l-167 238h120l148 -214l45 214h110l-45 -213l227 213h136l-272 -255l199 -245h-128l-178 214l-45 -214h-110l45 212l-246 -212h-147z" />
    <glyph glyph-name="uni0437" unicode="&#x437;" horiz-adv-x="495" 
d="M78.5 31.5q-60.5 41.5 -74.5 113.5h112q9 -31 38.5 -47.5t69.5 -16.5q43 0 67.5 21.5t24.5 54.5q0 61 -74 61h-55l17 81h56q39 0 63.5 15t24.5 49q0 28 -21 43.5t-58 15.5q-34 0 -59 -15.5t-38 -45.5h-110q22 76 78 112.5t134 36.5q83 0 131 -38.5t48 -102.5
q0 -37 -19 -69t-56 -50q24 -16 36.5 -42t12.5 -60q0 -41 -23 -77.5t-69 -58.5t-111 -22q-85 0 -145.5 41.5z" />
    <glyph glyph-name="uni0438" unicode="&#x438;" horiz-adv-x="612" 
d="M238 500l-68 -321l322 321h98l-106 -500h-109l68 322l-323 -322h-98l106 500h110z" />
    <glyph glyph-name="uni0439" unicode="&#x439;" horiz-adv-x="612" 
d="M325 587q-35 18 -55.5 51t-20.5 75q0 20 4 37h77q-4 -16 -4 -33q0 -40 22.5 -60.5t58.5 -20.5q84 2 101 114h77q-5 -82 -54 -131.5t-130 -49.5q-41 0 -76 18zM128 500h110l-68 -321l322 321h98l-106 -500h-109l68 322l-323 -322h-98z" />
    <glyph glyph-name="uni043A" unicode="&#x43a;" horiz-adv-x="533" 
d="M238 500l-45 -210l235 210h139l-278 -251l206 -249h-133l-184 217l-46 -217h-110l106 500h110z" />
    <glyph glyph-name="uni043B" unicode="&#x43b;" horiz-adv-x="598" 
d="M-33 -1l20 94q24 -4 38 -4q30 0 47.5 19t28.5 69l69 323h407l-106 -500h-110l85 402h-186l-51 -237q-21 -95 -62.5 -134t-116.5 -39q-30 0 -63 7z" />
    <glyph glyph-name="uni043C" unicode="&#x43c;" horiz-adv-x="693" 
d="M132 0h-110l106 500h96l124 -227l227 227h96l-106 -500h-110l68 319l-202 -202l-119 218z" />
    <glyph glyph-name="uni043D" unicode="&#x43d;" horiz-adv-x="610" 
d="M238 500l-42 -198h241l42 198h110l-106 -500h-110l43 204h-241l-43 -204h-110l106 500h110z" />
    <glyph glyph-name="uni043E" unicode="&#x43e;" horiz-adv-x="603" 
d="M150.5 22.5q-54.5 33.5 -82.5 88.5t-28 119q0 77 35 141t99 101.5t148 37.5q76 0 130.5 -33t82.5 -87.5t28 -119.5q0 -77 -35 -141.5t-99 -102t-148 -37.5q-76 0 -130.5 33.5zM189.5 131.5q37.5 -39.5 100.5 -39.5q46 0 83 22.5t58 61t21 85.5q0 68 -38 107.5t-101 39.5
q-46 0 -82.5 -22.5t-57.5 -61t-21 -85.5q0 -68 37.5 -107.5z" />
    <glyph glyph-name="uni043F" unicode="&#x43f;" horiz-adv-x="600" 
d="M578 500l-106 -500h-110l85 402h-230l-85 -402h-110l106 500h450z" />
    <glyph glyph-name="uni0440" unicode="&#x440;" horiz-adv-x="627" 
d="M237 500l-11 -54q22 27 64 45t92 18q58 0 105 -28.5t74 -79.5t27 -117q0 -82 -35 -149.5t-97.5 -106t-141.5 -38.5q-60 0 -104.5 27.5t-61.5 62.5l-60 -289h-110l150 709h109zM211.5 126q34.5 -36 92.5 -36q48 0 87.5 24t62.5 66t23 95q0 65 -34.5 101t-93.5 36
q-47 0 -86.5 -24t-62.5 -66t-23 -95q0 -65 34.5 -101z" />
    <glyph glyph-name="uni0441" unicode="&#x441;" horiz-adv-x="590" 
d="M150.5 23q-54.5 33 -82.5 88t-28 119q0 77 35 141t99 101.5t148 37.5q99 0 161 -54.5t77 -138.5h-116q-14 43 -48 68t-82 25q-46 0 -83 -23t-58 -62t-21 -86q0 -69 37 -109.5t101 -40.5q48 0 86 26t58 68h116q-26 -88 -95 -140.5t-174 -52.5q-76 0 -130.5 33z" />
    <glyph glyph-name="uni0442" unicode="&#x442;" horiz-adv-x="448" 
d="M48 402l21 98h417l-21 -98h-158l-85 -402h-110l85 402h-149z" />
    <glyph glyph-name="uni0443" unicode="&#x443;" horiz-adv-x="556" 
d="M159.5 -162q-29.5 -30 -62.5 -43.5t-78 -13.5q-39 0 -71 9l20 94q20 -5 47 -5q29 0 53 16.5t50 56.5l52 79l-113 469h111l83 -346l228 346h127l-381 -577q-36 -55 -65.5 -85z" />
    <glyph glyph-name="uni0444" unicode="&#x444;" horiz-adv-x="755" 
d="M147.5 23.5q-51.5 31.5 -79.5 84t-28 116.5q0 81 36 146t104 102.5t159 37.5h38l51 240h110l-51 -240q69 -2 120.5 -33.5t79.5 -84t28 -116.5q0 -82 -36 -147t-103.5 -102t-159.5 -37h-38l-42 -199h-110l42 199q-69 2 -120.5 33.5zM188.5 131.5q36.5 -38.5 100.5 -41.5
l67 319h-25q-53 0 -93.5 -23t-63 -64t-22.5 -93q0 -59 36.5 -97.5zM424 90q53 0 94 23t63.5 64t22.5 93q0 59 -37 97.5t-101 41.5l-67 -319h25z" />
    <glyph glyph-name="uni0445" unicode="&#x445;" horiz-adv-x="541" 
d="M69 500h118l95 -176l169 176h135l-251 -261l141 -239h-120l-98 168l-170 -168h-137l253 249z" />
    <glyph glyph-name="uni0446" unicode="&#x446;" horiz-adv-x="634" 
d="M423 -125l26 125h-427l106 500h110l-85 -402h228l85 402h110l-85 -402h80l-48 -223h-100z" />
    <glyph glyph-name="uni0447" unicode="&#x447;" horiz-adv-x="550" 
d="M218 159q-47 0 -85 20.5t-59.5 57t-21.5 84.5q0 19 5 44l29 135h111l-28 -132q-4 -16 -4 -33q0 -39 24 -58.5t64 -19.5q45 0 85.5 32t53.5 91l26 120h110l-106 -500h-111l46 216q-47 -57 -139 -57z" />
    <glyph glyph-name="uni0448" unicode="&#x448;" horiz-adv-x="826" 
d="M238 500l-85 -402h173l85 402h110l-85 -402h174l85 402h110l-106 -500h-677l106 500h110z" />
    <glyph glyph-name="uni0449" unicode="&#x449;" horiz-adv-x="863" 
d="M651 -125l27 125h-656l106 500h110l-85 -402h173l85 402h110l-85 -402h174l85 402h110l-85 -402h79l-47 -223h-101z" />
    <glyph glyph-name="uni044A" unicode="&#x44a;" horiz-adv-x="572" 
d="M451.5 314.5q36.5 -20.5 56 -55.5t19.5 -78q0 -81 -57 -131t-161 -50h-214l85 403h-133l21 97h243l-35 -165h91q48 0 84.5 -20.5zM316 97q48 0 76 21.5t28 59.5q0 60 -74 60h-90l-30 -141h90z" />
    <glyph glyph-name="uni044B" unicode="&#x44b;" horiz-adv-x="731" 
d="M710 500l-106 -500h-110l106 500h110zM128 500h111l-35 -165h90q48 0 84.5 -20.5t56 -55.5t19.5 -78q0 -81 -57 -131t-160 -50h-215zM243 97q49 0 77 21.5t28 59.5q0 30 -19.5 45t-55.5 15h-90l-29 -141h89z" />
    <glyph glyph-name="uni044C" unicode="&#x44c;" horiz-adv-x="500" 
d="M239 500l-35 -165h90q48 0 84.5 -20.5t56 -55.5t19.5 -78q0 -81 -57 -131t-160 -50h-215l106 500h111zM243 97q49 0 77 21.5t28 59.5q0 30 -19.5 45t-55.5 15h-90l-29 -141h89z" />
    <glyph glyph-name="uni044D" unicode="&#x44d;" horiz-adv-x="589" 
d="M439.5 478q54.5 -33 82.5 -88t28 -119q0 -78 -35 -142t-99 -101.5t-148 -37.5q-99 0 -161 54.5t-76 138.5h115q14 -43 48 -67.5t82 -24.5q57 0 99.5 35t56.5 89h-206l17 80h192q-8 54 -44 85t-90 31q-48 0 -86.5 -25.5t-58.5 -67.5h-116q26 88 95.5 140.5t173.5 52.5
q76 0 130.5 -33z" />
    <glyph glyph-name="uni044E" unicode="&#x44e;" horiz-adv-x="811" 
d="M367.5 452q70.5 58 172.5 58q73 0 125.5 -33t79 -87.5t26.5 -119.5q0 -77 -34 -141.5t-96 -102t-142 -37.5q-67 0 -117.5 29t-79 78t-34.5 108h-93l-43 -204h-110l106 500h110l-42 -199h79q22 93 92.5 151zM414.5 132q35.5 -40 93.5 -40q42 0 77 22.5t55 61.5t20 85
q0 68 -35 107.5t-94 39.5q-42 0 -77 -22.5t-55 -61.5t-20 -85q0 -67 35.5 -107z" />
    <glyph glyph-name="uni044F" unicode="&#x44f;" horiz-adv-x="533" 
d="M114 257q-21 33 -21 73q0 75 53.5 122.5t154.5 47.5h211l-106 -500h-110l36 171h-55l-197 -171h-139l232 204q-38 20 -59 53zM219.5 281q20.5 -18 57.5 -18h75l30 144h-82q-51 0 -76 -21t-25 -56q0 -31 20.5 -49z" />
    <glyph glyph-name="uni0451" unicode="&#x451;" horiz-adv-x="588" 
d="M190 606.5q-20 19.5 -20 46.5q0 28 20 47.5t48 19.5q26 0 45.5 -19.5t19.5 -47.5q0 -27 -19.5 -46.5t-45.5 -19.5q-28 0 -48 19.5zM75 370.5q35 64.5 99 102t147 37.5q65 0 117.5 -27.5t82.5 -79t30 -121.5q0 -33 -5 -59h-402q1 -61 39 -98.5t97 -37.5q43 0 78.5 17.5
t55.5 52.5h116q-31 -80 -96.5 -123.5t-161.5 -43.5q-68 0 -120.5 31t-82 84.5t-29.5 120.5q0 80 35 144.5zM436 301q-2 56 -37 86.5t-90 30.5q-52 0 -95.5 -30.5t-58.5 -86.5h281zM419.5 700.5q19.5 19.5 47.5 19.5q27 0 46.5 -19.5t19.5 -47.5q0 -27 -19.5 -46.5
t-46.5 -19.5q-28 0 -47.5 19.5t-19.5 46.5q0 28 19.5 47.5z" />
    <glyph glyph-name="uni0452" unicode="&#x452;" horiz-adv-x="593" 
d="M427 318q0 44 -23 68t-64 24q-56 0 -97 -39t-57 -115l-54 -256h-110l123 582h-82l16 79h83l19 89h110l-19 -89h170l-17 -79h-170l-30 -141q28 34 69 51.5t87 17.5q74 0 117 -48.5t43 -122.5q0 -26 -6 -55l-73 -344q-18 -84 -64 -121.5t-127 -37.5q-36 0 -57 6l20 96
q16 -4 34 -4q36 0 57.5 19t30.5 61l67 319q4 20 4 40z" />
    <glyph glyph-name="uni0453" unicode="&#x453;" horiz-adv-x="419" 
d="M553 750l-199 -190h-87l146 190h140zM128 500h327l-21 -98h-217l-85 -402h-110z" />
    <glyph glyph-name="uni0454" unicode="&#x454;" horiz-adv-x="591" 
d="M150.5 23q-54.5 33 -82.5 88t-28 119q0 77 35 141t99 101.5t148 37.5q99 0 161 -54.5t77 -138.5h-116q-14 43 -48 68t-82 25q-55 0 -96.5 -32t-57.5 -83h207l-18 -80h-196q7 -58 43.5 -92t93.5 -34q48 0 86 26t58 68h116q-26 -88 -95 -140.5t-174 -52.5q-76 0 -130.5 33z
" />
    <glyph glyph-name="uni0455" unicode="&#x455;" horiz-adv-x="475" 
d="M112 10.5q-47 20.5 -73.5 57t-26.5 84.5h113q2 -36 30.5 -55t68.5 -19q34 0 57 16t23 39t-15.5 39.5t-47.5 27.5l-59 21q-50 18 -79.5 53.5t-29.5 86.5q0 70 50.5 109.5t137.5 39.5q50 0 92 -20t66.5 -54.5t26.5 -75.5h-110q-4 30 -26.5 46t-53.5 16q-30 0 -50.5 -14.5
t-20.5 -37.5t13 -37t39 -24l53 -19q60 -22 92.5 -57t32.5 -90q0 -70 -53 -111.5t-143 -41.5q-60 0 -107 20.5z" />
    <glyph glyph-name="uni0456" unicode="&#x456;" horiz-adv-x="260" 
d="M170 630.5q-22 21.5 -22 52.5q0 30 22 51.5t52 21.5q31 0 52 -21.5t21 -51.5q0 -31 -21 -52.5t-52 -21.5q-30 0 -52 21.5zM128 500h110l-106 -500h-110z" />
    <glyph glyph-name="uni0457" unicode="&#x457;" horiz-adv-x="259" 
d="M70.5 607q-19.5 20 -19.5 48t19.5 47.5t47.5 19.5t48 -19.5t20 -47.5t-20 -48t-48 -20t-47.5 20zM128 500h110l-106 -500h-110zM263.5 702.5q19.5 19.5 47.5 19.5t48 -19.5t20 -47.5t-20 -48t-48 -20t-47.5 20t-19.5 48t19.5 47.5z" />
    <glyph glyph-name="uni0458" unicode="&#x458;" horiz-adv-x="267" 
d="M177 630.5q-22 21.5 -22 52.5q0 30 22 51.5t52 21.5q31 0 52 -21.5t21 -51.5q0 -31 -21 -52.5t-52 -21.5q-30 0 -52 21.5zM-102 -117q16 -4 34 -4q36 0 57.5 19t30.5 61l115 541h110l-119 -560q-18 -84 -64 -121.5t-127 -37.5q-36 0 -57 6z" />
    <glyph glyph-name="uni0459" unicode="&#x459;" horiz-adv-x="824" 
d="M147 31q-42 -39 -117 -39q-33 0 -63 6l21 95q15 -4 36 -4q29 0 47.5 19.5t29.5 68.5l69 323h401l-42 -198h96q69 0 111 -39.5t42 -99.5q0 -74 -54 -118.5t-153 -44.5h-216l85 402h-181l-50 -237q-20 -95 -62 -134zM579 95q43 0 67.5 16.5t24.5 48.5q0 47 -66 47h-96
l-24 -112h94z" />
    <glyph glyph-name="uni045A" unicode="&#x45a;" horiz-adv-x="832" 
d="M427 302l42 198h110l-42 -198h96q69 0 111 -39.5t42 -99.5q0 -74 -54.5 -118.5t-153.5 -44.5h-215l43 204h-231l-43 -204h-110l106 500h110l-42 -198h231zM587 95q43 0 67.5 16.5t24.5 48.5q0 47 -66 47h-96l-24 -112h94z" />
    <glyph glyph-name="uni045B" unicode="&#x45b;" horiz-adv-x="593" 
d="M145 582h-82l16 79h83l19 89h110l-19 -89h170l-17 -79h-170l-30 -141q28 34 69 51.5t87 17.5q74 0 117 -48.5t43 -122.5q0 -26 -6 -55l-61 -284h-110l59 278q5 25 5 41q0 43 -23.5 67t-64.5 24q-56 0 -97 -39t-57 -115l-54 -256h-110z" />
    <glyph glyph-name="uni045C" unicode="&#x45c;" horiz-adv-x="533" 
d="M593 750l-199 -190h-87l146 190h140zM128 500h110l-45 -210l235 210h139l-278 -251l206 -249h-133l-184 217l-46 -217h-110z" />
    <glyph glyph-name="uni045E" unicode="&#x45e;" horiz-adv-x="556" 
d="M282 587q-35 18 -55.5 51t-20.5 75q0 20 4 37h77q-4 -16 -4 -33q0 -40 22.5 -60.5t58.5 -20.5q84 2 101 114h77q-5 -82 -54 -131.5t-130 -49.5q-41 0 -76 18zM-32 -116q20 -5 47 -5q29 0 53 16.5t50 56.5l52 79l-113 469h111l83 -346l228 346h127l-381 -577
q-36 -55 -65.5 -85t-62.5 -43.5t-78 -13.5q-39 0 -71 9z" />
    <glyph glyph-name="uni045F" unicode="&#x45f;" horiz-adv-x="603" 
d="M273 -125h-101l27 125h-177l106 500h110l-85 -401h234l85 401h110l-106 -500h-177z" />
    <glyph glyph-name="uni0462" unicode="&#x462;" horiz-adv-x="726" 
d="M278 626l19 84h117l-18 -84h222l-21 -101h-222l-19 -86h110q66 0 113.5 -27t72.5 -72t25 -99q0 -114 -77.5 -177.5t-218.5 -63.5h-235l112 525h-181l20 101h181zM402 109q74 0 117.5 33t43.5 90q0 47 -30.5 72.5t-87.5 25.5h-112l-47 -221h116z" />
    <glyph glyph-name="uni0463" unicode="&#x463;" horiz-adv-x="552" 
d="M175 500l53 250h110l-53 -250h186l-17 -79h-185l-18 -86h90q48 0 84.5 -20.5t56 -55.5t19.5 -78q0 -81 -57 -131t-161 -50h-214l89 421h-106l17 79h106zM290 97q48 0 76 21.5t28 59.5q0 60 -74 60h-90l-30 -141h90z" />
    <glyph glyph-name="uni0472" unicode="&#x472;" horiz-adv-x="829" 
d="M219 32q-76 44 -116.5 119.5t-40.5 167.5q0 111 49 203t141 146t215 54q101 0 176.5 -44t116.5 -119.5t41 -167.5q0 -111 -49 -203t-141 -146t-215 -54q-101 0 -177 44zM250.5 153.5q58.5 -52.5 157.5 -52.5q67 0 124 28.5t95 78.5t51 114q-32 -19 -72 -29.5t-76 -10.5
q-28 0 -54 5.5t-61 16.5q-32 10 -55.5 15.5t-47.5 5.5q-32 0 -66 -8t-64 -22q10 -89 68.5 -141.5zM258.5 418.5q40.5 10.5 75.5 10.5q33 0 57.5 -5.5t62.5 -17.5q32 -10 52.5 -15t45.5 -5q32 0 66 8t64 22q-10 88 -69 140.5t-158 52.5q-67 0 -123.5 -28.5t-94.5 -78
t-51 -112.5q32 18 72.5 28.5z" />
    <glyph glyph-name="uni0473" unicode="&#x473;" horiz-adv-x="603" 
d="M150.5 22.5q-54.5 33.5 -82.5 88.5t-28 119q0 77 35 141t99 101.5t148 37.5q76 0 130.5 -33t82.5 -87.5t28 -119.5q0 -77 -35 -141.5t-99 -102t-148 -37.5q-76 0 -130.5 33.5zM197.5 123.5q36.5 -31.5 92.5 -31.5q55 0 97.5 32.5t57.5 85.5h-291q7 -55 43.5 -86.5z
M450 287q-7 57 -43.5 89t-93.5 32q-56 0 -98 -34t-57 -87h292z" />
    <glyph glyph-name="uni0474" unicode="&#x474;" horiz-adv-x="778" 
d="M854 710l-24 -108q-25 5 -41 5q-31 0 -55.5 -17.5t-52.5 -61.5l-335 -528h-102l-147 710h116l110 -538l255 404q37 58 66 89t61 44t77 13q42 0 72 -12z" />
    <glyph glyph-name="uni0475" unicode="&#x475;" horiz-adv-x="594" 
d="M491.5 485q37.5 26 88.5 26q30 0 57 -9l-20 -95q-15 3 -26 3q-26 0 -45 -14t-41 -48l-232 -348h-98l-120 500h109l82 -360l161 248q47 71 84.5 97z" />
    <glyph glyph-name="uni0490" unicode="&#x490;" horiz-adv-x="516" 
d="M275 598l-127 -598h-118l151 710h302l30 148h108l-30 -148l-23 -112h-293z" />
    <glyph glyph-name="uni0491" unicode="&#x491;" horiz-adv-x="419" 
d="M354 500l27 125h100l-26 -125l-21 -98h-217l-85 -402h-110l106 500h226z" />
    <glyph glyph-name="uni0492" unicode="&#x492;" horiz-adv-x="541" 
d="M138 410l64 300h410l-23 -112h-293l-40 -188h171l-22 -106h-171l-65 -304h-118l65 304h-91l23 106h90z" />
    <glyph glyph-name="uni0493" unicode="&#x493;" horiz-adv-x="442" 
d="M10 212l17 80h80l44 208h327l-21 -98h-217l-23 -110h119l-18 -80h-118l-45 -212h-110l45 212h-80z" />
    <glyph glyph-name="uni0496" unicode="&#x496;" horiz-adv-x="1018" 
d="M348 368l-235 342h129l220 -323l68 323h118l-68 -321l338 321h150l-384 -362l180 -236h116l-56 -260h-108l32 148h-40l-243 315l-67 -315h-118l66 313l-355 -313h-161z" />
    <glyph glyph-name="uni0497" unicode="&#x497;" horiz-adv-x="818" 
d="M249 262l-167 238h120l148 -214l45 214h110l-45 -213l227 213h136l-272 -255l119 -147h108l-47 -223h-101l27 125h-35l-178 214l-45 -214h-110l45 212l-246 -212h-147z" />
    <glyph glyph-name="uni049A" unicode="&#x49a;" horiz-adv-x="708" 
d="M297 710l-65 -307l345 307h153l-392 -351l214 -247h125l-56 -260h-108l32 148h-40l-288 333l-71 -333h-116l151 710h116z" />
    <glyph glyph-name="uni049B" unicode="&#x49b;" horiz-adv-x="556" 
d="M238 500l-45 -210l235 210h139l-278 -251l125 -151h106l-47 -223h-101l27 125h-37l-184 217l-46 -217h-110l106 500h110z" />
    <glyph glyph-name="uni04A2" unicode="&#x4a2;" horiz-adv-x="798" 
d="M298 710l-62 -294h351l62 294h117l-127 -598h91l-56 -260h-108l32 148h-100l65 305h-351l-65 -305h-117l151 710h117z" />
    <glyph glyph-name="uni04A3" unicode="&#x4a3;" horiz-adv-x="643" 
d="M238 500l-42 -198h241l42 198h110l-85 -402h72l-47 -223h-101l27 125h-82l43 204h-241l-43 -204h-110l106 500h110z" />
    <glyph glyph-name="uni04AE" unicode="&#x4ae;" horiz-adv-x="680" 
d="M105 710h124l130 -299l258 299h145l-358 -411l-63 -299h-117l63 300z" />
    <glyph glyph-name="uni04AF" unicode="&#x4af;" horiz-adv-x="558" 
d="M56 500h110l82 -363l236 363h124l-327 -499l-43 -210h-110l43 208z" />
    <glyph glyph-name="uni04B0" unicode="&#x4b0;" horiz-adv-x="673" 
d="M110 193l23 106h152v1l-182 410h124l130 -299l258 299h145l-358 -411h150l-22 -106h-150l-41 -193h-117l41 193h-153z" />
    <glyph glyph-name="uni04B1" unicode="&#x4b1;" horiz-adv-x="559" 
d="M172 0l-115 500h110l82 -363l236 363h124l-327 -499v-1h133l-17 -80h-132l-27 -129h-110l27 129h-133l17 80h132z" />
    <glyph glyph-name="uni04B2" unicode="&#x4b2;" horiz-adv-x="716" 
d="M495 0l-149 270l-259 -270h-143l346 365l-190 345h126l145 -262l247 262h143l-337 -360l135 -238h118l-56 -260h-108l32 148h-50z" />
    <glyph glyph-name="uni04B3" unicode="&#x4b3;" horiz-adv-x="567" 
d="M69 500h118l95 -176l169 176h135l-251 -261l83 -141h102l-47 -223h-101l27 125h-43l-98 168l-170 -168h-137l253 249z" />
    <glyph glyph-name="uni04B6" unicode="&#x4b6;" horiz-adv-x="718" 
d="M418 0l72 339q-31 -39 -81 -62t-112 -23q-61 0 -109 25.5t-75 72t-27 108.5q0 33 7 64l39 186h117l-39 -186q-5 -21 -5 -47q0 -56 33 -83.5t93 -27.5q73 0 129 49t75 137l34 158h117l-127 -598h91l-56 -260h-108l32 148h-100z" />
    <glyph glyph-name="uni04B7" unicode="&#x4b7;" horiz-adv-x="588" 
d="M311 0l46 216q-47 -57 -139 -57q-47 0 -85 20.5t-59.5 57t-21.5 84.5q0 19 5 44l29 135h111l-28 -132q-4 -16 -4 -33q0 -39 24 -58.5t64 -19.5q45 0 85.5 32t53.5 91l26 120h110l-85 -402h79l-47 -223h-101l27 125h-90z" />
    <glyph glyph-name="uni04BA" unicode="&#x4ba;" horiz-adv-x="682" 
d="M308 433q50 23 112 23q61 0 109 -25.5t75 -72t27 -108.5q0 -33 -7 -64l-39 -186h-117l39 186q5 21 5 47q0 56 -33 83.5t-93 27.5q-73 0 -129 -49t-75 -137l-34 -158h-117l151 710h117l-72 -339q31 39 81 62z" />
    <glyph glyph-name="uni04BB" unicode="&#x4bb;" horiz-adv-x="593" 
d="M291 750l-66 -309q28 34 69 51.5t87 17.5q74 0 117 -48.5t43 -122.5q0 -26 -6 -55l-61 -284h-110l59 278q5 25 5 41q0 43 -23.5 67t-64.5 24q-56 0 -97 -39t-57 -115l-54 -256h-110l159 750h110z" />
    <glyph glyph-name="uni04C0" unicode="&#x4c0;" horiz-adv-x="293" 
d="M298 710l-151 -710h-117l151 710h117z" />
    <glyph glyph-name="uni04CF" unicode="&#x4cf;" horiz-adv-x="259" 
d="M291 750l-159 -750h-110l159 750h110z" />
    <glyph glyph-name="uni04D8" unicode="&#x4d8;" horiz-adv-x="826" 
d="M217 32q-76 44 -117 119.5t-41 167.5q0 42 7 83h614q-7 94 -68 150.5t-165 56.5q-69 0 -126.5 -29t-92.5 -80h-134q46 102 140.5 162t224.5 60q102 0 179 -43.5t119 -119t42 -168.5q0 -111 -49 -203t-141 -146t-215 -54q-101 0 -177 44zM212.5 201q25.5 -45 74.5 -72.5
t118 -27.5q95 0 167 55t97 142h-487q5 -52 30.5 -97z" />
    <glyph glyph-name="uni04D9" unicode="&#x4d9;" horiz-adv-x="593" 
d="M160 15.5q-54 25.5 -87.5 77t-33.5 125.5q0 33 5 59h402q1 60 -35.5 98t-100.5 38q-42 0 -79.5 -17.5t-57.5 -52.5h-116q26 75 95 121t162 46q69 0 123 -29t84.5 -83t30.5 -125q0 -78 -33.5 -142.5t-96 -102.5t-146.5 -38q-62 0 -116 25.5zM190.5 112q35.5 -30 88.5 -30
q54 0 95 31t56 86h-277q2 -57 37.5 -87z" />
    <glyph glyph-name="uni04E2" unicode="&#x4e2;" horiz-adv-x="795" 
d="M701 880l-18 -82h-331l17 82h332zM181 710h117l-106 -498l506 498h101l-150 -710h-117l105 498l-505 -498h-102z" />
    <glyph glyph-name="uni04E3" unicode="&#x4e3;" horiz-adv-x="612" 
d="M578 710l-18 -82h-331l17 82h332zM128 500h110l-68 -321l322 321h98l-106 -500h-109l68 322l-323 -322h-98z" />
    <glyph glyph-name="uni04E8" unicode="&#x4e8;" horiz-adv-x="829" 
d="M219 32q-76 44 -116.5 119.5t-40.5 167.5q0 111 49 203t141 146t215 54q101 0 176.5 -44t116.5 -119.5t41 -167.5q0 -111 -49 -203t-141 -146t-215 -54q-101 0 -177 44zM248.5 155.5q58.5 -54.5 159.5 -54.5q95 0 168 56t98 145h-493q9 -92 67.5 -146.5zM683 408
q-9 91 -68 146t-160 55q-96 0 -168.5 -56t-96.5 -145h493z" />
    <glyph glyph-name="uni04E9" unicode="&#x4e9;" horiz-adv-x="603" 
d="M150.5 22.5q-54.5 33.5 -82.5 88.5t-28 119q0 77 35 141t99 101.5t148 37.5q76 0 130.5 -33t82.5 -87.5t28 -119.5q0 -77 -35 -141.5t-99 -102t-148 -37.5q-76 0 -130.5 33.5zM197.5 123.5q36.5 -31.5 92.5 -31.5q55 0 97.5 32.5t57.5 85.5h-291q7 -55 43.5 -86.5z
M450 287q-7 57 -43.5 89t-93.5 32q-56 0 -98 -34t-57 -87h292z" />
    <glyph glyph-name="uni04EE" unicode="&#x4ee;" horiz-adv-x="716" 
d="M656 880l-18 -82h-331l17 82h332zM83 105q36 -6 64 -6q71 0 118 63l16 22l-164 526h125l127 -408l299 408h141l-404 -552q-48 -66 -85.5 -102t-77.5 -52t-93 -16q-50 0 -88 10z" />
    <glyph glyph-name="uni04EF" unicode="&#x4ef;" horiz-adv-x="556" 
d="M535 710l-18 -82h-331l17 82h332zM-32 -116q20 -5 47 -5q29 0 53 16.5t50 56.5l52 79l-113 469h111l83 -346l228 346h127l-381 -577q-36 -55 -65.5 -85t-62.5 -43.5t-78 -13.5q-39 0 -71 9z" />
    <glyph glyph-name="Wgrave" unicode="&#x1e80;" horiz-adv-x="956" 
d="M437 927h127l46 -157h-81zM234 710l20 -508l318 520l89 -524l237 512h129l-334 -710h-108l-70 427l-261 -427h-108l-32 710h120z" />
    <glyph glyph-name="wgrave" unicode="&#x1e81;" horiz-adv-x="779" 
d="M348 750h120l19 -190h-73zM171 500l36 -346l190 346h85l39 -342l180 342h123l-274 -500h-104l-39 322l-180 -322h-104l-62 500h110z" />
    <glyph glyph-name="Wacute" unicode="&#x1e82;" horiz-adv-x="956" 
d="M781 927l-148 -157h-89l105 157h132zM234 710l20 -508l318 520l89 -524l237 512h129l-334 -710h-108l-70 427l-261 -427h-108l-32 710h120z" />
    <glyph glyph-name="wacute" unicode="&#x1e83;" horiz-adv-x="779" 
d="M701 750l-199 -190h-87l146 190h140zM171 500l36 -346l190 346h85l39 -342l180 342h123l-274 -500h-104l-39 322l-180 -322h-104l-62 500h110z" />
    <glyph glyph-name="Wdieresis" unicode="&#x1e84;" horiz-adv-x="956" 
d="M434 798.5q-20 19.5 -20 46.5q0 28 20 47.5t48 19.5q26 0 45.5 -19.5t19.5 -47.5q0 -27 -19.5 -46.5t-45.5 -19.5q-28 0 -48 19.5zM234 710l20 -508l318 520l89 -524l237 512h129l-334 -710h-108l-70 427l-261 -427h-108l-32 710h120zM663.5 892.5q19.5 19.5 47.5 19.5
q27 0 46.5 -19.5t19.5 -47.5q0 -27 -19.5 -46.5t-46.5 -19.5q-28 0 -47.5 19.5t-19.5 46.5q0 28 19.5 47.5z" />
    <glyph glyph-name="wdieresis" unicode="&#x1e85;" horiz-adv-x="779" 
d="M310 606.5q-20 19.5 -20 46.5q0 28 20 47.5t48 19.5q26 0 45.5 -19.5t19.5 -47.5q0 -27 -19.5 -46.5t-45.5 -19.5q-28 0 -48 19.5zM171 500l36 -346l190 346h85l39 -342l180 342h123l-274 -500h-104l-39 322l-180 -322h-104l-62 500h110zM539.5 700.5
q19.5 19.5 47.5 19.5q27 0 46.5 -19.5t19.5 -47.5q0 -27 -19.5 -46.5t-46.5 -19.5q-28 0 -47.5 19.5t-19.5 46.5q0 28 19.5 47.5z" />
    <glyph glyph-name="uni1E9E" unicode="&#x1e9e;" horiz-adv-x="646" 
d="M642 710l-17 -79l-158 -191q61 -17 95.5 -65.5t34.5 -108.5q0 -125 -80.5 -195.5t-218.5 -70.5h-56l23 112h44q73 0 120 38t47 105q0 47 -32 75.5t-83 28.5h-43l18 84l133 160h-194l-128 -603h-117l151 710h461z" />
    <glyph glyph-name="uni1EA0" unicode="&#x1ea0;" horiz-adv-x="730" 
d="M509 710l160 -710h-113l-41 186h-317l-120 -186h-132l461 710h102zM492 290l-58 261l-169 -261h227zM268 -101q18 18 44 18t44 -18t18 -44t-18 -44t-44 -18t-44 18t-18 44t18 44z" />
    <glyph glyph-name="uni1EA1" unicode="&#x1ea1;" horiz-adv-x="627" 
d="M140 19.5q-47 28.5 -74 79.5t-27 117q0 82 35 149.5t97.5 106t141.5 38.5q60 0 104.5 -27.5t60.5 -62.5l17 80h110l-106 -500h-110l12 54q-23 -27 -65 -45t-91 -18q-58 0 -105 28.5zM184.5 124q34.5 -36 92.5 -36q48 0 87.5 24t62.5 66t23 95q0 65 -34.5 101t-93.5 36
q-47 0 -86.5 -24t-62.5 -66t-23 -95q0 -65 34.5 -101zM217 -101q18 18 44 18t44 -18t18 -44t-18 -44t-44 -18t-44 18t-18 44t18 44z" />
    <glyph glyph-name="uni1EA2" unicode="&#x1ea2;" horiz-adv-x="730" 
d="M509 710l160 -710h-113l-41 186h-317l-120 -186h-132l461 710h102zM492 290l-58 261l-169 -261h227zM482 831q15 14 23.5 24.5t11.5 24.5q1 3 1 9q0 13 -7.5 21t-20.5 8q-25 0 -52 -32l-35 25q25 35 58 53.5t71 18.5q36 0 57.5 -18.5t21.5 -47.5q0 -4 -2 -16
q-5 -26 -19.5 -43.5t-41.5 -40.5q-3 -3 -17.5 -16.5t-25.5 -28.5l-61 14q12 21 38 45z" />
    <glyph glyph-name="uni1EA3" unicode="&#x1ea3;" horiz-adv-x="627" 
d="M140 19.5q-47 28.5 -74 79.5t-27 117q0 82 35 149.5t97.5 106t141.5 38.5q60 0 104.5 -27.5t60.5 -62.5l17 80h110l-106 -500h-110l12 54q-23 -27 -65 -45t-91 -18q-58 0 -105 28.5zM184.5 124q34.5 -36 92.5 -36q48 0 87.5 24t62.5 66t23 95q0 65 -34.5 101t-93.5 36
q-47 0 -86.5 -24t-62.5 -66t-23 -95q0 -65 34.5 -101zM386 621q15 14 23.5 24.5t11.5 24.5q1 3 1 9q0 13 -7.5 21t-20.5 8q-25 0 -52 -32l-35 25q25 35 58 53.5t71 18.5q36 0 57.5 -18.5t21.5 -47.5q0 -4 -2 -16q-5 -26 -19.5 -43.5t-41.5 -40.5q-3 -3 -17.5 -16.5
t-25.5 -28.5l-61 14q12 21 38 45z" />
    <glyph glyph-name="uni1EA4" unicode="&#x1ea4;" horiz-adv-x="730" 
d="M509 710l160 -710h-113l-41 186h-317l-120 -186h-132l461 710h102zM492 290l-58 261l-169 -261h227zM559 913l75 -139h-88l-53 81l-87 -81h-87l133 139h107zM748 1023h118l-157 -146h-79z" />
    <glyph glyph-name="uni1EA5" unicode="&#x1ea5;" horiz-adv-x="627" 
d="M140 19.5q-47 28.5 -74 79.5t-27 117q0 82 35 149.5t97.5 106t141.5 38.5q60 0 104.5 -27.5t60.5 -62.5l17 80h110l-106 -500h-110l12 54q-23 -27 -65 -45t-91 -18q-58 0 -105 28.5zM184.5 124q34.5 -36 92.5 -36q48 0 87.5 24t62.5 66t23 95q0 65 -34.5 101t-93.5 36
q-47 0 -86.5 -24t-62.5 -66t-23 -95q0 -65 34.5 -101zM463 703l75 -139h-88l-53 81l-87 -81h-87l133 139h107zM652 813h118l-157 -146h-79z" />
    <glyph glyph-name="uni1EA6" unicode="&#x1ea6;" horiz-adv-x="730" 
d="M509 710l160 -710h-113l-41 186h-317l-120 -186h-132l461 710h102zM492 290l-58 261l-169 -261h227zM559 913l75 -139h-88l-53 81l-87 -81h-87l133 139h107zM682 1041l55 -146h-78l-95 146h118z" />
    <glyph glyph-name="uni1EA7" unicode="&#x1ea7;" horiz-adv-x="627" 
d="M140 19.5q-47 28.5 -74 79.5t-27 117q0 82 35 149.5t97.5 106t141.5 38.5q60 0 104.5 -27.5t60.5 -62.5l17 80h110l-106 -500h-110l12 54q-23 -27 -65 -45t-91 -18q-58 0 -105 28.5zM184.5 124q34.5 -36 92.5 -36q48 0 87.5 24t62.5 66t23 95q0 65 -34.5 101t-93.5 36
q-47 0 -86.5 -24t-62.5 -66t-23 -95q0 -65 34.5 -101zM463 703l75 -139h-88l-53 81l-87 -81h-87l133 139h107zM586 831l55 -146h-78l-95 146h118z" />
    <glyph glyph-name="uni1EA8" unicode="&#x1ea8;" horiz-adv-x="730" 
d="M509 710l160 -710h-113l-41 186h-317l-120 -186h-132l461 710h102zM492 290l-58 261l-169 -261h227zM559 913l75 -139h-88l-53 81l-87 -81h-87l133 139h107zM659 1050.5q33 18.5 71 18.5q36 0 57.5 -18.5t21.5 -47.5q0 -4 -2 -16q-5 -26 -19.5 -43.5t-41.5 -40.5
q-3 -3 -17.5 -16.5t-25.5 -28.5l-62 14q13 21 39 45q18 17 26.5 29t8.5 30q0 13 -7 20.5t-20 7.5q-25 0 -52 -32l-35 25q25 35 58 53.5z" />
    <glyph glyph-name="uni1EA9" unicode="&#x1ea9;" horiz-adv-x="627" 
d="M140 19.5q-47 28.5 -74 79.5t-27 117q0 82 35 149.5t97.5 106t141.5 38.5q60 0 104.5 -27.5t60.5 -62.5l17 80h110l-106 -500h-110l12 54q-23 -27 -65 -45t-91 -18q-58 0 -105 28.5zM184.5 124q34.5 -36 92.5 -36q48 0 87.5 24t62.5 66t23 95q0 65 -34.5 101t-93.5 36
q-47 0 -86.5 -24t-62.5 -66t-23 -95q0 -65 34.5 -101zM463 703l75 -139h-88l-53 81l-87 -81h-87l133 139h107zM563 840.5q33 18.5 71 18.5q36 0 57.5 -18.5t21.5 -47.5q0 -4 -2 -16q-5 -26 -19.5 -43.5t-41.5 -40.5q-3 -3 -17.5 -16.5t-25.5 -28.5l-62 14q13 21 39 45
q18 17 26.5 29t8.5 30q0 13 -7 20.5t-20 7.5q-25 0 -52 -32l-35 25q25 35 58 53.5z" />
    <glyph glyph-name="uni1EAA" unicode="&#x1eaa;" horiz-adv-x="730" 
d="M509 710l160 -710h-113l-41 186h-317l-120 -186h-132l461 710h102zM492 290l-58 261l-169 -261h227zM559 913l74 -139h-88l-52 81l-88 -81h-87l134 139h107zM365 962q12 54 45 81.5t77 27.5q19 0 33 -5.5t29 -16.5l12 -9q10 -7 17 -10.5t16 -3.5q15 0 24 9.5t14 33.5h71
l-3 -15q-12 -54 -44 -81.5t-76 -27.5q-18 0 -32.5 5.5t-29.5 16.5l-12 9q-19 14 -34 14t-24 -9.5t-14 -33.5h-72z" />
    <glyph glyph-name="uni1EAB" unicode="&#x1eab;" horiz-adv-x="627" 
d="M140 19.5q-47 28.5 -74 79.5t-27 117q0 82 35 149.5t97.5 106t141.5 38.5q60 0 104.5 -27.5t60.5 -62.5l17 80h110l-106 -500h-110l12 54q-23 -27 -65 -45t-91 -18q-58 0 -105 28.5zM184.5 124q34.5 -36 92.5 -36q48 0 87.5 24t62.5 66t23 95q0 65 -34.5 101t-93.5 36
q-47 0 -86.5 -24t-62.5 -66t-23 -95q0 -65 34.5 -101zM463 703l74 -139h-88l-52 81l-88 -81h-87l134 139h107zM269 752q12 54 45 81.5t77 27.5q19 0 33 -5.5t29 -16.5l12 -9q10 -7 17 -10.5t16 -3.5q15 0 24 9.5t14 33.5h71l-3 -15q-12 -54 -44 -81.5t-76 -27.5
q-18 0 -32.5 5.5t-29.5 16.5l-12 9q-19 14 -34 14t-24 -9.5t-14 -33.5h-72z" />
    <glyph glyph-name="uni1EAC" unicode="&#x1eac;" horiz-adv-x="730" 
d="M509 710l160 -710h-113l-41 186h-317l-120 -186h-132l461 710h102zM492 290l-58 261l-169 -261h227zM268 -101q18 18 44 18t44 -18t18 -44t-18 -44t-44 -18t-44 18t-18 44t18 44zM559 913l74 -139h-88l-53 81l-87 -81h-87l134 139h107z" />
    <glyph glyph-name="uni1EAD" unicode="&#x1ead;" horiz-adv-x="627" 
d="M140 19.5q-47 28.5 -74 79.5t-27 117q0 82 35 149.5t97.5 106t141.5 38.5q60 0 104.5 -27.5t60.5 -62.5l17 80h110l-106 -500h-110l12 54q-23 -27 -65 -45t-91 -18q-58 0 -105 28.5zM184.5 124q34.5 -36 92.5 -36q48 0 87.5 24t62.5 66t23 95q0 65 -34.5 101t-93.5 36
q-47 0 -86.5 -24t-62.5 -66t-23 -95q0 -65 34.5 -101zM217 -101q18 18 44 18t44 -18t18 -44t-18 -44t-44 -18t-44 18t-18 44t18 44zM463 703l74 -139h-88l-53 81l-87 -81h-87l134 139h107z" />
    <glyph glyph-name="uni1EAE" unicode="&#x1eae;" horiz-adv-x="730" 
d="M509 710l160 -710h-113l-41 186h-317l-120 -186h-132l461 710h102zM492 290l-58 261l-169 -261h227zM389 806q-31 32 -31 80q0 15 3 30h73q-1 -4 -1 -13q0 -22 14.5 -37t45.5 -15q35 0 56.5 19t30.5 46h73q-12 -58 -60 -100t-116 -42q-57 0 -88 32zM590 1124h118
l-157 -146h-79z" />
    <glyph glyph-name="uni1EAF" unicode="&#x1eaf;" horiz-adv-x="627" 
d="M140 19.5q-47 28.5 -74 79.5t-27 117q0 82 35 149.5t97.5 106t141.5 38.5q60 0 104.5 -27.5t60.5 -62.5l17 80h110l-106 -500h-110l12 54q-23 -27 -65 -45t-91 -18q-58 0 -105 28.5zM184.5 124q34.5 -36 92.5 -36q48 0 87.5 24t62.5 66t23 95q0 65 -34.5 101t-93.5 36
q-47 0 -86.5 -24t-62.5 -66t-23 -95q0 -65 34.5 -101zM293 596q-31 32 -31 80q0 15 3 30h73q-1 -4 -1 -13q0 -22 14.5 -37t45.5 -15q35 0 56.5 19t30.5 46h73q-12 -58 -60 -100t-116 -42q-57 0 -88 32zM494 914h118l-157 -146h-79z" />
    <glyph glyph-name="uni1EB0" unicode="&#x1eb0;" horiz-adv-x="730" 
d="M509 710l160 -710h-113l-41 186h-317l-120 -186h-132l461 710h102zM492 290l-58 261l-169 -261h227zM389 806q-31 32 -31 80q0 15 3 30h73q-1 -4 -1 -13q0 -22 14.5 -37t45.5 -15q35 0 56.5 19t30.5 46h73q-12 -58 -60 -100t-116 -42q-57 0 -88 32zM501 1124l55 -146h-78
l-95 146h118z" />
    <glyph glyph-name="uni1EB1" unicode="&#x1eb1;" horiz-adv-x="627" 
d="M140 19.5q-47 28.5 -74 79.5t-27 117q0 82 35 149.5t97.5 106t141.5 38.5q60 0 104.5 -27.5t60.5 -62.5l17 80h110l-106 -500h-110l12 54q-23 -27 -65 -45t-91 -18q-58 0 -105 28.5zM184.5 124q34.5 -36 92.5 -36q48 0 87.5 24t62.5 66t23 95q0 65 -34.5 101t-93.5 36
q-47 0 -86.5 -24t-62.5 -66t-23 -95q0 -65 34.5 -101zM293 596q-31 32 -31 80q0 15 3 30h73q-1 -4 -1 -13q0 -22 14.5 -37t45.5 -15q35 0 56.5 19t30.5 46h73q-12 -58 -60 -100t-116 -42q-57 0 -88 32zM405 914l55 -146h-78l-95 146h118z" />
    <glyph glyph-name="uni1EB2" unicode="&#x1eb2;" horiz-adv-x="730" 
d="M509 710l160 -710h-113l-41 186h-317l-120 -186h-132l461 710h102zM492 290l-58 261l-169 -261h227zM388 806q-31 32 -31 80q0 15 3 30h73q-1 -4 -1 -12q0 -23 15 -38t46 -15q35 0 56.5 19t29.5 46h73q-12 -58 -60 -100t-116 -42q-57 0 -88 32zM496 1130.5
q33 18.5 71 18.5q35 0 56.5 -18t21.5 -47q0 -5 -2 -17q-5 -26 -19 -43t-41 -41q-33 -31 -44 -45l-61 14q11 19 39 45q14 13 22.5 24t11.5 25q1 3 1 10q0 13 -7.5 20.5t-20.5 7.5q-23 0 -52 -32l-34 25q25 35 58 53.5z" />
    <glyph glyph-name="uni1EB3" unicode="&#x1eb3;" horiz-adv-x="627" 
d="M140 19.5q-47 28.5 -74 79.5t-27 117q0 82 35 149.5t97.5 106t141.5 38.5q60 0 104.5 -27.5t60.5 -62.5l17 80h110l-106 -500h-110l12 54q-23 -27 -65 -45t-91 -18q-58 0 -105 28.5zM184.5 124q34.5 -36 92.5 -36q48 0 87.5 24t62.5 66t23 95q0 65 -34.5 101t-93.5 36
q-47 0 -86.5 -24t-62.5 -66t-23 -95q0 -65 34.5 -101zM292 596q-31 32 -31 80q0 15 3 30h73q-1 -4 -1 -12q0 -23 15 -38t46 -15q35 0 56.5 19t29.5 46h73q-12 -58 -60 -100t-116 -42q-57 0 -88 32zM400 920.5q33 18.5 71 18.5q35 0 56.5 -18t21.5 -47q0 -5 -2 -17
q-5 -26 -19 -43t-41 -41q-33 -31 -44 -45l-61 14q11 19 39 45q14 13 22.5 24t11.5 25q1 3 1 10q0 13 -7.5 20.5t-20.5 7.5q-23 0 -52 -32l-34 25q25 35 58 53.5z" />
    <glyph glyph-name="uni1EB4" unicode="&#x1eb4;" horiz-adv-x="730" 
d="M509 710l160 -710h-113l-41 186h-317l-120 -186h-132l461 710h102zM492 290l-58 261l-169 -261h227zM388 806q-31 32 -31 80q0 15 3 30h73q-1 -4 -1 -12q0 -23 15 -38t46 -15q35 0 56.5 19t29.5 46h73q-12 -58 -60 -100t-116 -42q-57 0 -88 32zM361 974q12 54 44.5 81.5
t76.5 27.5q33 0 62 -22l12 -9q8 -6 16 -10t17 -4q15 0 24.5 10t13.5 33h71l-3 -15q-12 -54 -44 -81.5t-76 -27.5q-32 0 -61 22l-12 9q-11 8 -18 11t-16 3q-15 0 -24.5 -9.5t-14.5 -33.5h-72z" />
    <glyph glyph-name="uni1EB5" unicode="&#x1eb5;" horiz-adv-x="627" 
d="M140 19.5q-47 28.5 -74 79.5t-27 117q0 82 35 149.5t97.5 106t141.5 38.5q60 0 104.5 -27.5t60.5 -62.5l17 80h110l-106 -500h-110l12 54q-23 -27 -65 -45t-91 -18q-58 0 -105 28.5zM184.5 124q34.5 -36 92.5 -36q48 0 87.5 24t62.5 66t23 95q0 65 -34.5 101t-93.5 36
q-47 0 -86.5 -24t-62.5 -66t-23 -95q0 -65 34.5 -101zM292 596q-31 32 -31 80q0 15 3 30h73q-1 -4 -1 -12q0 -23 15 -38t46 -15q35 0 56.5 19t29.5 46h73q-12 -58 -60 -100t-116 -42q-57 0 -88 32zM265 764q12 54 44.5 81.5t76.5 27.5q33 0 62 -22l12 -9q8 -6 16 -10t17 -4
q15 0 24.5 10t13.5 33h71l-3 -15q-12 -54 -44 -81.5t-76 -27.5q-32 0 -61 22l-12 9q-11 8 -18 11t-16 3q-15 0 -24.5 -9.5t-14.5 -33.5h-72z" />
    <glyph glyph-name="uni1EB6" unicode="&#x1eb6;" horiz-adv-x="730" 
d="M509 710l160 -710h-113l-41 186h-317l-120 -186h-132l461 710h102zM492 290l-58 261l-169 -261h227zM268 -101q18 18 44 18t44 -18t18 -44t-18 -44t-44 -18t-44 18t-18 44t18 44zM389 806q-31 32 -31 80q0 15 3 30h73q-1 -4 -1 -12q0 -23 14.5 -38t45.5 -15q35 0 57 19
t30 46h73q-12 -58 -60 -100t-116 -42q-57 0 -88 32z" />
    <glyph glyph-name="uni1EB7" unicode="&#x1eb7;" horiz-adv-x="627" 
d="M140 19.5q-47 28.5 -74 79.5t-27 117q0 82 35 149.5t97.5 106t141.5 38.5q60 0 104.5 -27.5t60.5 -62.5l17 80h110l-106 -500h-110l12 54q-23 -27 -65 -45t-91 -18q-58 0 -105 28.5zM184.5 124q34.5 -36 92.5 -36q48 0 87.5 24t62.5 66t23 95q0 65 -34.5 101t-93.5 36
q-47 0 -86.5 -24t-62.5 -66t-23 -95q0 -65 34.5 -101zM217 -101q18 18 44 18t44 -18t18 -44t-18 -44t-44 -18t-44 18t-18 44t18 44zM293 596q-31 32 -31 80q0 15 3 30h73q-1 -4 -1 -12q0 -23 14.5 -38t45.5 -15q35 0 57 19t30 46h73q-12 -58 -60 -100t-116 -42q-57 0 -88 32
z" />
    <glyph glyph-name="uni1EB8" unicode="&#x1eb8;" horiz-adv-x="562" 
d="M608 710l-24 -112h-310l-39 -182h250l-24 -112h-250l-41 -192h310l-23 -112h-427l151 710h427zM184 -101q18 18 44 18t44 -18t18 -44t-18 -44t-44 -18t-44 18t-18 44t18 44z" />
    <glyph glyph-name="uni1EB9" unicode="&#x1eb9;" horiz-adv-x="588" 
d="M151 21q-53 31 -82.5 84.5t-29.5 120.5q0 80 35 144.5t99 102t147 37.5q65 0 117.5 -27.5t82.5 -79t30 -121.5q0 -33 -5 -59h-401q1 -60 39 -98t96 -38q43 0 78.5 17.5t55.5 52.5h117q-32 -80 -97.5 -123.5t-160.5 -43.5q-68 0 -121 31zM436 301q-3 56 -38 86.5t-89 30.5
q-52 0 -95.5 -30.5t-58.5 -86.5h281zM197 -101q18 18 44 18t44 -18t18 -44t-18 -44t-44 -18t-44 18t-18 44t18 44z" />
    <glyph glyph-name="uni1EBA" unicode="&#x1eba;" horiz-adv-x="562" 
d="M608 710l-24 -112h-310l-39 -182h250l-24 -112h-250l-41 -192h310l-23 -112h-427l151 710h427zM398 831q15 14 23.5 24.5t11.5 24.5q1 3 1 9q0 13 -7.5 21t-20.5 8q-25 0 -52 -32l-35 25q25 35 58 53.5t71 18.5q36 0 57.5 -18.5t21.5 -47.5q0 -4 -2 -16
q-5 -26 -19.5 -43.5t-41.5 -40.5q-3 -3 -17.5 -16.5t-25.5 -28.5l-61 14q12 21 38 45z" />
    <glyph glyph-name="uni1EBB" unicode="&#x1ebb;" horiz-adv-x="588" 
d="M151 21q-53 31 -82.5 84.5t-29.5 120.5q0 80 35 144.5t99 102t147 37.5q65 0 117.5 -27.5t82.5 -79t30 -121.5q0 -33 -5 -59h-401q1 -60 39 -98t96 -38q43 0 78.5 17.5t55.5 52.5h117q-32 -80 -97.5 -123.5t-160.5 -43.5q-68 0 -121 31zM436 301q-3 56 -38 86.5t-89 30.5
q-52 0 -95.5 -30.5t-58.5 -86.5h281zM339 621q15 14 23.5 24.5t11.5 24.5q1 3 1 9q0 13 -7.5 21t-20.5 8q-25 0 -52 -32l-35 25q25 35 58 53.5t71 18.5q36 0 57.5 -18.5t21.5 -47.5q0 -4 -2 -16q-5 -26 -19.5 -43.5t-41.5 -40.5q-3 -3 -17.5 -16.5t-25.5 -28.5l-61 14
q12 21 38 45z" />
    <glyph glyph-name="uni1EBC" unicode="&#x1ebc;" horiz-adv-x="562" 
d="M608 710l-24 -112h-310l-39 -182h250l-24 -112h-250l-41 -192h310l-23 -112h-427l151 710h427zM531 809.5q-32 -27.5 -76 -27.5q-18 0 -32.5 5.5t-29.5 16.5l-12 9q-19 14 -34 14t-24 -9.5t-14 -33.5h-72l3 15q12 54 44.5 81.5t76.5 27.5q32 0 63 -22l12 -9
q10 -7 17 -10.5t16 -3.5q15 0 24 9.5t14 33.5h71l-3 -15q-12 -54 -44 -81.5z" />
    <glyph glyph-name="uni1EBD" unicode="&#x1ebd;" horiz-adv-x="588" 
d="M151 21q-53 31 -82.5 84.5t-29.5 120.5q0 80 35 144.5t99 102t147 37.5q65 0 117.5 -27.5t82.5 -79t30 -121.5q0 -33 -5 -59h-401q1 -60 39 -98t96 -38q43 0 78.5 17.5t55.5 52.5h117q-32 -80 -97.5 -123.5t-160.5 -43.5q-68 0 -121 31zM436 301q-3 56 -38 86.5t-89 30.5
q-52 0 -95.5 -30.5t-58.5 -86.5h281zM472 599.5q-32 -27.5 -76 -27.5q-18 0 -32.5 5.5t-29.5 16.5l-12 9q-19 14 -34 14t-24 -9.5t-14 -33.5h-72l3 15q12 54 44.5 81.5t76.5 27.5q32 0 63 -22l12 -9q10 -7 17 -10.5t16 -3.5q15 0 24 9.5t14 33.5h71l-3 -15
q-12 -54 -44 -81.5z" />
    <glyph glyph-name="uni1EBE" unicode="&#x1ebe;" horiz-adv-x="562" 
d="M608 710l-24 -112h-310l-39 -182h250l-24 -112h-250l-41 -192h310l-23 -112h-427l151 710h427zM475 913l75 -139h-88l-53 81l-87 -81h-87l133 139h107zM664 1023h118l-157 -146h-79z" />
    <glyph glyph-name="uni1EBF" unicode="&#x1ebf;" horiz-adv-x="588" 
d="M151 21q-53 31 -82.5 84.5t-29.5 120.5q0 80 35 144.5t99 102t147 37.5q65 0 117.5 -27.5t82.5 -79t30 -121.5q0 -33 -5 -59h-401q1 -60 39 -98t96 -38q43 0 78.5 17.5t55.5 52.5h117q-32 -80 -97.5 -123.5t-160.5 -43.5q-68 0 -121 31zM436 301q-3 56 -38 86.5t-89 30.5
q-52 0 -95.5 -30.5t-58.5 -86.5h281zM416 703l75 -139h-88l-53 81l-87 -81h-87l133 139h107zM605 813h118l-157 -146h-79z" />
    <glyph glyph-name="uni1EC0" unicode="&#x1ec0;" horiz-adv-x="562" 
d="M608 710l-24 -112h-310l-39 -182h250l-24 -112h-250l-41 -192h310l-23 -112h-427l151 710h427zM475 913l75 -139h-88l-53 81l-87 -81h-87l133 139h107zM598 1041l55 -146h-78l-95 146h118z" />
    <glyph glyph-name="uni1EC1" unicode="&#x1ec1;" horiz-adv-x="588" 
d="M151 21q-53 31 -82.5 84.5t-29.5 120.5q0 80 35 144.5t99 102t147 37.5q65 0 117.5 -27.5t82.5 -79t30 -121.5q0 -33 -5 -59h-401q1 -60 39 -98t96 -38q43 0 78.5 17.5t55.5 52.5h117q-32 -80 -97.5 -123.5t-160.5 -43.5q-68 0 -121 31zM436 301q-3 56 -38 86.5t-89 30.5
q-52 0 -95.5 -30.5t-58.5 -86.5h281zM416 703l75 -139h-88l-53 81l-87 -81h-87l133 139h107zM539 831l55 -146h-78l-95 146h118z" />
    <glyph glyph-name="uni1EC2" unicode="&#x1ec2;" horiz-adv-x="562" 
d="M608 710l-24 -112h-310l-39 -182h250l-24 -112h-250l-41 -192h310l-23 -112h-427l151 710h427zM475 913l75 -139h-88l-53 81l-87 -81h-87l133 139h107zM575 1050.5q33 18.5 71 18.5q36 0 57.5 -18.5t21.5 -47.5q0 -4 -2 -16q-5 -26 -19.5 -43.5t-41.5 -40.5
q-3 -3 -17.5 -16.5t-25.5 -28.5l-62 14q13 21 39 45q18 17 26.5 29t8.5 30q0 13 -7 20.5t-20 7.5q-25 0 -52 -32l-35 25q25 35 58 53.5z" />
    <glyph glyph-name="uni1EC3" unicode="&#x1ec3;" horiz-adv-x="588" 
d="M151 21q-53 31 -82.5 84.5t-29.5 120.5q0 80 35 144.5t99 102t147 37.5q65 0 117.5 -27.5t82.5 -79t30 -121.5q0 -33 -5 -59h-401q1 -60 39 -98t96 -38q43 0 78.5 17.5t55.5 52.5h117q-32 -80 -97.5 -123.5t-160.5 -43.5q-68 0 -121 31zM436 301q-3 56 -38 86.5t-89 30.5
q-52 0 -95.5 -30.5t-58.5 -86.5h281zM416 703l75 -139h-88l-53 81l-87 -81h-87l133 139h107zM516 840.5q33 18.5 71 18.5q36 0 57.5 -18.5t21.5 -47.5q0 -4 -2 -16q-5 -26 -19.5 -43.5t-41.5 -40.5q-3 -3 -17.5 -16.5t-25.5 -28.5l-62 14q13 21 39 45q18 17 26.5 29t8.5 30
q0 13 -7 20.5t-20 7.5q-25 0 -52 -32l-35 25q25 35 58 53.5z" />
    <glyph glyph-name="uni1EC4" unicode="&#x1ec4;" horiz-adv-x="562" 
d="M608 710l-24 -112h-310l-39 -182h250l-24 -112h-250l-41 -192h310l-23 -112h-427l151 710h427zM475 913l74 -139h-88l-52 81l-88 -81h-87l134 139h107zM281 962q12 54 45 81.5t77 27.5q19 0 33 -5.5t29 -16.5l12 -9q10 -7 17 -10.5t16 -3.5q15 0 24 9.5t14 33.5h71
l-3 -15q-12 -54 -44 -81.5t-76 -27.5q-18 0 -32.5 5.5t-29.5 16.5l-12 9q-19 14 -34 14t-24 -9.5t-14 -33.5h-72z" />
    <glyph glyph-name="uni1EC5" unicode="&#x1ec5;" horiz-adv-x="588" 
d="M151 21q-53 31 -82.5 84.5t-29.5 120.5q0 80 35 144.5t99 102t147 37.5q65 0 117.5 -27.5t82.5 -79t30 -121.5q0 -33 -5 -59h-401q1 -60 39 -98t96 -38q43 0 78.5 17.5t55.5 52.5h117q-32 -80 -97.5 -123.5t-160.5 -43.5q-68 0 -121 31zM436 301q-3 56 -38 86.5t-89 30.5
q-52 0 -95.5 -30.5t-58.5 -86.5h281zM416 703l74 -139h-88l-52 81l-88 -81h-87l134 139h107zM222 752q12 54 45 81.5t77 27.5q19 0 33 -5.5t29 -16.5l12 -9q10 -7 17 -10.5t16 -3.5q15 0 24 9.5t14 33.5h71l-3 -15q-12 -54 -44 -81.5t-76 -27.5q-18 0 -32.5 5.5t-29.5 16.5
l-12 9q-19 14 -34 14t-24 -9.5t-14 -33.5h-72z" />
    <glyph glyph-name="uni1EC6" unicode="&#x1ec6;" horiz-adv-x="562" 
d="M608 710l-24 -112h-310l-39 -182h250l-24 -112h-250l-41 -192h310l-23 -112h-427l151 710h427zM184 -101q18 18 44 18t44 -18t18 -44t-18 -44t-44 -18t-44 18t-18 44t18 44zM475 913l74 -139h-88l-53 81l-87 -81h-87l134 139h107z" />
    <glyph glyph-name="uni1EC7" unicode="&#x1ec7;" horiz-adv-x="588" 
d="M151 21q-53 31 -82.5 84.5t-29.5 120.5q0 80 35 144.5t99 102t147 37.5q65 0 117.5 -27.5t82.5 -79t30 -121.5q0 -33 -5 -59h-401q1 -60 39 -98t96 -38q43 0 78.5 17.5t55.5 52.5h117q-32 -80 -97.5 -123.5t-160.5 -43.5q-68 0 -121 31zM436 301q-3 56 -38 86.5t-89 30.5
q-52 0 -95.5 -30.5t-58.5 -86.5h281zM197 -101q18 18 44 18t44 -18t18 -44t-18 -44t-44 -18t-44 18t-18 44t18 44zM416 703l74 -139h-88l-53 81l-87 -81h-87l134 139h107z" />
    <glyph glyph-name="uni1EC8" unicode="&#x1ec8;" horiz-adv-x="292" 
d="M298 710l-151 -710h-117l151 710h117zM263 831q15 14 23.5 24.5t11.5 24.5q1 3 1 9q0 13 -7.5 21t-20.5 8q-25 0 -52 -32l-35 25q25 35 58 53.5t71 18.5q36 0 57.5 -18.5t21.5 -47.5q0 -4 -2 -16q-5 -26 -19.5 -43.5t-41.5 -40.5q-3 -3 -17.5 -16.5t-25.5 -28.5l-61 14
q12 21 38 45z" />
    <glyph glyph-name="uni1EC9" unicode="&#x1ec9;" horiz-adv-x="259" 
d="M238 500l-106 -500h-110l106 500h110zM202 621q15 14 23.5 24.5t11.5 24.5q1 3 1 9q0 13 -7.5 21t-20.5 8q-25 0 -52 -32l-35 25q25 35 58 53.5t71 18.5q36 0 57.5 -18.5t21.5 -47.5q0 -4 -2 -16q-5 -26 -19.5 -43.5t-41.5 -40.5q-3 -3 -17.5 -16.5t-25.5 -28.5l-61 14
q12 21 38 45z" />
    <glyph glyph-name="uni1ECA" unicode="&#x1eca;" horiz-adv-x="292" 
d="M298 710l-151 -710h-117l151 710h117zM49 -101q18 18 44 18t44 -18t18 -44t-18 -44t-44 -18t-44 18t-18 44t18 44z" />
    <glyph glyph-name="uni1ECB" unicode="&#x1ecb;" horiz-adv-x="259" 
d="M170.5 630.5q-21.5 21.5 -21.5 52.5q0 30 21.5 51.5t52.5 21.5q30 0 51.5 -21.5t21.5 -51.5q0 -31 -21.5 -52.5t-51.5 -21.5q-31 0 -52.5 21.5zM128 500h110l-106 -500h-110zM33 -101q18 18 44 18t44 -18t18 -44t-18 -44t-44 -18t-44 18t-18 44t18 44z" />
    <glyph glyph-name="uni1ECC" unicode="&#x1ecc;" horiz-adv-x="828" 
d="M219 32q-76 44 -116.5 119.5t-40.5 167.5q0 111 49 203t141 146t215 54q101 0 176.5 -44t116.5 -119.5t41 -167.5q0 -111 -49 -203t-141 -146t-215 -54q-101 0 -177 44zM239.5 164q59.5 -63 168.5 -63q77 0 140 37t99.5 101t36.5 141q0 103 -60 166t-169 63
q-77 0 -140 -37t-99 -101t-36 -141q0 -103 59.5 -166zM317 -101q18 18 44 18t44 -18t18 -44t-18 -44t-44 -18t-44 18t-18 44t18 44z" />
    <glyph glyph-name="uni1ECD" unicode="&#x1ecd;" horiz-adv-x="603" 
d="M150.5 22.5q-54.5 33.5 -82.5 88.5t-28 119q0 77 35 141t99 101.5t148 37.5q76 0 130.5 -33t82.5 -87.5t28 -119.5q0 -77 -35 -141.5t-99 -102t-148 -37.5q-76 0 -130.5 33.5zM189.5 131.5q37.5 -39.5 100.5 -39.5q46 0 83 22.5t58 61t21 85.5q0 68 -38 107.5t-101 39.5
q-46 0 -82.5 -22.5t-57.5 -61t-21 -85.5q0 -68 37.5 -107.5zM205 -101q18 18 44 18t44 -18t18 -44t-18 -44t-44 -18t-44 18t-18 44t18 44z" />
    <glyph glyph-name="uni1ECE" unicode="&#x1ece;" horiz-adv-x="828" 
d="M219 32q-76 44 -116.5 119.5t-40.5 167.5q0 111 49 203t141 146t215 54q101 0 176.5 -44t116.5 -119.5t41 -167.5q0 -111 -49 -203t-141 -146t-215 -54q-101 0 -177 44zM239.5 164q59.5 -63 168.5 -63q77 0 140 37t99.5 101t36.5 141q0 103 -60 166t-169 63
q-77 0 -140 -37t-99 -101t-36 -141q0 -103 59.5 -166zM486 831q15 14 23.5 24.5t11.5 24.5q1 3 1 9q0 13 -7.5 21t-20.5 8q-25 0 -52 -32l-35 25q25 35 58 53.5t71 18.5q36 0 57.5 -18.5t21.5 -47.5q0 -4 -2 -16q-5 -26 -19.5 -43.5t-41.5 -40.5q-3 -3 -17.5 -16.5
t-25.5 -28.5l-61 14q12 21 38 45z" />
    <glyph glyph-name="uni1ECF" unicode="&#x1ecf;" horiz-adv-x="603" 
d="M150.5 22.5q-54.5 33.5 -82.5 88.5t-28 119q0 77 35 141t99 101.5t148 37.5q76 0 130.5 -33t82.5 -87.5t28 -119.5q0 -77 -35 -141.5t-99 -102t-148 -37.5q-76 0 -130.5 33.5zM189.5 131.5q37.5 -39.5 100.5 -39.5q46 0 83 22.5t58 61t21 85.5q0 68 -38 107.5t-101 39.5
q-46 0 -82.5 -22.5t-57.5 -61t-21 -85.5q0 -68 37.5 -107.5zM341 621q15 14 23.5 24.5t11.5 24.5q1 3 1 9q0 13 -7.5 21t-20.5 8q-25 0 -52 -32l-35 25q25 35 58 53.5t71 18.5q36 0 57.5 -18.5t21.5 -47.5q0 -4 -2 -16q-5 -26 -19.5 -43.5t-41.5 -40.5q-3 -3 -17.5 -16.5
t-25.5 -28.5l-61 14q12 21 38 45z" />
    <glyph glyph-name="uni1ED0" unicode="&#x1ed0;" horiz-adv-x="828" 
d="M219 32q-76 44 -116.5 119.5t-40.5 167.5q0 111 49 203t141 146t215 54q101 0 176.5 -44t116.5 -119.5t41 -167.5q0 -111 -49 -203t-141 -146t-215 -54q-101 0 -177 44zM239.5 164q59.5 -63 168.5 -63q77 0 140 37t99.5 101t36.5 141q0 103 -60 166t-169 63
q-77 0 -140 -37t-99 -101t-36 -141q0 -103 59.5 -166zM563 913l75 -139h-88l-53 81l-87 -81h-87l133 139h107zM752 1023h118l-157 -146h-79z" />
    <glyph glyph-name="uni1ED1" unicode="&#x1ed1;" horiz-adv-x="603" 
d="M150.5 22.5q-54.5 33.5 -82.5 88.5t-28 119q0 77 35 141t99 101.5t148 37.5q76 0 130.5 -33t82.5 -87.5t28 -119.5q0 -77 -35 -141.5t-99 -102t-148 -37.5q-76 0 -130.5 33.5zM189.5 131.5q37.5 -39.5 100.5 -39.5q46 0 83 22.5t58 61t21 85.5q0 68 -38 107.5t-101 39.5
q-46 0 -82.5 -22.5t-57.5 -61t-21 -85.5q0 -68 37.5 -107.5zM418 703l75 -139h-88l-53 81l-87 -81h-87l133 139h107zM607 813h118l-157 -146h-79z" />
    <glyph glyph-name="uni1ED2" unicode="&#x1ed2;" horiz-adv-x="828" 
d="M219 32q-76 44 -116.5 119.5t-40.5 167.5q0 111 49 203t141 146t215 54q101 0 176.5 -44t116.5 -119.5t41 -167.5q0 -111 -49 -203t-141 -146t-215 -54q-101 0 -177 44zM239.5 164q59.5 -63 168.5 -63q77 0 140 37t99.5 101t36.5 141q0 103 -60 166t-169 63
q-77 0 -140 -37t-99 -101t-36 -141q0 -103 59.5 -166zM563 913l75 -139h-88l-53 81l-87 -81h-87l133 139h107zM686 1041l55 -146h-78l-95 146h118z" />
    <glyph glyph-name="uni1ED3" unicode="&#x1ed3;" horiz-adv-x="603" 
d="M150.5 22.5q-54.5 33.5 -82.5 88.5t-28 119q0 77 35 141t99 101.5t148 37.5q76 0 130.5 -33t82.5 -87.5t28 -119.5q0 -77 -35 -141.5t-99 -102t-148 -37.5q-76 0 -130.5 33.5zM189.5 131.5q37.5 -39.5 100.5 -39.5q46 0 83 22.5t58 61t21 85.5q0 68 -38 107.5t-101 39.5
q-46 0 -82.5 -22.5t-57.5 -61t-21 -85.5q0 -68 37.5 -107.5zM418 703l75 -139h-88l-53 81l-87 -81h-87l133 139h107zM541 831l55 -146h-78l-95 146h118z" />
    <glyph glyph-name="uni1ED4" unicode="&#x1ed4;" horiz-adv-x="828" 
d="M219 32q-76 44 -116.5 119.5t-40.5 167.5q0 111 49 203t141 146t215 54q101 0 176.5 -44t116.5 -119.5t41 -167.5q0 -111 -49 -203t-141 -146t-215 -54q-101 0 -177 44zM239.5 164q59.5 -63 168.5 -63q77 0 140 37t99.5 101t36.5 141q0 103 -60 166t-169 63
q-77 0 -140 -37t-99 -101t-36 -141q0 -103 59.5 -166zM563 913l75 -139h-88l-53 81l-87 -81h-87l133 139h107zM663 1050.5q33 18.5 71 18.5q36 0 57.5 -18.5t21.5 -47.5q0 -4 -2 -16q-5 -26 -19.5 -43.5t-41.5 -40.5q-3 -3 -17.5 -16.5t-25.5 -28.5l-62 14q13 21 39 45
q18 17 26.5 29t8.5 30q0 13 -7 20.5t-20 7.5q-25 0 -52 -32l-35 25q25 35 58 53.5z" />
    <glyph glyph-name="uni1ED5" unicode="&#x1ed5;" horiz-adv-x="603" 
d="M150.5 22.5q-54.5 33.5 -82.5 88.5t-28 119q0 77 35 141t99 101.5t148 37.5q76 0 130.5 -33t82.5 -87.5t28 -119.5q0 -77 -35 -141.5t-99 -102t-148 -37.5q-76 0 -130.5 33.5zM189.5 131.5q37.5 -39.5 100.5 -39.5q46 0 83 22.5t58 61t21 85.5q0 68 -38 107.5t-101 39.5
q-46 0 -82.5 -22.5t-57.5 -61t-21 -85.5q0 -68 37.5 -107.5zM418 703l75 -139h-88l-53 81l-87 -81h-87l133 139h107zM518 840.5q33 18.5 71 18.5q36 0 57.5 -18.5t21.5 -47.5q0 -4 -2 -16q-5 -26 -19.5 -43.5t-41.5 -40.5q-3 -3 -17.5 -16.5t-25.5 -28.5l-62 14q13 21 39 45
q18 17 26.5 29t8.5 30q0 13 -7 20.5t-20 7.5q-25 0 -52 -32l-35 25q25 35 58 53.5z" />
    <glyph glyph-name="uni1ED6" unicode="&#x1ed6;" horiz-adv-x="828" 
d="M219 32q-76 44 -116.5 119.5t-40.5 167.5q0 111 49 203t141 146t215 54q101 0 176.5 -44t116.5 -119.5t41 -167.5q0 -111 -49 -203t-141 -146t-215 -54q-101 0 -177 44zM239.5 164q59.5 -63 168.5 -63q77 0 140 37t99.5 101t36.5 141q0 103 -60 166t-169 63
q-77 0 -140 -37t-99 -101t-36 -141q0 -103 59.5 -166zM563 913l74 -139h-88l-52 81l-88 -81h-87l134 139h107zM369 962q12 54 45 81.5t77 27.5q19 0 33 -5.5t29 -16.5l12 -9q10 -7 17 -10.5t16 -3.5q15 0 24 9.5t14 33.5h71l-3 -15q-12 -54 -44 -81.5t-76 -27.5
q-18 0 -32.5 5.5t-29.5 16.5l-12 9q-19 14 -34 14t-24 -9.5t-14 -33.5h-72z" />
    <glyph glyph-name="uni1ED7" unicode="&#x1ed7;" horiz-adv-x="603" 
d="M150.5 22.5q-54.5 33.5 -82.5 88.5t-28 119q0 77 35 141t99 101.5t148 37.5q76 0 130.5 -33t82.5 -87.5t28 -119.5q0 -77 -35 -141.5t-99 -102t-148 -37.5q-76 0 -130.5 33.5zM189.5 131.5q37.5 -39.5 100.5 -39.5q46 0 83 22.5t58 61t21 85.5q0 68 -38 107.5t-101 39.5
q-46 0 -82.5 -22.5t-57.5 -61t-21 -85.5q0 -68 37.5 -107.5zM418 703l74 -139h-88l-52 81l-88 -81h-87l134 139h107zM224 752q12 54 45 81.5t77 27.5q19 0 33 -5.5t29 -16.5l12 -9q10 -7 17 -10.5t16 -3.5q15 0 24 9.5t14 33.5h71l-3 -15q-12 -54 -44 -81.5t-76 -27.5
q-18 0 -32.5 5.5t-29.5 16.5l-12 9q-19 14 -34 14t-24 -9.5t-14 -33.5h-72z" />
    <glyph glyph-name="uni1ED8" unicode="&#x1ed8;" horiz-adv-x="828" 
d="M219 32q-76 44 -116.5 119.5t-40.5 167.5q0 111 49 203t141 146t215 54q101 0 176.5 -44t116.5 -119.5t41 -167.5q0 -111 -49 -203t-141 -146t-215 -54q-101 0 -177 44zM239.5 164q59.5 -63 168.5 -63q77 0 140 37t99.5 101t36.5 141q0 103 -60 166t-169 63
q-77 0 -140 -37t-99 -101t-36 -141q0 -103 59.5 -166zM317 -101q18 18 44 18t44 -18t18 -44t-18 -44t-44 -18t-44 18t-18 44t18 44zM563 913l74 -139h-88l-53 81l-87 -81h-87l134 139h107z" />
    <glyph glyph-name="uni1ED9" unicode="&#x1ed9;" horiz-adv-x="603" 
d="M150.5 22.5q-54.5 33.5 -82.5 88.5t-28 119q0 77 35 141t99 101.5t148 37.5q76 0 130.5 -33t82.5 -87.5t28 -119.5q0 -77 -35 -141.5t-99 -102t-148 -37.5q-76 0 -130.5 33.5zM189.5 131.5q37.5 -39.5 100.5 -39.5q46 0 83 22.5t58 61t21 85.5q0 68 -38 107.5t-101 39.5
q-46 0 -82.5 -22.5t-57.5 -61t-21 -85.5q0 -68 37.5 -107.5zM205 -101q18 18 44 18t44 -18t18 -44t-18 -44t-44 -18t-44 18t-18 44t18 44zM418 703l74 -139h-88l-53 81l-87 -81h-87l134 139h107z" />
    <glyph glyph-name="uni1EDA" unicode="&#x1eda;" horiz-adv-x="868" 
d="M219 32q-76 44 -116.5 119.5t-40.5 167.5q0 111 49 203t141 146t215 54q76 0 138 -25.5t107 -71.5q40 2 65.5 20t37.5 65h73q-13 -60 -46.5 -97.5t-81.5 -53.5q41 -74 41 -168q0 -111 -49 -203t-141 -146t-215 -54q-101 0 -177 44zM239.5 164q59.5 -63 168.5 -63
q77 0 140 37t99.5 101t36.5 141q0 103 -60 166t-169 63q-77 0 -140 -37t-99 -101t-36 -141q0 -103 59.5 -166zM551 918h118l-158 -146h-79z" />
    <glyph glyph-name="uni1EDB" unicode="&#x1edb;" horiz-adv-x="603" 
d="M150.5 22.5q-54.5 33.5 -82.5 88.5t-28 119q0 77 35 141t99 101.5t148 37.5q66 0 115.5 -24.5t80.5 -67.5q28 6 47 25t29 57h73q-12 -56 -42.5 -93t-74.5 -54q13 -38 13 -83q0 -77 -35 -141.5t-99 -102t-148 -37.5q-76 0 -130.5 33.5zM189.5 131.5
q37.5 -39.5 100.5 -39.5q46 0 83 22.5t58 61t21 85.5q0 68 -38 107.5t-101 39.5q-46 0 -82.5 -22.5t-57.5 -61t-21 -85.5q0 -68 37.5 -107.5zM406 708h118l-158 -146h-79z" />
    <glyph glyph-name="uni1EDC" unicode="&#x1edc;" horiz-adv-x="868" 
d="M219 32q-76 44 -116.5 119.5t-40.5 167.5q0 111 49 203t141 146t215 54q76 0 138 -25.5t107 -71.5q40 2 65.5 20t37.5 65h73q-13 -60 -46.5 -97.5t-81.5 -53.5q41 -74 41 -168q0 -111 -49 -203t-141 -146t-215 -54q-101 0 -177 44zM239.5 164q59.5 -63 168.5 -63
q77 0 140 37t99.5 101t36.5 141q0 103 -60 166t-169 63q-77 0 -140 -37t-99 -101t-36 -141q0 -103 59.5 -166zM516 772h-78l-94 146h118z" />
    <glyph glyph-name="uni1EDD" unicode="&#x1edd;" horiz-adv-x="603" 
d="M150.5 22.5q-54.5 33.5 -82.5 88.5t-28 119q0 77 35 141t99 101.5t148 37.5q66 0 115.5 -24.5t80.5 -67.5q28 6 47 25t29 57h73q-12 -56 -42.5 -93t-74.5 -54q13 -38 13 -83q0 -77 -35 -141.5t-99 -102t-148 -37.5q-76 0 -130.5 33.5zM189.5 131.5
q37.5 -39.5 100.5 -39.5q46 0 83 22.5t58 61t21 85.5q0 68 -38 107.5t-101 39.5q-46 0 -82.5 -22.5t-57.5 -61t-21 -85.5q0 -68 37.5 -107.5zM371 562h-78l-94 146h118z" />
    <glyph glyph-name="uni1EDE" unicode="&#x1ede;" horiz-adv-x="868" 
d="M219 32q-76 44 -116.5 119.5t-40.5 167.5q0 111 49 203t141 146t215 54q76 0 138 -25.5t107 -71.5q40 2 65.5 20t37.5 65h73q-13 -60 -46.5 -97.5t-81.5 -53.5q41 -74 41 -168q0 -111 -49 -203t-141 -146t-215 -54q-101 0 -177 44zM239.5 164q59.5 -63 168.5 -63
q77 0 140 37t99.5 101t36.5 141q0 103 -60 166t-169 63q-77 0 -140 -37t-99 -101t-36 -141q0 -103 59.5 -166zM486 831q15 14 23.5 24.5t11.5 24.5q1 3 1 9q0 13 -7.5 21t-20.5 8q-25 0 -52 -32l-35 25q25 35 58 53.5t71 18.5q36 0 57.5 -18.5t21.5 -47.5q0 -4 -2 -16
q-5 -26 -19.5 -43.5t-41.5 -40.5q-3 -3 -17.5 -16.5t-25.5 -28.5l-61 14q12 21 38 45z" />
    <glyph glyph-name="uni1EDF" unicode="&#x1edf;" horiz-adv-x="603" 
d="M150.5 22.5q-54.5 33.5 -82.5 88.5t-28 119q0 77 35 141t99 101.5t148 37.5q66 0 115.5 -24.5t80.5 -67.5q28 6 47 25t29 57h73q-12 -56 -42.5 -93t-74.5 -54q13 -38 13 -83q0 -77 -35 -141.5t-99 -102t-148 -37.5q-76 0 -130.5 33.5zM189.5 131.5
q37.5 -39.5 100.5 -39.5q46 0 83 22.5t58 61t21 85.5q0 68 -38 107.5t-101 39.5q-46 0 -82.5 -22.5t-57.5 -61t-21 -85.5q0 -68 37.5 -107.5zM341 621q15 14 23.5 24.5t11.5 24.5q1 3 1 9q0 13 -7.5 21t-20.5 8q-25 0 -52 -32l-35 25q25 35 58 53.5t71 18.5q36 0 57.5 -18.5
t21.5 -47.5q0 -4 -2 -16q-5 -26 -19.5 -43.5t-41.5 -40.5q-3 -3 -17.5 -16.5t-25.5 -28.5l-61 14q12 21 38 45z" />
    <glyph glyph-name="uni1EE0" unicode="&#x1ee0;" horiz-adv-x="868" 
d="M219 32q-76 44 -116.5 119.5t-40.5 167.5q0 111 49 203t141 146t215 54q76 0 138 -25.5t107 -71.5q40 2 65.5 20t37.5 65h73q-13 -60 -46.5 -97.5t-81.5 -53.5q41 -74 41 -168q0 -111 -49 -203t-141 -146t-215 -54q-101 0 -177 44zM239.5 164q59.5 -63 168.5 -63
q77 0 140 37t99.5 101t36.5 141q0 103 -60 166t-169 63q-77 0 -140 -37t-99 -101t-36 -141q0 -103 59.5 -166zM619 809.5q-32 -27.5 -76 -27.5q-18 0 -32.5 5.5t-29.5 16.5l-12 9q-19 14 -34 14t-24 -9.5t-14 -33.5h-72l3 15q12 54 44.5 81.5t76.5 27.5q32 0 63 -22l12 -9
q10 -7 17 -10.5t16 -3.5q15 0 24 9.5t14 33.5h71l-3 -15q-12 -54 -44 -81.5z" />
    <glyph glyph-name="uni1EE1" unicode="&#x1ee1;" horiz-adv-x="603" 
d="M150.5 22.5q-54.5 33.5 -82.5 88.5t-28 119q0 77 35 141t99 101.5t148 37.5q66 0 115.5 -24.5t80.5 -67.5q28 6 47 25t29 57h73q-12 -56 -42.5 -93t-74.5 -54q13 -38 13 -83q0 -77 -35 -141.5t-99 -102t-148 -37.5q-76 0 -130.5 33.5zM189.5 131.5
q37.5 -39.5 100.5 -39.5q46 0 83 22.5t58 61t21 85.5q0 68 -38 107.5t-101 39.5q-46 0 -82.5 -22.5t-57.5 -61t-21 -85.5q0 -68 37.5 -107.5zM474 599.5q-32 -27.5 -76 -27.5q-18 0 -32.5 5.5t-29.5 16.5l-12 9q-19 14 -34 14t-24 -9.5t-14 -33.5h-72l3 15q12 54 44.5 81.5
t76.5 27.5q32 0 63 -22l12 -9q10 -7 17 -10.5t16 -3.5q15 0 24 9.5t14 33.5h71l-3 -15q-12 -54 -44 -81.5z" />
    <glyph glyph-name="uni1EE2" unicode="&#x1ee2;" horiz-adv-x="868" 
d="M219 32q-76 44 -116.5 119.5t-40.5 167.5q0 111 49 203t141 146t215 54q76 0 138 -25.5t107 -71.5q40 2 65.5 20t37.5 65h73q-13 -60 -46.5 -97.5t-81.5 -53.5q41 -74 41 -168q0 -111 -49 -203t-141 -146t-215 -54q-101 0 -177 44zM239.5 164q59.5 -63 168.5 -63
q77 0 140 37t99.5 101t36.5 141q0 103 -60 166t-169 63q-77 0 -140 -37t-99 -101t-36 -141q0 -103 59.5 -166zM317 -101q18 18 44 18t44 -18t18 -44t-18 -44t-44 -18t-44 18t-18 44t18 44z" />
    <glyph glyph-name="uni1EE3" unicode="&#x1ee3;" horiz-adv-x="603" 
d="M150.5 22.5q-54.5 33.5 -82.5 88.5t-28 119q0 77 35 141t99 101.5t148 37.5q66 0 115.5 -24.5t80.5 -67.5q28 6 47 25t29 57h73q-12 -56 -42.5 -93t-74.5 -54q13 -38 13 -83q0 -77 -35 -141.5t-99 -102t-148 -37.5q-76 0 -130.5 33.5zM189.5 131.5
q37.5 -39.5 100.5 -39.5q46 0 83 22.5t58 61t21 85.5q0 68 -38 107.5t-101 39.5q-46 0 -82.5 -22.5t-57.5 -61t-21 -85.5q0 -68 37.5 -107.5zM205 -101q18 18 44 18t44 -18t18 -44t-18 -44t-44 -18t-44 18t-18 44t18 44z" />
    <glyph glyph-name="uni1EE4" unicode="&#x1ee4;" horiz-adv-x="723" 
d="M537 59.5q-77 -71.5 -215 -71.5q-73 0 -129.5 28.5t-88 81t-31.5 120.5q0 30 8 68l90 424h117l-91 -430q-6 -28 -6 -52q0 -63 38 -95t103 -32q76 0 125.5 44t68.5 130l92 435h118l-91 -432q-31 -147 -108 -218.5zM265 -101q18 18 44 18t44 -18t18 -44t-18 -44t-44 -18
t-44 18t-18 44t18 44z" />
    <glyph glyph-name="uni1EE5" unicode="&#x1ee5;" horiz-adv-x="583" 
d="M96.5 39q-43.5 49 -43.5 124q0 26 6 53l61 284h110l-60 -283q-4 -19 -4 -38q0 -41 22 -64.5t61 -23.5q55 0 94 38.5t54 111.5l55 259h110l-106 -500h-110l12 59q-26 -34 -63.5 -51.5t-81.5 -17.5q-73 0 -116.5 49zM195 -101q18 18 44 18t44 -18t18 -44t-18 -44t-44 -18
t-44 18t-18 44t18 44z" />
    <glyph glyph-name="uni1EE6" unicode="&#x1ee6;" horiz-adv-x="723" 
d="M537 59.5q-77 -71.5 -215 -71.5q-73 0 -129.5 28.5t-88 81t-31.5 120.5q0 30 8 68l90 424h117l-91 -430q-6 -28 -6 -52q0 -63 38 -95t103 -32q76 0 125.5 44t68.5 130l92 435h118l-91 -432q-31 -147 -108 -218.5zM479 831q15 14 23.5 24.5t11.5 24.5q1 3 1 9
q0 13 -7.5 21t-20.5 8q-25 0 -52 -32l-35 25q25 35 58 53.5t71 18.5q36 0 57.5 -18.5t21.5 -47.5q0 -4 -2 -16q-5 -26 -19.5 -43.5t-41.5 -40.5q-3 -3 -17.5 -16.5t-25.5 -28.5l-61 14q12 21 38 45z" />
    <glyph glyph-name="uni1EE7" unicode="&#x1ee7;" horiz-adv-x="583" 
d="M96.5 39q-43.5 49 -43.5 124q0 26 6 53l61 284h110l-60 -283q-4 -19 -4 -38q0 -41 22 -64.5t61 -23.5q55 0 94 38.5t54 111.5l55 259h110l-106 -500h-110l12 59q-26 -34 -63.5 -51.5t-81.5 -17.5q-73 0 -116.5 49zM364 621q15 14 23.5 24.5t11.5 24.5q1 3 1 9
q0 13 -7.5 21t-20.5 8q-25 0 -52 -32l-35 25q25 35 58 53.5t71 18.5q36 0 57.5 -18.5t21.5 -47.5q0 -4 -2 -16q-5 -26 -19.5 -43.5t-41.5 -40.5q-3 -3 -17.5 -16.5t-25.5 -28.5l-61 14q12 21 38 45z" />
    <glyph glyph-name="uni1EE8" unicode="&#x1ee8;" horiz-adv-x="793" 
d="M537 59.5q-77 -71.5 -215 -71.5q-73 0 -129.5 28.5t-88 81t-31.5 120.5q0 30 8 68l90 424h117l-91 -430q-6 -28 -6 -52q0 -63 38 -95t103 -32q76 0 125.5 44t68.5 130l92 435h118l-17 -80q56 12 73 81h73q-15 -70 -58 -110t-104 -49l-58 -274q-31 -147 -108 -218.5z
M544 918h118l-158 -146h-79z" />
    <glyph glyph-name="uni1EE9" unicode="&#x1ee9;" horiz-adv-x="613" 
d="M96.5 39q-43.5 49 -43.5 124q0 26 6 53l61 284h110l-60 -283q-4 -19 -4 -38q0 -41 22 -64.5t61 -23.5q55 0 94 38.5t54 111.5l55 259h110l-17 -82q28 6 47 25t29 57h73q-15 -71 -59 -111t-107 -49l-72 -340h-110l12 59q-26 -34 -63.5 -51.5t-81.5 -17.5q-73 0 -116.5 49z
M429 708h118l-158 -146h-79z" />
    <glyph glyph-name="uni1EEA" unicode="&#x1eea;" horiz-adv-x="793" 
d="M537 59.5q-77 -71.5 -215 -71.5q-73 0 -129.5 28.5t-88 81t-31.5 120.5q0 30 8 68l90 424h117l-91 -430q-6 -28 -6 -52q0 -63 38 -95t103 -32q76 0 125.5 44t68.5 130l92 435h118l-17 -80q56 12 73 81h73q-15 -70 -58 -110t-104 -49l-58 -274q-31 -147 -108 -218.5z
M509 772h-78l-94 146h118z" />
    <glyph glyph-name="uni1EEB" unicode="&#x1eeb;" horiz-adv-x="613" 
d="M96.5 39q-43.5 49 -43.5 124q0 26 6 53l61 284h110l-60 -283q-4 -19 -4 -38q0 -41 22 -64.5t61 -23.5q55 0 94 38.5t54 111.5l55 259h110l-17 -82q28 6 47 25t29 57h73q-15 -71 -59 -111t-107 -49l-72 -340h-110l12 59q-26 -34 -63.5 -51.5t-81.5 -17.5q-73 0 -116.5 49z
M394 562h-78l-94 146h118z" />
    <glyph glyph-name="uni1EEC" unicode="&#x1eec;" horiz-adv-x="793" 
d="M537 59.5q-77 -71.5 -215 -71.5q-73 0 -129.5 28.5t-88 81t-31.5 120.5q0 30 8 68l90 424h117l-91 -430q-6 -28 -6 -52q0 -63 38 -95t103 -32q76 0 125.5 44t68.5 130l92 435h118l-17 -80q56 12 73 81h73q-15 -70 -58 -110t-104 -49l-58 -274q-31 -147 -108 -218.5z
M479 831q15 14 23.5 24.5t11.5 24.5q1 3 1 9q0 13 -7.5 21t-20.5 8q-25 0 -52 -32l-35 25q25 35 58 53.5t71 18.5q36 0 57.5 -18.5t21.5 -47.5q0 -4 -2 -16q-5 -26 -19.5 -43.5t-41.5 -40.5q-3 -3 -17.5 -16.5t-25.5 -28.5l-61 14q12 21 38 45z" />
    <glyph glyph-name="uni1EED" unicode="&#x1eed;" horiz-adv-x="613" 
d="M96.5 39q-43.5 49 -43.5 124q0 26 6 53l61 284h110l-60 -283q-4 -19 -4 -38q0 -41 22 -64.5t61 -23.5q55 0 94 38.5t54 111.5l55 259h110l-17 -82q28 6 47 25t29 57h73q-15 -71 -59 -111t-107 -49l-72 -340h-110l12 59q-26 -34 -63.5 -51.5t-81.5 -17.5q-73 0 -116.5 49z
M364 621q15 14 23.5 24.5t11.5 24.5q1 3 1 9q0 13 -7.5 21t-20.5 8q-25 0 -52 -32l-35 25q25 35 58 53.5t71 18.5q36 0 57.5 -18.5t21.5 -47.5q0 -4 -2 -16q-5 -26 -19.5 -43.5t-41.5 -40.5q-3 -3 -17.5 -16.5t-25.5 -28.5l-61 14q12 21 38 45z" />
    <glyph glyph-name="uni1EEE" unicode="&#x1eee;" horiz-adv-x="793" 
d="M537 59.5q-77 -71.5 -215 -71.5q-73 0 -129.5 28.5t-88 81t-31.5 120.5q0 30 8 68l90 424h117l-91 -430q-6 -28 -6 -52q0 -63 38 -95t103 -32q76 0 125.5 44t68.5 130l92 435h118l-17 -80q56 12 73 81h73q-15 -70 -58 -110t-104 -49l-58 -274q-31 -147 -108 -218.5z
M612 809.5q-32 -27.5 -76 -27.5q-18 0 -32.5 5.5t-29.5 16.5l-12 9q-19 14 -34 14t-24 -9.5t-14 -33.5h-72l3 15q12 54 44.5 81.5t76.5 27.5q32 0 63 -22l12 -9q10 -7 17 -10.5t16 -3.5q15 0 24 9.5t14 33.5h71l-3 -15q-12 -54 -44 -81.5z" />
    <glyph glyph-name="uni1EEF" unicode="&#x1eef;" horiz-adv-x="613" 
d="M96.5 39q-43.5 49 -43.5 124q0 26 6 53l61 284h110l-60 -283q-4 -19 -4 -38q0 -41 22 -64.5t61 -23.5q55 0 94 38.5t54 111.5l55 259h110l-17 -82q28 6 47 25t29 57h73q-15 -71 -59 -111t-107 -49l-72 -340h-110l12 59q-26 -34 -63.5 -51.5t-81.5 -17.5q-73 0 -116.5 49z
M497 599.5q-32 -27.5 -76 -27.5q-18 0 -32.5 5.5t-29.5 16.5l-12 9q-19 14 -34 14t-24 -9.5t-14 -33.5h-72l3 15q12 54 44.5 81.5t76.5 27.5q32 0 63 -22l12 -9q10 -7 17 -10.5t16 -3.5q15 0 24 9.5t14 33.5h71l-3 -15q-12 -54 -44 -81.5z" />
    <glyph glyph-name="uni1EF0" unicode="&#x1ef0;" horiz-adv-x="793" 
d="M537 59.5q-77 -71.5 -215 -71.5q-73 0 -129.5 28.5t-88 81t-31.5 120.5q0 30 8 68l90 424h117l-91 -430q-6 -28 -6 -52q0 -63 38 -95t103 -32q76 0 125.5 44t68.5 130l92 435h118l-17 -80q56 12 73 81h73q-15 -70 -58 -110t-104 -49l-58 -274q-31 -147 -108 -218.5z
M265 -101q18 18 44 18t44 -18t18 -44t-18 -44t-44 -18t-44 18t-18 44t18 44z" />
    <glyph glyph-name="uni1EF1" unicode="&#x1ef1;" horiz-adv-x="613" 
d="M96.5 39q-43.5 49 -43.5 124q0 26 6 53l61 284h110l-60 -283q-4 -19 -4 -38q0 -41 22 -64.5t61 -23.5q55 0 94 38.5t54 111.5l55 259h110l-17 -82q28 6 47 25t29 57h73q-15 -71 -59 -111t-107 -49l-72 -340h-110l12 59q-26 -34 -63.5 -51.5t-81.5 -17.5q-73 0 -116.5 49z
M195 -101q18 18 44 18t44 -18t18 -44t-18 -44t-44 -18t-44 18t-18 44t18 44z" />
    <glyph glyph-name="Ygrave" unicode="&#x1ef2;" horiz-adv-x="680" 
d="M105 710h124l130 -299l258 299h145l-358 -411l-63 -299h-117l63 300zM487 772h-78l-94 146h118z" />
    <glyph glyph-name="ygrave" unicode="&#x1ef3;" horiz-adv-x="556" 
d="M57 500h111l80 -356l232 356h127l-472 -709h-123l159 238zM380 562h-78l-94 146h118z" />
    <glyph glyph-name="uni1EF4" unicode="&#x1ef4;" horiz-adv-x="680" 
d="M105 710h124l130 -299l258 299h145l-358 -411l-63 -299h-117l63 300zM243 -101q18 18 44 18t44 -18t18 -44t-18 -44t-44 -18t-44 18t-18 44t18 44z" />
    <glyph glyph-name="uni1EF5" unicode="&#x1ef5;" horiz-adv-x="556" 
d="M57 500h111l80 -356l232 356h127l-472 -709h-123l159 238zM311 -101q18 18 44 18t44 -18t18 -44t-18 -44t-44 -18t-44 18t-18 44t18 44z" />
    <glyph glyph-name="uni1EF6" unicode="&#x1ef6;" horiz-adv-x="680" 
d="M105 710h124l130 -299l258 299h145l-358 -411l-63 -299h-117l63 300zM457 831q15 14 23.5 24.5t11.5 24.5q1 3 1 9q0 13 -7.5 21t-20.5 8q-25 0 -52 -32l-35 25q25 35 58 53.5t71 18.5q36 0 57.5 -18.5t21.5 -47.5q0 -4 -2 -16q-5 -26 -19.5 -43.5t-41.5 -40.5
q-3 -3 -17.5 -16.5t-25.5 -28.5l-61 14q12 21 38 45z" />
    <glyph glyph-name="uni1EF7" unicode="&#x1ef7;" horiz-adv-x="556" 
d="M57 500h111l80 -356l232 356h127l-472 -709h-123l159 238zM350 621q15 14 23.5 24.5t11.5 24.5q1 3 1 9q0 13 -7.5 21t-20.5 8q-25 0 -52 -32l-35 25q25 35 58 53.5t71 18.5q36 0 57.5 -18.5t21.5 -47.5q0 -4 -2 -16q-5 -26 -19.5 -43.5t-41.5 -40.5q-3 -3 -17.5 -16.5
t-25.5 -28.5l-61 14q12 21 38 45z" />
    <glyph glyph-name="uni1EF8" unicode="&#x1ef8;" horiz-adv-x="680" 
d="M105 710h124l130 -299l258 299h145l-358 -411l-63 -299h-117l63 300zM590 809.5q-32 -27.5 -76 -27.5q-18 0 -32.5 5.5t-29.5 16.5l-12 9q-19 14 -34 14t-24 -9.5t-14 -33.5h-72l3 15q12 54 44.5 81.5t76.5 27.5q32 0 63 -22l12 -9q10 -7 17 -10.5t16 -3.5q15 0 24 9.5
t14 33.5h71l-3 -15q-12 -54 -44 -81.5z" />
    <glyph glyph-name="uni1EF9" unicode="&#x1ef9;" horiz-adv-x="556" 
d="M57 500h111l80 -356l232 356h127l-472 -709h-123l159 238zM483 599.5q-32 -27.5 -76 -27.5q-18 0 -32.5 5.5t-29.5 16.5l-12 9q-19 14 -34 14t-24 -9.5t-14 -33.5h-72l3 15q12 54 44.5 81.5t76.5 27.5q32 0 63 -22l12 -9q10 -7 17 -10.5t16 -3.5q15 0 24 9.5t14 33.5h71
l-3 -15q-12 -54 -44 -81.5z" />
    <glyph glyph-name="uni2007" unicode="&#x2007;" horiz-adv-x="590" 
 />
    <glyph glyph-name="uni2008" unicode="&#x2008;" horiz-adv-x="263" 
 />
    <glyph glyph-name="uni2009" unicode="&#x2009;" horiz-adv-x="125" 
 />
    <glyph glyph-name="uni200B" unicode="&#x200b;" 
 />
    <glyph glyph-name="endash" unicode="&#x2013;" horiz-adv-x="575" 
d="M529 334l-23 -108h-452l23 108h452z" />
    <glyph glyph-name="emdash" unicode="&#x2014;" horiz-adv-x="751" 
d="M705 334l-23 -108h-628l23 108h628z" />
    <glyph glyph-name="quoteleft" unicode="&#x2018;" horiz-adv-x="263" 
d="M313 710l-97 -152q39 -30 39 -74q0 -36 -25 -61.5t-61 -25.5t-61.5 26t-25.5 61q0 32 25 61l137 165h69z" />
    <glyph glyph-name="quoteright" unicode="&#x2019;" horiz-adv-x="265" 
d="M81 406l97 152q-39 30 -39 74q0 36 25 61.5t61 25.5t61.5 -26t25.5 -61q0 -32 -25 -61l-137 -165h-69z" />
    <glyph glyph-name="quotesinglbase" unicode="&#x201a;" horiz-adv-x="267" 
d="M-41 -147l97 152q-39 30 -39 74q0 36 25 61.5t61 25.5t61.5 -26t25.5 -61q0 -32 -25 -61l-137 -165h-69z" />
    <glyph glyph-name="quotedblleft" unicode="&#x201c;" horiz-adv-x="469" 
d="M313 710l-97 -152q39 -30 39 -74q0 -36 -25 -61.5t-61 -25.5t-61.5 26t-25.5 61q0 32 25 61l137 165h69zM314 545l137 165h69l-97 -152q39 -30 39 -74q0 -36 -25 -61.5t-61 -25.5t-61.5 26t-25.5 61q0 32 25 61z" />
    <glyph glyph-name="quotedblright" unicode="&#x201d;" horiz-adv-x="471" 
d="M81 406l97 152q-39 30 -39 74q0 36 25 61.5t61 25.5t61.5 -26t25.5 -61q0 -32 -25 -61l-137 -165h-69zM385 558q-39 30 -39 74q0 36 25 61.5t61 25.5t61.5 -26t25.5 -61q0 -32 -25 -61l-137 -165h-69z" />
    <glyph glyph-name="quotedblbase" unicode="&#x201e;" horiz-adv-x="473" 
d="M-41 -147l97 152q-39 30 -39 74q0 36 25 61.5t61 25.5t61.5 -26t25.5 -61q0 -32 -25 -61l-137 -165h-69zM263 5q-39 30 -39 74q0 36 25 61.5t61 25.5t61.5 -26t25.5 -61q0 -32 -25 -61l-137 -165h-69z" />
    <glyph glyph-name="dagger" unicode="&#x2020;" horiz-adv-x="513" 
d="M60 409l20 91h179l45 210h96l-45 -210h180l-20 -91h-179l-108 -507h-96l108 507h-180z" />
    <glyph glyph-name="daggerdbl" unicode="&#x2021;" horiz-adv-x="537" 
d="M240 -98h-96l45 210h-179l18 91h180l44 206h-180l20 91h179l45 210h96l-45 -210h180l-20 -91h-179l-44 -206h180l-19 -91h-180z" />
    <glyph glyph-name="bullet" unicode="&#x2022;" horiz-adv-x="411" 
d="M144.5 184.5q-31.5 18.5 -50 49.5t-18.5 68t18.5 68t50 49.5t67.5 18.5q37 0 68.5 -18.5t50 -49.5t18.5 -68t-18.5 -68t-50 -49.5t-68.5 -18.5q-36 0 -67.5 18.5z" />
    <glyph glyph-name="ellipsis" unicode="&#x2026;" horiz-adv-x="762" 
d="M37 17.5q-25 25.5 -25 61.5t25 61.5t61 25.5t61.5 -26t25.5 -61q0 -36 -25.5 -61.5t-61.5 -25.5t-61 25.5zM290 140.5q25 25.5 61 25.5t61.5 -26t25.5 -61q0 -36 -25.5 -61.5t-61.5 -25.5t-61 25.5t-25 61.5t25 61.5zM542 140.5q25 25.5 61 25.5t61.5 -26t25.5 -61
q0 -36 -25.5 -61.5t-61.5 -25.5t-61 25.5t-25 61.5t25 61.5z" />
    <glyph glyph-name="perthousand" unicode="&#x2030;" horiz-adv-x="1492" 
d="M187 350.5q-45 26.5 -71.5 72t-26.5 98.5q0 54 26.5 99t71.5 71.5t99 26.5q53 0 98.5 -26.5t72 -71.5t26.5 -99q0 -53 -26.5 -98.5t-72 -72t-98.5 -26.5q-54 0 -99 26.5zM215 449.5q29 -29.5 71 -29.5t71 29.5t29 71.5t-29 71.5t-71 29.5t-71 -29.5t-29 -71.5t29 -71.5z
M792 710h127l-600 -710h-128zM654.5 288q26.5 45 71.5 71.5t99 26.5q53 0 98.5 -26.5t72 -71.5t26.5 -99q0 -53 -26.5 -98.5t-72 -72t-98.5 -26.5q-54 0 -99 26.5t-71.5 72t-26.5 98.5q0 54 26.5 99zM753.5 118q29.5 -30 71.5 -30q41 0 70 30t29 71t-29 71t-70 30
q-42 0 -71.5 -30t-29.5 -71t29.5 -71zM1075.5 288q26.5 45 71.5 71.5t99 26.5q53 0 98.5 -26.5t72 -71.5t26.5 -99q0 -53 -26.5 -98.5t-72 -72t-98.5 -26.5q-54 0 -99 26.5t-71.5 72t-26.5 98.5q0 54 26.5 99zM1174.5 118q29.5 -30 71.5 -30q41 0 70 30t29 71t-29 71t-70 30
q-42 0 -71.5 -30t-29.5 -71t29.5 -71z" />
    <glyph glyph-name="guilsinglleft" unicode="&#x2039;" horiz-adv-x="315" 
d="M318 467l-166 -231l72 -203h-89l-101 217l187 217h97z" />
    <glyph glyph-name="guilsinglright" unicode="&#x203a;" horiz-adv-x="316" 
d="M-6 34l166 231l-72 203h89l101 -217l-187 -217h-97z" />
    <glyph glyph-name="fraction" unicode="&#x2044;" horiz-adv-x="180" 
d="M489 710l-651 -710h-105l651 710h105z" />
    <glyph glyph-name="uni2060" unicode="&#x2060;" horiz-adv-x="241" 
 />
    <glyph glyph-name="uni2070" unicode="&#x2070;" horiz-adv-x="386" 
d="M136.5 442q-38.5 38 -38.5 101q0 19 5 44l21 102q15 76 59.5 118t116.5 42q66 0 104.5 -38t38.5 -101q0 -19 -5 -44l-21 -103q-15 -76 -59.5 -117.5t-116.5 -41.5q-66 0 -104.5 38zM180 551q0 -31 18 -48.5t48 -17.5q37 0 59 20.5t31 63.5l24 110q3 12 3 23
q0 30 -19 47.5t-49 17.5q-73 0 -90 -83l-23 -111q-2 -8 -2 -22z" />
    <glyph glyph-name="uni2074" unicode="&#x2074;" horiz-adv-x="391" 
d="M69 509l14 67l280 266h74l-55 -257h57l-16 -76h-57l-21 -99h-82l21 99h-215zM300 585l26 125l-132 -125h106z" />
    <glyph glyph-name="uni2075" unicode="&#x2075;" horiz-adv-x="356" 
d="M131.5 438.5q-46.5 34.5 -53.5 96.5h86q9 -24 29 -37t46 -13q31 0 52 20t21 51q0 27 -15.5 45t-45.5 18q-49 0 -75 -44l-73 24l99 243h221l-17 -81h-151l-32 -77q24 9 53 9q52 0 85.5 -38t33.5 -92q0 -70 -40 -114.5t-118 -44.5q-59 0 -105.5 34.5z" />
    <glyph glyph-name="uni2076" unicode="&#x2076;" horiz-adv-x="353" 
d="M158 422.5q-34 18.5 -52.5 48.5t-18.5 64q0 46 16.5 79.5t58.5 76.5l147 151h110l-147 -152q51 -2 86.5 -39t35.5 -93q0 -43 -19.5 -78t-55.5 -55.5t-82 -20.5q-45 0 -79 18.5zM190.5 501.5q19.5 -18.5 47.5 -18.5q31 0 50.5 20.5t19.5 51.5q0 27 -18.5 45.5t-46.5 18.5
q-32 0 -52 -20.5t-20 -51.5q0 -27 19.5 -45.5z" />
    <glyph glyph-name="uni2077" unicode="&#x2077;" horiz-adv-x="339" 
d="M132 761l16 81h302l-16 -72l-271 -360h-100l264 351h-195z" />
    <glyph glyph-name="uni2078" unicode="&#x2078;" horiz-adv-x="364" 
d="M156.5 421.5q-33.5 18.5 -50.5 48t-17 61.5q0 41 20.5 75.5t60.5 49.5q-27 29 -27 70q0 56 40 89.5t103 33.5q56 0 90.5 -32t36.5 -76q0 -31 -15.5 -57.5t-42.5 -43.5q20 -17 30 -40.5t10 -48.5q0 -73 -45.5 -110.5t-113.5 -37.5q-46 0 -79.5 18.5zM191.5 497.5
q17.5 -17.5 48.5 -17.5q32 0 51.5 19.5t19.5 50.5q0 24 -17 42t-49 18q-34 -1 -52.5 -20.5t-18.5 -50.5q0 -24 17.5 -41.5zM236 688q13 -14 38 -14q26 0 42.5 15.5t16.5 40.5q0 18 -13 31.5t-38 13.5q-26 0 -42.5 -15.5t-16.5 -40.5q0 -17 13 -31z" />
    <glyph glyph-name="uni2079" unicode="&#x2079;" horiz-adv-x="353" 
d="M150 602q-35 37 -35 93q0 43 19.5 78t55 55.5t81.5 20.5q45 0 79.5 -18.5t53 -48.5t18.5 -65q0 -45 -17 -78t-59 -77l-147 -152h-111l148 152q-51 3 -86 40zM219 651.5q19 -18.5 47 -18.5q31 0 51 20.5t20 51.5q0 27 -19 45.5t-47 18.5q-31 0 -51 -20.5t-20 -51.5
q0 -27 19 -45.5z" />
    <glyph glyph-name="uni2080" unicode="&#x2080;" horiz-adv-x="386" 
d="M24.5 -83q-38.5 38 -38.5 101q0 19 5 44l21 102q15 76 59.5 118t116.5 42q66 0 104.5 -38t38.5 -101q0 -19 -5 -44l-21 -103q-15 -76 -59.5 -117.5t-116.5 -41.5q-66 0 -104.5 38zM68 26q0 -31 18 -48.5t48 -17.5q37 0 59 20.5t31 63.5l24 110q3 12 3 23q0 30 -19 47.5
t-49 17.5q-73 0 -90 -83l-23 -111q-2 -8 -2 -22z" />
    <glyph glyph-name="uni2081" unicode="&#x2081;" horiz-adv-x="233" 
d="M-1 235l78 82h114l-92 -432h-83l75 350h-92z" />
    <glyph glyph-name="uni2082" unicode="&#x2082;" horiz-adv-x="356" 
d="M-3 5.5q26 31.5 55 49.5t84 46q45 25 66.5 45t21.5 48q0 22 -14.5 35t-39.5 13q-28 0 -47.5 -16.5t-23.5 -43.5h-83q7 67 52.5 104.5t109.5 37.5q53 0 91.5 -33.5t38.5 -88.5q0 -59 -28.5 -94.5t-96.5 -71.5l-18 -9q-34 -18 -52.5 -31t-25.5 -30h175l-17 -81h-293l9 43
q10 46 36 77.5z" />
    <glyph glyph-name="uni2083" unicode="&#x2083;" horiz-adv-x="365" 
d="M58 -105.5q-36 16.5 -57 50t-18 80.5h80q0 -32 21 -48.5t51 -16.5q32 0 50.5 16.5t18.5 44.5q0 23 -15.5 37.5t-42.5 14.5h-43l14 67h32q33 0 52 15.5t19 42.5q-1 20 -16 32t-38 12q-27 0 -49 -16t-26 -44h-83q6 68 54 105t110 37q56 0 93 -32.5t37 -82.5
q0 -39 -17.5 -66.5t-50.5 -41.5q23 -12 36.5 -35.5t13.5 -51.5q0 -36 -17.5 -67t-51.5 -50t-82 -19q-39 0 -75 16.5z" />
    <glyph glyph-name="uni2084" unicode="&#x2084;" horiz-adv-x="391" 
d="M-43 -16l14 67l280 266h74l-55 -257h57l-16 -76h-57l-21 -99h-82l21 99h-215zM188 60l26 125l-132 -125h106z" />
    <glyph glyph-name="uni2085" unicode="&#x2085;" horiz-adv-x="356" 
d="M19.5 -86.5q-46.5 34.5 -53.5 96.5h86q9 -24 29 -37t46 -13q31 0 52 20t21 51q0 27 -15.5 45t-45.5 18q-49 0 -75 -44l-73 24l99 243h221l-17 -81h-151l-32 -77q24 9 53 9q52 0 85.5 -38t33.5 -92q0 -70 -40 -114.5t-118 -44.5q-59 0 -105.5 34.5z" />
    <glyph glyph-name="uni2086" unicode="&#x2086;" horiz-adv-x="353" 
d="M47 -102.5q-34 18.5 -52.5 48.5t-18.5 64q0 46 16.5 79.5t58.5 76.5l147 151h110l-147 -152q51 -2 86.5 -39t35.5 -93q0 -43 -19.5 -78t-55.5 -55.5t-82 -20.5q-45 0 -79 18.5zM79.5 -23.5q19.5 -18.5 47.5 -18.5q31 0 50.5 20.5t19.5 51.5q0 27 -18.5 45.5t-46.5 18.5
q-32 0 -52 -20.5t-20 -51.5q0 -27 19.5 -45.5z" />
    <glyph glyph-name="uni2087" unicode="&#x2087;" horiz-adv-x="339" 
d="M21 236l16 81h302l-16 -72l-271 -360h-100l264 351h-195z" />
    <glyph glyph-name="uni2088" unicode="&#x2088;" horiz-adv-x="364" 
d="M44.5 -103.5q-33.5 18.5 -50.5 48t-17 61.5q0 41 20.5 75.5t60.5 49.5q-27 29 -27 70q0 56 40 89.5t103 33.5q56 0 90.5 -32t36.5 -76q0 -31 -15.5 -57.5t-42.5 -43.5q20 -17 30 -40.5t10 -48.5q0 -73 -45.5 -110.5t-113.5 -37.5q-46 0 -79.5 18.5zM79.5 -27.5
q17.5 -17.5 48.5 -17.5q32 0 51.5 19.5t19.5 50.5q0 24 -17 42t-49 18q-34 -1 -52.5 -20.5t-18.5 -50.5q0 -24 17.5 -41.5zM124 163q13 -14 38 -14q26 0 42.5 15.5t16.5 40.5q0 18 -13 31.5t-38 13.5q-26 0 -42.5 -15.5t-16.5 -40.5q0 -17 13 -31z" />
    <glyph glyph-name="uni2089" unicode="&#x2089;" horiz-adv-x="353" 
d="M38 77q-35 37 -35 93q0 43 19.5 78t55 55.5t81.5 20.5q45 0 79.5 -18.5t53 -48.5t18.5 -65q0 -45 -17 -78t-59 -77l-147 -152h-111l148 152q-51 3 -86 40zM107 126.5q19 -18.5 47 -18.5q31 0 51 20.5t20 51.5q0 27 -19 45.5t-47 18.5q-31 0 -51 -20.5t-20 -51.5
q0 -27 19 -45.5z" />
    <glyph glyph-name="Euro" unicode="&#x20ac;" horiz-adv-x="876" 
d="M146 319q0 44 7 80h-91l35 55h69q39 121 139.5 194.5t243.5 73.5q79 0 144.5 -28.5t110 -79t64.5 -114.5h-125q-25 51 -79 82.5t-124 31.5q-86 0 -153.5 -43.5t-101.5 -116.5h393l-35 -55h-376q-8 -35 -8 -69v-17h330l-33 -55h-289q19 -76 77.5 -119t149.5 -43
q65 0 119.5 30.5t91.5 83.5h125q-45 -103 -132.5 -162.5t-214.5 -59.5q-90 0 -160.5 35t-114.5 96t-57 139h-119l35 55h79v6z" />
    <glyph glyph-name="uni20B4" unicode="&#x20b4;" horiz-adv-x="619" 
d="M471.5 484q11.5 22 11.5 48q0 41 -27.5 64t-73.5 23q-49 0 -82.5 -26t-50.5 -74h-109q19 98 87 150.5t164 52.5q58 0 103.5 -21.5t71.5 -60.5t26 -89q0 -60 -33 -104h49l-13 -56h-525l13 56h356q21 15 32.5 37zM58 328h525l-12 -56h-355q-24 -15 -37 -37.5t-13 -47.5
q0 -44 35.5 -70t92.5 -26t96.5 29.5t49.5 83.5h109q-16 -103 -85.5 -159.5t-179.5 -56.5q-63 0 -115 22.5t-82.5 63.5t-30.5 93q0 63 42 105h-52z" />
    <glyph glyph-name="uni20B8" unicode="&#x20b8;" horiz-adv-x="599" 
d="M659 710l-12 -56h-529l12 56h529zM105 591h529l-23 -108h-210l-103 -483h-110l103 483h-210z" />
    <glyph glyph-name="uni20BD" unicode="&#x20bd;" horiz-adv-x="621" 
d="M23 137l12 56h86l16 75h-86l23 106h86l71 336h178q70 0 121.5 -24.5t78.5 -68.5t27 -101q0 -71 -32 -127t-97 -88.5t-162 -32.5h-98l-16 -75h186l-12 -56h-186l-29 -137h-110l29 137h-86zM369 374q70 0 111.5 36.5t41.5 96.5q0 44 -27.5 70t-86.5 26h-90l-48 -229h99z
" />
    <glyph glyph-name="uni2116" unicode="&#x2116;" horiz-adv-x="1112" 
d="M901.5 426q-35.5 21 -56 56.5t-20.5 77.5t20.5 77.5t56 56.5t77.5 21t77.5 -21t56.5 -56.5t21 -77.5t-21 -77.5t-56.5 -56.5t-77.5 -21t-77.5 21zM184 710h101l289 -524l111 524h117l-151 -710h-101l-289 524l-111 -524h-117zM786 359h302l-16 -77h-302zM925.5 505
q22.5 -23 54.5 -23t54.5 23t22.5 55t-22.5 55t-54.5 23t-54.5 -23t-22.5 -55t22.5 -55z" />
    <glyph glyph-name="uni2117" unicode="&#x2117;" horiz-adv-x="830" 
d="M251 37.5q-84 49.5 -133.5 134t-49.5 183.5t49.5 183.5t133.5 134t183 49.5t184 -49.5t134.5 -134t49.5 -183.5t-49.5 -183.5t-134.5 -134t-184 -49.5t-183 49.5zM184 209.5q39 -66.5 105.5 -105.5t144.5 -39q79 0 145.5 39t105.5 105.5t39 145.5t-39 145.5t-105.5 105.5
t-145.5 39q-78 0 -144.5 -39t-105.5 -105.5t-39 -145.5t39 -145.5zM334 541h125q56 0 93 -36t37 -90q0 -53 -37 -89t-93 -36h-48v-121h-77v372zM458 362q25 0 40.5 15t15.5 38t-15.5 38.5t-40.5 15.5h-47v-107h47z" />
    <glyph glyph-name="trademark" unicode="&#x2122;" horiz-adv-x="882" 
d="M564 710l97 -142l96 142h83v-374h-85v227l-94 -138l-95 139v-228h-85v374h83zM122 710h298v-86h-105v-288h-88v288h-105v86z" />
    <glyph glyph-name="uni2150" unicode="&#x2150;" horiz-adv-x="869" 
d="M83 628l78 82h114l-92 -432h-83l75 350h-92zM672 710h105l-651 -710h-105zM771 351h-195l16 81h302l-16 -72l-271 -360h-100z" />
    <glyph glyph-name="uni2151" unicode="&#x2151;" horiz-adv-x="843" 
d="M83 628l78 82h114l-92 -432h-83l75 350h-92zM672 710h105l-651 -710h-105zM639 152q-51 3 -86 40t-35 93q0 43 19.5 78t55 55.5t81.5 20.5q45 0 79.5 -18.5t53 -48.5t18.5 -65q0 -45 -17 -78t-59 -77l-147 -152h-111zM622 241.5q19 -18.5 47 -18.5q31 0 51 20.5t20 51.5
q0 27 -19 45.5t-47 18.5q-31 0 -51 -20.5t-20 -51.5q0 -27 19 -45.5z" />
    <glyph glyph-name="uni2152" unicode="&#x2152;" horiz-adv-x="1118" 
d="M83 628l78 82h114l-92 -432h-83l75 350h-92zM672 710h105l-651 -710h-105zM601 432h114l-92 -432h-83l75 350h-92zM769 279q15 76 59.5 118t116.5 42q66 0 104.5 -38t38.5 -101q0 -19 -5 -44l-21 -103q-15 -76 -59.5 -117.5t-116.5 -41.5q-66 0 -104.5 38t-38.5 101
q0 19 5 44zM825 141q0 -31 18 -48.5t48 -17.5q37 0 59 20.5t31 63.5l24 110q3 12 3 23q0 30 -19 47.5t-49 17.5q-73 0 -90 -83l-23 -111q-2 -8 -2 -22z" />
    <glyph glyph-name="uni2153" unicode="&#x2153;" horiz-adv-x="849" 
d="M83 628l78 82h114l-92 -432h-83l75 350h-92zM672 710h105l-651 -710h-105zM571 140q0 -32 21 -48.5t51 -16.5q32 0 50.5 16.5t18.5 44.5q0 23 -15.5 37.5t-42.5 14.5h-43l14 67h32q33 0 52 15.5t19 42.5q-1 20 -16 32t-38 12q-27 0 -49 -16t-26 -44h-83q6 68 54 105
t110 37q56 0 93 -32.5t37 -82.5q0 -39 -17.5 -66.5t-50.5 -41.5q23 -12 36.5 -35.5t13.5 -51.5q0 -36 -17.5 -67t-51.5 -50t-82 -19q-39 0 -75 16.5t-57 50t-18 80.5h80z" />
    </font>
</defs>
</svg>
